<?xml version="1.0" standalone="no"?>
<!DOCTYPE svg PUBLIC "-//W3C//DTD SVG 20010904//EN"
 "http://www.w3.org/TR/2001/REC-SVG-20010904/DTD/svg10.dtd">
<svg version="1.0" xmlns="http://www.w3.org/2000/svg"
 width="2000.000000pt" height="2000.000000pt" viewBox="0 0 2000.000000 2000.000000"
 preserveAspectRatio="xMidYMid meet">

<g transform="translate(0.000000,2000.000000) scale(0.100000,-0.100000)"
fill="#8BF5FA" stroke="none">
<path d="M10474 18684 c-170 -130 -353 -237 -810 -475 -469 -243 -656 -351
-944 -542 -340 -226 -669 -501 -858 -717 -310 -355 -574 -1003 -662 -1630 -83
-583 -32 -1101 157 -1610 124 -334 396 -821 637 -1140 35 -47 63 -86 62 -87
-5 -6 -114 30 -196 64 -47 19 -172 82 -277 140 -106 58 -238 124 -294 147
l-101 42 -43 99 c-52 124 -135 339 -264 691 -215 587 -445 1088 -678 1476
-192 320 -347 522 -583 759 -581 584 -1179 811 -2490 949 -455 47 -650 80
-846 141 -124 39 -129 41 -299 154 -191 127 -255 143 -255 64 0 -32 85 -207
185 -384 93 -165 153 -288 165 -339 5 -25 14 -137 20 -248 48 -1015 587 -1977
1405 -2511 321 -209 724 -392 1108 -501 224 -64 427 -109 752 -166 311 -55
437 -82 610 -130 104 -30 363 -128 486 -184 l56 -26 -43 -87 c-24 -48 -44 -93
-44 -100 0 -9 -8 -12 -22 -8 -74 17 -233 36 -383 46 -550 36 -1247 -99 -1705
-332 -225 -114 -416 -247 -785 -549 -245 -200 -265 -218 -265 -245 0 -35 30
-53 134 -80 329 -85 557 -223 1076 -649 309 -253 486 -380 671 -480 153 -82
324 -134 599 -180 329 -56 615 -26 890 94 50 21 114 53 141 70 35 21 51 26 54
18 2 -7 18 -53 36 -103 57 -167 184 -393 302 -537 26 -32 47 -62 47 -67 0 -5
-21 -12 -47 -16 -176 -26 -711 -187 -998 -300 -549 -216 -1090 -582 -1531
-1038 -164 -169 -247 -269 -349 -422 -228 -341 -381 -725 -452 -1130 -25 -144
-23 -485 5 -819 23 -276 29 -592 12 -736 -5 -47 -23 -226 -40 -399 -16 -173
-35 -342 -40 -375 -20 -123 -9 -196 28 -196 23 0 52 32 183 195 136 170 294
328 394 393 115 76 204 101 390 113 187 12 279 7 685 -38 291 -31 345 -35 515
-30 163 4 204 8 290 31 181 47 356 149 452 264 49 58 134 187 153 231 9 24 17
30 29 25 65 -28 137 -47 202 -51 194 -14 459 93 645 261 36 32 67 56 69 54 3
-2 9 -157 14 -344 10 -380 14 -405 81 -475 34 -36 41 -39 93 -39 30 0 93 9
139 19 122 29 185 34 263 21 95 -15 176 -57 266 -138 41 -38 93 -79 115 -92
55 -35 126 -32 227 9 89 36 110 37 204 15 76 -18 155 -14 199 9 16 9 60 45 97
80 81 77 165 124 302 167 269 85 349 142 443 318 61 116 88 209 117 407 53
366 96 450 275 539 147 74 143 73 191 38 132 -97 452 -601 553 -869 l28 -73
-22 -64 c-58 -176 -168 -295 -472 -509 -75 -53 -164 -120 -198 -148 -72 -60
-153 -166 -175 -228 -19 -55 -19 -143 -2 -203 l14 -44 -66 -35 c-92 -47 -180
-138 -224 -230 -75 -158 -90 -329 -62 -708 17 -232 17 -253 1 -374 -18 -139
-13 -167 27 -167 33 0 66 27 138 108 143 164 199 239 377 507 208 314 281 415
427 595 239 293 327 471 372 755 21 137 13 419 -17 560 -47 223 -167 516 -292
715 -30 47 -62 99 -72 115 -30 50 226 -218 337 -353 144 -176 246 -317 487
-678 181 -271 212 -322 234 -394 48 -152 84 -383 121 -790 35 -387 64 -591
111 -788 58 -247 161 -415 479 -777 86 -99 179 -211 206 -250 55 -77 137 -240
195 -388 32 -83 41 -97 58 -95 47 7 70 174 70 518 0 289 -11 374 -69 559 -19
62 -35 120 -35 129 0 8 18 43 39 76 53 83 72 144 78 251 14 268 -141 541 -499
877 -343 321 -427 409 -558 583 -70 94 -237 332 -370 530 -264 393 -416 600
-562 770 -117 136 -284 297 -402 390 -49 39 -106 85 -125 103 -33 30 -34 32
-10 23 69 -25 288 -129 385 -183 168 -92 312 -191 514 -352 298 -237 437 -323
610 -377 90 -29 232 -32 485 -11 121 11 180 11 245 3 140 -18 140 2 4 179
-142 184 -284 328 -406 411 -123 84 -190 110 -412 161 -56 13 -59 15 -71 53
-36 123 -138 234 -280 307 -237 121 -574 178 -800 134 -38 -8 -72 -12 -74 -11
-1 2 29 20 68 39 77 39 222 88 581 194 129 39 285 90 345 115 l110 44 8 -51
c34 -216 112 -356 264 -477 181 -144 361 -208 673 -238 148 -15 247 -43 380
-108 102 -51 125 -67 206 -147 140 -140 193 -255 201 -442 9 -176 -21 -300
-129 -544 -88 -198 -110 -264 -116 -352 -5 -89 6 -126 50 -163 46 -39 107 -34
224 16 96 41 120 45 224 40 81 -4 261 17 333 39 144 45 416 195 479 264 l27
29 89 -13 c126 -18 245 -10 307 20 69 34 191 159 318 325 58 77 136 174 172
215 307 344 474 635 532 927 24 121 24 435 0 588 -58 373 -147 519 -471 778
-182 145 -361 253 -501 302 -55 19 -62 24 -42 29 14 3 78 -2 143 -11 74 -10
186 -16 294 -16 149 0 187 3 255 21 159 44 282 124 412 269 121 136 178 190
220 211 43 22 90 33 275 62 70 12 179 38 245 61 197 66 285 66 358 -2 46 -42
78 -107 190 -385 71 -175 108 -246 150 -289 30 -29 43 -35 78 -35 71 0 106 32
138 130 20 60 23 91 27 373 5 353 -4 458 -48 578 -38 103 -73 166 -172 307
-142 203 -159 261 -137 469 15 148 5 262 -37 395 -117 371 -404 677 -784 833
-101 41 -274 82 -403 95 -141 15 -302 3 -500 -36 l-127 -26 -92 26 c-114 33
-235 91 -408 196 -74 45 -155 92 -180 105 -53 26 -181 68 -265 87 -78 17 -495
17 -624 0 -51 -7 -95 -11 -96 -10 -3 5 391 377 620 585 246 223 355 335 455
468 132 177 196 310 250 525 87 343 107 380 355 649 247 270 366 434 406 561
56 181 24 358 -86 464 -84 83 -189 125 -458 185 -236 53 -317 86 -436 178
-216 166 -258 196 -313 224 -71 36 -157 59 -219 59 -42 0 -50 4 -84 41 -20 22
-60 91 -89 153 -62 132 -98 176 -173 212 -73 36 -158 36 -312 0 -132 -31 -182
-33 -339 -16 -142 16 -298 8 -372 -18 -152 -54 -385 -228 -536 -400 -236 -269
-445 -713 -510 -1085 -10 -53 -21 -94 -25 -90 -4 5 -69 109 -144 233 -286 470
-322 506 -630 620 -283 105 -360 161 -475 345 -178 285 -479 477 -809 517 -53
6 -97 12 -99 14 -2 1 17 65 41 141 90 278 119 473 138 905 11 259 4 616 -22
1126 -13 253 -2 473 31 630 11 51 22 121 26 156 6 56 4 66 -15 85 -30 30 -52
26 -107 -15z m32 -150 c-41 -198 -52 -570 -28 -999 6 -104 10 -191 8 -193 -2
-1 -33 8 -69 22 -36 14 -114 37 -174 53 -100 26 -122 28 -288 27 -153 0 -190
-3 -250 -21 -38 -12 -71 -20 -73 -18 -5 5 221 305 554 730 60 78 159 216 219
307 61 91 111 165 113 164 1 -2 -4 -34 -12 -72z m-38 39 c-271 -313 -517 -622
-843 -1058 -577 -772 -862 -1226 -1083 -1725 -73 -166 -162 -390 -193 -487
-13 -40 -29 -73 -35 -73 -33 0 -126 25 -196 52 -87 34 -122 33 -132 -7 -19
-75 67 -211 181 -285 l69 -45 -38 -154 c-89 -369 -122 -650 -122 -1041 -1
-298 9 -452 45 -720 10 -80 19 -148 19 -152 0 -4 -35 16 -77 45 -46 31 -107
62 -148 75 -92 29 -103 28 -35 -4 30 -14 103 -53 161 -87 l106 -62 13 -70 c7
-38 27 -128 45 -200 18 -71 32 -131 31 -132 -1 -1 -26 4 -56 10 l-55 12 -87
130 c-48 72 -135 209 -192 305 -401 671 -545 1053 -602 1590 -20 190 -14 591
10 770 85 610 325 1233 614 1591 122 151 381 387 637 579 321 241 605 411
1195 718 393 204 506 267 670 373 116 75 120 77 98 52z m-423 -1173 c151 -11
209 -19 353 -51 l94 -21 -5 -426 c-5 -464 -13 -574 -67 -842 -23 -117 -70
-277 -115 -391 -5 -12 -30 -20 -95 -28 -188 -24 -312 -74 -527 -212 -67 -43
-159 -97 -205 -120 l-83 -43 -220 -2 c-140 -1 -293 -9 -420 -23 -218 -23 -355
-27 -355 -11 0 19 92 263 157 419 83 196 254 533 363 716 84 142 322 504 428
650 52 72 61 80 99 87 78 13 386 28 482 23 l96 -4 -65 14 c-153 32 -361 28
-489 -11 -25 -7 -46 -12 -48 -10 -2 1 39 62 90 134 108 154 76 140 372 160 11
1 83 -3 160 -8z m-8085 -325 c74 -50 165 -106 201 -123 139 -66 421 -118 998
-182 472 -53 763 -98 1001 -156 134 -33 415 -121 502 -158 l36 -16 40 -167
c80 -334 115 -551 133 -823 16 -234 4 -379 -66 -800 -31 -184 -54 -342 -52
-350 4 -19 60 133 102 280 152 525 112 1186 -105 1739 -22 57 -38 106 -35 109
10 10 309 -145 420 -219 157 -103 239 -172 421 -353 245 -245 472 -539 494
-638 35 -165 44 -267 44 -538 0 -297 -8 -402 -68 -860 -19 -140 -33 -256 -31
-258 8 -8 88 261 109 368 33 164 44 274 52 510 10 289 -14 518 -72 703 -14 43
-24 80 -22 82 8 8 203 -332 290 -505 191 -376 498 -1123 498 -1211 0 -21 3
-29 8 -21 6 8 28 -40 62 -135 29 -81 79 -214 111 -296 33 -81 59 -149 59 -152
0 -2 -37 -2 -82 1 -46 3 -109 2 -140 -4 -52 -8 -60 -7 -75 11 -33 36 -197 174
-305 254 -235 177 -480 328 -1018 628 -529 295 -683 389 -1075 658 -548 376
-921 678 -1322 1071 -456 446 -892 950 -975 1126 -19 41 -82 154 -140 250
-118 196 -166 286 -146 274 7 -4 74 -49 148 -99z m315 -770 c339 -449 910
-1025 1407 -1418 71 -56 125 -104 120 -108 -21 -22 -532 -102 -758 -119 -157
-13 -348 -1 -369 22 -22 23 -136 228 -186 333 -139 295 -240 622 -294 955 -14
90 -33 481 -23 470 3 -3 49 -63 103 -135z m8346 -768 c107 -28 215 -75 305
-132 73 -46 249 -217 314 -305 70 -96 274 -418 332 -526 27 -52 54 -91 59 -88
9 5 -73 171 -162 329 l-34 60 30 -20 c86 -56 144 -86 251 -130 288 -117 314
-140 552 -500 340 -514 390 -643 442 -1137 21 -199 8 -515 -30 -752 -8 -52
-15 -64 -54 -100 -104 -96 -191 -247 -222 -383 -22 -100 -15 -254 16 -338 13
-37 29 -124 41 -225 10 -91 23 -188 28 -216 25 -132 -92 -713 -221 -1099 -56
-170 -86 -245 -74 -185 32 155 37 412 22 1165 -14 725 25 1168 146 1625 71
272 88 353 88 428 0 115 -32 171 -98 172 -52 0 -90 -26 -132 -91 -103 -160
-169 -460 -170 -769 0 -230 33 -411 95 -518 24 -43 24 -43 14 -185 -13 -167
-6 -793 11 -1032 15 -208 8 -586 -15 -725 -23 -146 -79 -357 -116 -443 -36
-82 -99 -200 -105 -194 -2 2 14 57 36 123 156 461 188 932 110 1596 -24 203
-40 281 -124 608 -83 329 -99 430 -85 564 11 114 32 210 91 436 61 233 67 267
67 365 1 115 -21 168 -75 191 -118 50 -219 -72 -288 -346 -49 -193 -59 -280
-53 -433 8 -209 64 -378 181 -551 28 -42 52 -93 62 -130 8 -34 39 -142 69
-241 87 -295 116 -474 136 -830 37 -660 -67 -1142 -364 -1690 -39 -71 -76
-140 -82 -152 l-12 -23 -21 23 -21 22 45 75 c123 203 208 418 283 718 118 472
131 869 40 1227 -11 44 -54 183 -95 309 -52 160 -93 317 -139 525 -116 523
-171 683 -311 899 -64 98 -123 142 -190 142 -88 0 -119 -32 -134 -139 -17
-124 7 -248 96 -489 104 -282 227 -466 465 -697 l103 -100 69 -194 c114 -323
147 -485 147 -713 0 -395 -109 -891 -266 -1218 -66 -138 -144 -283 -150 -278
-2 2 9 58 25 124 125 522 160 779 147 1099 -25 670 -261 1062 -731 1216 -87
29 -113 33 -200 32 -113 0 -183 -20 -259 -72 -177 -122 -70 -317 219 -397 46
-12 130 -18 350 -24 376 -9 376 -10 428 -135 130 -309 164 -692 101 -1125 -14
-100 -106 -518 -124 -564 -9 -23 -7 -26 -35 61 l-16 52 55 168 c72 221 89 314
89 483 0 158 -18 258 -68 373 -73 170 -169 289 -314 385 -148 99 -243 131
-672 226 -112 25 -229 54 -260 65 -354 121 -661 369 -889 716 -77 118 -223
422 -269 560 -68 205 -86 320 -85 545 0 220 16 334 79 546 19 65 50 171 69
235 58 195 67 251 73 449 6 213 -12 353 -67 520 -119 360 -249 475 -648 575
-184 46 -288 91 -364 157 -29 26 -98 115 -98 128 0 4 27 -3 61 -17 157 -63
376 -74 704 -34 450 55 656 31 932 -108 143 -71 259 -158 416 -311 301 -292
486 -547 742 -1025 145 -270 157 -281 55 -55 -270 605 -653 1094 -1082 1381
-152 101 -244 145 -375 177 l-106 26 69 22 c102 31 184 68 299 134 217 125
357 162 595 156 125 -3 174 -9 251 -29z m3981 -59 c31 -18 60 -53 123 -149 47
-72 103 -143 130 -166 l47 -40 -104 -17 c-56 -9 -116 -18 -133 -20 -16 -1 42
-4 130 -5 254 -2 333 -28 495 -159 262 -214 337 -256 530 -302 69 -17 172 -41
230 -55 137 -32 255 -90 309 -151 62 -70 84 -139 79 -249 -3 -83 -7 -98 -50
-186 -59 -120 -142 -228 -348 -449 -202 -218 -261 -302 -315 -455 -16 -45 -69
-101 -506 -535 -268 -267 -525 -528 -571 -581 -109 -126 -181 -219 -171 -219
9 0 978 979 1065 1075 24 28 68 78 96 113 29 35 52 59 52 55 0 -17 -52 -221
-72 -283 -42 -132 -138 -297 -250 -432 -97 -116 -191 -209 -437 -432 -238
-215 -635 -585 -657 -611 -5 -8 -55 -21 -110 -30 -581 -98 -862 -274 -1246
-781 -55 -74 -102 -134 -103 -134 -7 0 95 224 180 395 106 212 144 268 229
337 125 101 262 152 581 218 344 71 423 97 475 156 42 48 40 87 -5 130 -99 93
-393 98 -626 10 -257 -96 -441 -276 -586 -571 -27 -55 -81 -161 -120 -235 -40
-74 -119 -245 -177 -380 -57 -135 -114 -266 -125 -291 -11 -26 -64 -107 -118
-180 -53 -74 -141 -199 -196 -279 -90 -132 -144 -203 -105 -140 197 323 447
797 569 1083 118 274 171 458 243 840 51 269 47 369 -16 422 -28 23 -39 27
-80 23 -63 -7 -111 -45 -155 -124 -45 -82 -71 -162 -88 -274 -29 -189 -16
-376 42 -600 19 -74 37 -144 40 -156 5 -23 -37 -127 -149 -369 -74 -161 -248
-498 -254 -492 -2 2 11 39 30 83 51 123 122 339 145 444 38 178 45 461 16 623
-6 35 35 508 61 701 l17 121 81 80 c45 44 155 136 245 204 252 192 352 300
354 386 1 40 -28 76 -75 96 -65 27 -208 -25 -422 -153 -43 -27 -80 -48 -80
-48 -1 0 6 60 16 133 19 151 22 375 7 592 -20 307 -70 546 -146 702 l-35 72
27 128 c91 433 311 873 574 1146 114 119 232 206 367 273 138 68 197 79 349
64 177 -17 171 -6 63 -121 -407 -437 -627 -746 -762 -1069 -65 -156 -64 -167
5 -50 322 548 446 726 772 1106 l95 111 83 6 c46 4 129 20 184 36 125 37 201
40 257 9z m-6157 -599 c304 -83 368 -111 460 -203 93 -93 156 -210 201 -373
16 -58 19 -83 11 -83 -8 0 -8 -3 1 -9 18 -11 41 -150 48 -285 l5 -111 -106
-125 c-354 -417 -549 -745 -630 -1056 -13 -52 -27 -124 -31 -160 -6 -60 -9
-65 -28 -60 -12 3 -28 6 -37 6 -35 0 -120 367 -159 683 -73 606 -46 1109 92
1690 25 109 33 127 46 122 10 -4 67 -20 127 -36z m-4517 -181 c53 -40 101 -77
107 -81 83 -68 673 -463 869 -582 119 -73 127 -79 110 -93 -11 -8 -91 -50
-179 -92 -233 -114 -459 -192 -741 -255 -100 -23 -104 -24 -44 -19 95 8 291
42 402 70 232 58 389 136 564 279 l31 25 364 -206 c578 -327 802 -466 1036
-643 134 -101 273 -218 273 -229 0 -5 -20 -18 -45 -30 -24 -12 -62 -38 -84
-57 l-40 -36 -78 45 c-276 159 -686 278 -1298 376 -171 27 -455 98 -652 161
-249 81 -568 212 -557 230 3 5 -4 9 -16 9 -27 0 -116 45 -274 139 l-129 76 99
7 c333 25 459 46 646 108 130 43 268 109 359 171 32 22 59 42 59 44 0 3 -24
-5 -52 -16 -458 -183 -737 -261 -1032 -288 l-100 -10 -80 56 c-258 180 -512
438 -695 707 -33 49 -59 91 -58 93 2 1 50 -7 108 -19 140 -28 466 -31 606 -5
124 23 252 61 343 102 41 18 76 34 78 34 1 1 46 -32 100 -71z m5207 -1109 c-9
-41 -41 -159 -71 -264 -102 -347 -128 -505 -128 -760 1 -171 6 -217 40 -349
l7 -30 -29 21 c-84 60 -296 144 -435 174 -45 10 -49 13 -49 40 0 17 7 65 16
107 53 260 189 539 404 827 90 122 251 317 256 312 2 -2 -3 -37 -11 -78z
m3243 -514 c18 -53 6 -135 -57 -392 -61 -250 -95 -436 -124 -686 -13 -108 -26
-199 -29 -202 -8 -9 -47 169 -59 271 -40 336 56 865 183 1008 23 27 47 46 57
44 9 -2 22 -21 29 -43z m-444 -50 c40 -41 33 -155 -24 -390 -87 -356 -106
-498 -96 -695 3 -69 9 -136 12 -150 12 -57 -27 32 -66 148 -93 280 -103 483
-38 752 33 137 87 268 128 312 40 41 60 47 84 23z m-4825 -211 c108 -27 243
-88 456 -203 305 -166 381 -194 685 -251 360 -68 534 -130 705 -253 69 -49 70
-51 104 -141 234 -635 627 -1056 1156 -1239 55 -19 181 -53 280 -77 455 -107
512 -126 659 -224 195 -130 301 -311 351 -600 31 -180 16 -317 -60 -561 l-12
-40 -12 75 c-29 170 -98 330 -231 529 -138 206 -254 343 -365 431 -75 59 -139
99 -80 50 152 -127 358 -406 484 -659 61 -120 119 -264 155 -382 35 -116 33
-132 -10 -68 -19 30 -59 77 -87 104 -32 31 -76 93 -115 160 -294 515 -835 998
-1407 1257 -104 47 -359 138 -387 138 -7 0 59 -33 147 -73 451 -207 638 -317
920 -541 133 -106 409 -384 519 -521 94 -118 262 -362 255 -369 -2 -3 -40 21
-84 52 -66 47 -98 81 -188 200 -115 150 -200 232 -376 360 -102 74 -279 164
-371 187 -89 23 -305 31 -424 16 -258 -33 -494 -139 -645 -290 -31 -31 -88
-103 -127 -161 -113 -165 -132 -181 -242 -205 -40 -8 -85 -21 -100 -29 -45
-23 -111 -103 -142 -169 -29 -63 -60 -190 -60 -249 0 -60 -1 -60 -161 -43
-226 25 -328 54 -500 142 -381 194 -726 604 -869 1032 -23 67 -66 224 -95 349
-62 262 -97 368 -168 506 -124 242 -281 389 -485 453 -65 20 -96 25 -143 20
-124 -11 -217 -101 -263 -256 -39 -132 -7 -277 97 -431 l30 -45 -42 40 c-56
53 -115 176 -137 285 -30 153 -4 317 73 460 64 117 149 211 392 430 108 98
202 210 239 287 15 30 33 53 42 53 12 0 12 2 1 9 -11 7 -9 23 14 92 73 224
157 315 335 365 66 18 212 17 289 -2z m4118 -247 c76 -42 210 -283 287 -517
77 -231 217 -806 191 -779 -25 25 -300 413 -338 476 -90 148 -200 434 -227
589 -17 94 -10 196 14 223 22 24 41 26 73 8z m-4927 -94 c93 -18 95 -19 93
-45 -4 -68 -63 -159 -182 -280 -64 -66 -132 -133 -152 -148 l-35 -29 -140 29
c-451 91 -912 89 -1344 -6 -153 -34 -406 -119 -558 -188 -105 -47 -186 -90
-487 -256 l-40 -22 35 29 c504 410 651 513 905 634 346 164 713 257 1180 298
169 16 614 5 725 -16z m6951 -19 c8 -10 4 -26 -18 -65 -29 -55 -121 -140 -392
-363 -229 -189 -324 -315 -373 -496 l-12 -45 -8 65 c-26 210 58 450 215 616
91 96 165 148 325 228 158 79 233 96 263 60z m-7661 -480 c122 -14 324 -47
359 -60 9 -3 -7 -26 -51 -72 -89 -93 -141 -164 -182 -252 -59 -124 -71 -186
-70 -350 0 -129 3 -154 27 -225 55 -166 145 -277 318 -395 125 -84 253 -184
278 -215 l20 -26 12 22 c20 38 22 185 4 299 -33 208 -35 243 -24 304 14 78 40
128 102 193 l50 53 25 -22 c37 -36 128 -177 167 -262 l36 -76 -42 -61 c-53
-79 -102 -185 -129 -280 -26 -92 -50 -247 -49 -314 0 -47 2 -45 19 40 11 50
33 130 50 179 48 142 153 405 161 401 13 -9 88 -290 146 -551 4 -17 -7 -26
-68 -53 -157 -70 -380 -131 -559 -151 -167 -19 -382 7 -672 81 -342 87 -454
157 -1098 680 -456 369 -719 518 -1007 569 -77 14 -82 23 -24 47 20 8 171 75
336 148 356 158 523 221 705 269 208 54 393 83 640 100 98 7 382 -4 520 -20z
m7392 -216 c19 -15 38 -78 38 -126 0 -17 -13 -101 -29 -185 -16 -83 -39 -206
-51 -272 -36 -195 -137 -516 -150 -479 -4 11 -16 71 -26 134 -23 142 -26 481
-6 575 32 146 87 276 140 333 32 34 58 40 84 20z m-433 -263 c-10 -82 -19
-168 -20 -190 l-1 -40 -10 35 c-15 51 -3 204 22 283 12 38 23 67 25 65 2 -1
-5 -70 -16 -153z m1610 -2 c62 -21 82 -43 62 -67 -17 -21 -130 -56 -376 -117
-330 -83 -497 -145 -622 -230 -23 -16 -44 -29 -48 -29 -16 0 67 99 150 178
160 154 319 240 518 278 94 18 245 12 316 -13z m-7933 -87 c42 -20 94 -50 116
-67 38 -31 39 -32 18 -46 -38 -27 -120 -155 -140 -221 -33 -107 -28 -193 25
-378 37 -128 45 -172 43 -223 l-3 -63 -32 43 c-17 24 -81 100 -143 169 -271
305 -340 492 -250 683 25 54 81 114 124 133 54 25 153 13 242 -30z m4689 -210
c239 -81 387 -185 498 -351 36 -53 34 -59 -13 -35 -66 34 -156 49 -356 60
-234 12 -327 29 -420 75 -76 37 -144 101 -144 136 0 56 60 111 150 136 68 19
190 10 285 -21z m4215 -33 c104 -21 169 -49 349 -152 241 -137 295 -162 460
-208 8 -2 12 -5 9 -8 -8 -8 -353 -94 -443 -110 -49 -9 -148 -19 -220 -23
l-130 -6 85 -8 c156 -14 345 9 711 87 531 114 741 118 1039 19 364 -121 658
-393 789 -728 62 -159 75 -241 65 -415 -17 -287 -11 -314 132 -527 114 -170
173 -282 198 -379 19 -73 38 -279 34 -355 l-3 -55 -23 47 c-45 92 -190 190
-320 217 -128 26 -351 0 -551 -64 -132 -43 -215 -61 -311 -70 -164 -16 -272
-72 -385 -201 -148 -169 -218 -230 -317 -278 -172 -82 -310 -99 -536 -66 -187
27 -305 25 -369 -8 -45 -24 -63 -43 -181 -202 -123 -166 -233 -238 -398 -261
-153 -21 -335 37 -469 151 -118 100 -202 211 -355 475 -228 391 -403 606 -601
738 -161 107 -267 141 -439 141 -102 -1 -126 -4 -210 -32 -52 -18 -117 -45
-145 -60 l-49 -29 -55 35 c-64 41 -155 72 -211 72 -58 0 -153 -33 -226 -79
-37 -23 -68 -40 -70 -38 -4 4 196 185 291 262 386 316 897 561 1541 741 l167
46 106 -36 c125 -43 194 -53 245 -36 52 17 70 49 63 109 l-6 49 137 21 c192
30 278 40 347 41 33 1 69 5 80 10 49 21 -364 6 -539 -20 l-68 -10 -67 63
c-111 104 -222 157 -375 177 -151 21 -298 -10 -475 -99 -46 -24 -125 -61 -175
-83 -204 -89 -365 -214 -810 -632 -72 -66 -127 -116 -124 -111 3 6 32 53 63
105 60 99 199 371 255 500 56 128 404 591 577 766 254 259 474 376 838 448
442 87 855 114 1075 69z m-2610 -666 c-14 -119 -57 -297 -105 -436 -44 -125
-143 -359 -191 -450 -42 -79 -41 -75 31 103 104 262 211 631 252 872 16 99 18
104 21 59 2 -27 -2 -94 -8 -148z m1430 -363 c108 -25 205 -79 285 -159 121
-123 129 -161 33 -159 -73 2 -180 34 -365 108 -238 96 -311 117 -432 123 -59
4 -97 9 -89 14 29 16 175 62 238 74 90 18 252 18 330 -1z m-3770 -54 c47 -11
126 -40 175 -64 167 -81 411 -287 516 -434 105 -146 144 -187 255 -263 150
-102 200 -156 229 -248 7 -22 2 -20 -56 21 -252 178 -595 305 -986 365 -139
21 -514 24 -623 5 -209 -37 -387 -105 -516 -197 -35 -25 -64 -48 -64 -51 0 -2
32 12 71 32 269 135 661 198 1010 164 368 -37 837 -177 1085 -324 l89 -53 24
-72 c12 -40 21 -74 19 -77 -2 -2 -45 14 -94 36 -116 50 -296 104 -442 132 -99
19 -151 22 -342 22 -206 0 -236 -2 -351 -27 -274 -58 -525 -174 -739 -340 -98
-77 -204 -173 -262 -240 -52 -60 -52 -60 65 36 523 430 1034 574 1659 468 111
-19 508 -108 516 -116 2 -2 16 -30 31 -62 l28 -58 -186 -1 c-195 0 -275 -10
-480 -60 -210 -52 -390 -121 -651 -250 -492 -245 -902 -577 -1201 -975 -297
-393 -521 -842 -669 -1339 -66 -220 -97 -409 -114 -685 -5 -90 -5 -89 24 65
55 300 104 492 195 759 327 959 939 1685 1772 2101 374 186 652 269 1130 336
l202 28 19 -24 c11 -14 19 -26 17 -28 -1 -2 -46 -12 -98 -23 -261 -53 -581
-215 -862 -437 -148 -116 -178 -148 -70 -73 134 92 338 209 515 294 158 75
507 227 523 227 6 0 25 -11 44 -26 112 -85 217 -71 388 55 38 28 72 51 76 51
10 0 103 -102 136 -150 49 -72 113 -205 160 -335 43 -118 43 -119 37 -60 -18
172 -115 360 -254 488 l-71 65 30 21 c127 91 274 80 418 -30 185 -143 286
-347 313 -634 13 -144 13 -453 -1 -552 -42 -305 -252 -541 -630 -705 -101 -44
-416 -151 -429 -146 -5 2 18 42 50 89 104 156 150 313 156 539 l3 135 -13 -85
c-7 -47 -19 -112 -26 -144 -16 -77 -119 -381 -160 -472 l-32 -72 -161 -47
c-384 -113 -467 -154 -664 -332 -91 -82 -123 -104 -222 -151 -164 -78 -227
-125 -274 -203 -53 -89 -74 -165 -107 -385 -32 -210 -68 -337 -123 -437 -82
-145 -168 -207 -381 -271 -181 -55 -231 -80 -316 -161 -41 -40 -86 -79 -100
-88 -31 -21 -99 -22 -187 -1 -80 19 -130 14 -207 -20 -86 -38 -117 -41 -165
-17 -41 21 -41 21 -28 54 116 274 200 460 288 635 58 116 105 212 103 212 -2
0 -46 -64 -98 -142 -158 -239 -260 -456 -301 -641 -9 -42 -19 -77 -21 -77 -2
0 -36 27 -76 60 -162 136 -325 170 -558 115 -58 -14 -116 -25 -128 -25 -34 0
-78 52 -91 107 -6 27 -16 217 -21 424 -11 445 -22 538 -95 828 -69 277 -84
361 -92 496 -7 137 10 239 73 442 102 330 96 290 104 653 9 371 18 428 92 580
35 70 60 102 138 181 119 120 177 157 362 236 178 75 306 144 362 196 l41 38
-50 -37 c-27 -20 -73 -47 -102 -60 -80 -36 -233 -87 -239 -81 -10 10 16 286
35 382 27 135 83 234 151 270 14 7 55 19 90 25 133 24 172 54 276 213 90 137
135 190 208 242 129 91 348 179 511 205 97 15 318 4 415 -20z m3356 -81 c32
-5 82 -17 109 -26 72 -22 245 -94 245 -102 0 -3 -48 -19 -108 -35 -136 -37
-442 -140 -596 -201 -343 -136 -626 -292 -841 -466 -123 -99 -121 -93 15 45
258 262 542 516 718 643 188 135 301 170 458 142z m-1151 -480 c-39 -75 -188
-328 -268 -454 -81 -127 -193 -275 -270 -357 -51 -56 -55 -58 -105 -58 -28 0
-53 3 -55 8 -3 4 47 63 110 132 186 202 383 452 557 708 27 39 51 72 53 72 2
0 -8 -23 -22 -51z m-5012 -142 c140 -126 267 -217 397 -282 l74 -37 -80 -44
c-44 -24 -88 -41 -99 -39 -11 2 -49 7 -85 10 -154 14 -408 60 -609 110 -254
63 -511 132 -518 139 -18 18 713 221 810 225 10 1 60 -37 110 -82z m-852 -196
c272 -128 606 -202 986 -218 l152 -6 -202 -117 c-235 -136 -364 -215 -573
-352 l-151 -98 -120 0 c-312 0 -641 64 -1047 204 -104 35 -185 61 -180 56 23
-21 146 -95 209 -124 151 -72 401 -136 649 -167 94 -11 305 -8 416 6 54 7 66
19 -140 -130 -164 -118 -425 -324 -555 -438 -109 -95 -445 -407 -464 -432 -9
-10 -57 -62 -106 -115 -268 -283 -627 -726 -800 -987 -56 -86 -22 -72 -387
-150 -146 -32 -264 -62 -261 -67 10 -15 194 2 294 28 52 13 137 40 189 60 51
19 95 34 96 33 1 -1 -40 -71 -91 -156 -51 -85 -124 -213 -161 -285 l-68 -132
-115 -42 c-84 -31 -104 -41 -73 -37 24 3 73 19 109 35 36 17 67 30 69 30 2 0
-8 -26 -22 -57 -64 -140 -132 -312 -195 -488 -38 -104 -68 -183 -69 -173 0 9
8 76 17 150 24 193 22 538 -5 853 -37 423 -28 693 29 917 98 388 270 753 497
1058 100 135 426 466 602 612 294 244 625 458 905 588 49 23 447 186 461 190
1 0 48 -22 105 -49z m1535 -195 c102 -26 316 -52 360 -43 13 2 27 0 30 -4 3
-5 2 -52 -2 -104 l-7 -94 -75 -36 c-207 -98 -362 -246 -460 -441 -70 -139 -84
-230 -87 -554 l-1 -275 -42 -150 c-134 -480 -126 -440 -127 -640 0 -199 5
-232 91 -555 42 -163 74 -339 74 -418 0 -34 -6 -45 -44 -80 -115 -106 -247
-186 -391 -238 -165 -59 -289 -62 -412 -10 -34 14 -69 26 -76 26 -11 0 -19 33
-31 127 -83 619 -69 1110 45 1564 127 505 351 1011 639 1441 130 194 393 523
410 513 4 -2 52 -16 106 -29z m-244 -72 c-535 -502 -948 -1407 -1058 -2324
-22 -178 -25 -586 -6 -735 18 -138 57 -326 85 -411 l23 -71 -23 -23 c-12 -12
-46 -67 -75 -123 -42 -80 -70 -119 -133 -183 -68 -68 -96 -89 -185 -133 -58
-28 -150 -63 -205 -78 -93 -25 -114 -27 -310 -27 -173 1 -258 6 -485 33 -447
53 -763 53 -917 0 -30 -10 -83 -34 -119 -53 -35 -18 -64 -29 -64 -23 0 30 66
363 90 455 15 59 27 108 25 110 -6 6 -77 -201 -101 -293 -14 -55 -28 -145 -31
-201 -6 -100 -6 -101 -39 -123 -96 -66 -245 -238 -392 -454 -54 -79 -82 -112
-86 -102 -3 8 1 52 9 98 8 45 24 138 35 207 33 200 189 643 354 997 367 792
1055 1658 1851 2330 191 160 191 160 97 58 -358 -395 -633 -873 -811 -1415
-70 -213 -168 -627 -205 -865 -34 -220 -45 -462 -27 -590 l7 -50 7 60 c129
1010 314 1654 647 2250 123 219 346 534 503 710 151 168 856 636 1470 976 89
49 164 89 167 89 2 0 -42 -43 -98 -96z m5266 -90 c190 -39 366 -159 539 -367
92 -111 158 -210 312 -467 138 -233 211 -335 308 -434 154 -156 311 -225 513
-226 146 0 268 45 390 143 60 49 90 85 204 242 59 82 53 82 241 -9 187 -90
333 -189 523 -355 184 -160 295 -369 332 -626 20 -139 23 -412 6 -523 -29
-191 -116 -404 -243 -597 -57 -86 -179 -245 -187 -245 -3 0 8 36 24 79 66 180
91 322 91 510 0 193 -37 359 -109 496 -26 50 -27 41 -2 -70 26 -120 50 -359
50 -494 0 -116 -31 -325 -72 -483 -22 -82 -27 -92 -94 -165 -39 -43 -116 -139
-171 -213 -169 -227 -290 -322 -426 -334 -34 -3 -95 -8 -135 -11 l-72 -5 44
60 c62 84 148 257 189 380 56 168 105 412 122 610 l5 65 -19 -87 c-101 -449
-211 -738 -350 -925 -82 -110 -148 -160 -326 -248 -146 -73 -241 -105 -354
-119 l-54 -7 18 28 c125 189 205 416 236 666 16 132 6 496 -16 595 -57 256
-211 581 -391 822 -102 138 -204 235 -346 331 -139 92 -139 91 -12 -14 279
-230 592 -769 679 -1167 22 -103 31 -388 16 -531 -23 -220 -82 -441 -169 -634
l-41 -90 -128 -6 c-121 -5 -132 -7 -203 -41 -101 -49 -125 -54 -155 -34 -57
38 -36 143 84 413 94 211 128 319 143 459 33 290 -97 563 -347 729 -146 98
-285 145 -486 165 -497 49 -803 253 -888 591 -36 143 -40 128 50 178 234 130
415 345 469 558 39 151 48 505 19 728 -29 226 -108 414 -233 552 l-46 51 52
25 c130 61 278 80 416 51z m4837 -364 c121 -42 220 -132 272 -248 23 -52 23
-58 14 -175 -18 -215 -57 -291 -118 -224 -30 32 -95 166 -151 313 -75 194
-119 285 -160 328 l-37 39 60 -6 c33 -4 87 -16 120 -27z m-6235 -2139 c186
-42 366 -124 459 -208 58 -52 80 -88 115 -185 21 -57 49 -72 165 -88 189 -26
363 -121 536 -295 102 -101 262 -292 253 -300 -3 -3 -70 36 -149 86 -189 120
-267 162 -489 259 -102 45 -336 155 -520 245 -184 89 -380 181 -435 203 -213
86 -413 135 -604 148 l-104 7 59 53 c63 56 106 72 264 94 101 14 351 4 450
-19z m-455 -201 c211 -47 417 -129 870 -348 160 -77 385 -181 500 -232 116
-51 278 -129 360 -175 83 -45 183 -99 223 -119 39 -20 72 -41 72 -47 0 -6 -6
-9 -14 -6 -8 3 -78 11 -156 17 -109 9 -173 9 -278 0 -202 -18 -287 -3 -443 75
-111 56 -209 123 -423 289 -336 261 -528 377 -856 516 -69 29 -127 55 -130 58
-11 11 192 -9 275 -28z m200 -1162 c-22 -173 -92 -385 -189 -574 -83 -159
-154 -270 -356 -559 -295 -422 -330 -490 -467 -889 -35 -104 -77 -217 -93
-250 l-29 -61 6 85 c3 47 -3 189 -12 315 -26 345 -14 469 62 618 46 93 115
160 207 202 107 50 107 50 72 175 -13 44 -14 65 -6 106 23 111 98 191 357 385
94 70 204 158 244 196 84 79 160 183 185 253 10 28 20 50 22 50 2 0 1 -24 -3
-52z m66 -187 c26 -253 -21 -532 -125 -739 -48 -94 -107 -180 -256 -367 -163
-205 -225 -291 -398 -558 -161 -248 -255 -377 -356 -484 -73 -79 -95 -83 -53
-10 53 90 119 230 202 432 120 290 174 391 326 610 314 452 412 611 501 815
61 138 96 252 116 379 19 120 23 113 43 -78z m890 -683 c28 -57 128 -238 222
-403 258 -454 336 -613 458 -938 81 -213 177 -561 263 -952 39 -180 80 -414
73 -422 -3 -2 -15 26 -27 64 -57 175 -196 412 -344 588 -275 325 -327 396
-402 544 -95 189 -118 302 -199 976 -31 257 -68 497 -94 608 -5 20 -7 37 -5
37 2 0 27 -46 55 -102z m97 -5 c105 -128 179 -203 337 -344 170 -151 355 -345
427 -445 109 -153 178 -327 178 -450 0 -101 -32 -205 -90 -291 -17 -24 -30
-55 -30 -69 0 -14 18 -80 40 -147 56 -174 71 -272 77 -499 5 -168 -2 -396 -12
-386 -2 2 -10 64 -19 138 -22 176 -64 385 -132 650 -134 524 -291 902 -604
1456 -120 212 -265 484 -257 484 2 0 40 -44 85 -97z"/>
<path d="M9951 18240 c0 -3 13 -41 30 -85 16 -44 27 -65 24 -46 -4 29 -52 145
-54 131z"/>
<path d="M9319 17700 c16 -36 52 -139 81 -228 28 -90 53 -162 55 -160 6 7 -16
137 -36 203 -21 72 -74 181 -109 225 -15 19 -13 9 9 -40z"/>
<path d="M9064 17680 c49 -92 100 -219 167 -415 l57 -170 1 60 c2 157 -103
409 -234 560 -23 26 -22 22 9 -35z"/>
<path d="M8286 17019 c43 -52 108 -133 143 -182 35 -48 66 -85 69 -83 8 9 -69
143 -117 201 -26 33 -76 82 -111 109 l-63 50 79 -95z"/>
<path d="M7945 16780 c170 -139 456 -496 605 -755 52 -91 55 -85 18 30 -81
249 -286 505 -548 684 -105 71 -127 84 -75 41z"/>
<path d="M8560 16629 c0 -14 162 -331 166 -326 8 8 -24 102 -57 167 -23 47
-109 172 -109 159z"/>
<path d="M7560 16053 c150 -88 344 -273 554 -527 72 -88 143 -174 158 -190
l28 -31 -21 49 c-120 277 -380 540 -688 696 -74 37 -92 39 -31 3z"/>
<path d="M7485 15638 c79 -43 110 -65 230 -163 121 -99 135 -108 107 -67 -62
87 -158 163 -275 217 -98 46 -135 53 -62 13z"/>
<path d="M7455 14501 c149 -73 243 -144 514 -388 l64 -58 -39 62 c-122 196
-296 330 -528 408 -116 39 -120 30 -11 -24z"/>
<path d="M7580 13939 c118 -57 170 -80 170 -75 0 11 -110 72 -173 97 -113 45
-112 34 3 -22z"/>
<path d="M7906 13743 c86 -77 136 -116 126 -96 -14 26 -79 82 -124 106 l-33
18 31 -28z"/>
<path d="M10245 17098 c22 -5 74 -18 115 -28 41 -10 84 -21 95 -24 11 -4 1 3
-23 15 -46 22 -161 49 -202 48 -18 -1 -14 -4 15 -11z"/>
<path d="M9575 16364 c-16 -2 -73 -9 -125 -15 -110 -13 -291 -56 -394 -95 -79
-30 -209 -94 -202 -101 2 -2 42 7 87 21 398 119 873 179 1239 156 90 -6 165
-9 167 -6 4 4 -134 22 -282 36 -94 9 -423 11 -490 4z"/>
<path d="M9565 16124 c-318 -18 -600 -83 -798 -186 -43 -22 -76 -42 -74 -44 2
-2 44 10 93 26 113 39 319 93 454 119 190 37 332 52 565 59 159 4 212 8 172
13 -78 9 -337 17 -412 13z"/>
<path d="M10073 16093 c9 -2 23 -2 30 0 6 3 -1 5 -18 5 -16 0 -22 -2 -12 -5z"/>
<path d="M8905 15430 c-117 -10 -234 -34 -337 -70 -103 -36 -93 -37 61 -5 162
33 382 65 456 66 45 1 54 3 35 9 -30 10 -95 10 -215 0z"/>
<path d="M2868 16560 c3 -104 -3 -235 -17 -399 -25 -284 -25 -300 -6 -248 23
63 46 184 56 306 11 120 0 303 -25 431 -11 61 -12 56 -8 -90z"/>
<path d="M3926 16565 c2 -27 9 -95 14 -150 23 -245 11 -585 -41 -1128 -17
-175 -29 -326 -27 -335 5 -24 55 136 78 248 45 225 68 772 41 1020 -13 123
-36 263 -56 340 l-14 55 5 -50z"/>
<path d="M3042 16158 c-13 -117 -25 -233 -28 -258 l-4 -45 20 58 c28 82 41
204 38 340 l-3 118 -23 -213z"/>
<path d="M4223 16265 c0 -33 2 -45 4 -27 2 18 2 45 0 60 -2 15 -4 0 -4 -33z"/>
<path d="M5277 15975 c3 -33 7 -62 9 -64 7 -8 2 74 -6 99 -5 16 -6 2 -3 -35z"/>
<path d="M4217 15744 c-3 -66 -22 -233 -42 -373 -20 -139 -34 -261 -33 -270 5
-21 53 131 74 229 19 90 32 488 17 515 -7 12 -12 -17 -16 -101z"/>
<path d="M5285 15590 c3 -30 5 -113 6 -185 1 -114 3 -123 10 -75 10 58 3 208
-11 275 -9 36 -9 35 -5 -15z"/>
<path d="M5276 14859 c-9 -95 -47 -291 -107 -544 -28 -115 -52 -219 -55 -230
-13 -54 70 124 100 215 47 146 67 267 73 463 6 173 1 219 -11 96z"/>
<path d="M6482 14292 c-5 -119 -63 -410 -131 -657 -22 -77 -38 -141 -36 -143
1 -1 16 26 33 61 39 83 77 202 101 324 22 107 45 367 39 423 -5 34 -5 33 -6
-8z"/>
<path d="M6807 13284 c-21 -102 -36 -188 -34 -191 6 -6 33 75 51 157 15 65 32
220 25 220 -2 0 -21 -84 -42 -186z"/>
<path d="M2300 15719 c68 -29 179 -49 275 -48 55 1 114 4 130 8 27 6 24 8 -25
14 -30 4 -84 7 -120 7 -57 1 -136 8 -250 25 -32 5 -33 4 -10 -6z"/>
<path d="M2670 15546 l-175 -11 85 -8 c47 -4 112 -7 145 -7 58 0 169 21 182
34 7 7 -1 7 -237 -8z"/>
<path d="M11878 14075 c48 -118 99 -279 166 -530 62 -230 94 -333 95 -309 3
36 -23 233 -40 313 -30 136 -92 309 -159 441 -72 141 -99 179 -62 85z"/>
<path d="M10414 13971 c156 -214 258 -415 526 -1034 40 -92 74 -166 76 -164 6
6 -43 177 -74 262 -49 133 -117 276 -224 473 -148 274 -254 438 -324 502 -17
16 -11 3 20 -39z"/>
<path d="M9561 12778 c-2 -16 33 -149 61 -238 115 -359 362 -825 551 -1037
147 -166 145 -147 -6 83 -178 270 -248 386 -348 579 -97 186 -137 279 -205
470 -29 83 -53 147 -53 143z"/>
<path d="M9650 12167 c0 -16 69 -186 105 -257 49 -97 133 -227 203 -312 31
-37 57 -68 59 -68 2 0 -18 33 -45 73 -101 148 -187 296 -254 432 -37 77 -68
136 -68 132z"/>
<path d="M15134 14856 c-473 -407 -918 -986 -1203 -1566 -67 -136 -38 -101
114 137 421 659 674 988 1065 1382 76 78 138 141 136 141 -2 0 -52 -42 -112
-94z"/>
<path d="M14513 14743 c-544 -613 -908 -1187 -1139 -1792 -24 -63 -42 -116
-40 -118 5 -6 63 102 255 474 260 506 377 700 595 991 87 116 393 503 454 575
8 9 13 17 10 17 -2 0 -63 -66 -135 -147z"/>
<path d="M13660 12710 c-102 -138 -301 -482 -287 -496 6 -6 61 82 187 301 51
88 110 186 132 218 57 84 37 70 -32 -23z"/>
<path d="M8599 14225 c-54 -7 -132 -23 -175 -35 -78 -22 -238 -89 -230 -97 2
-2 57 10 122 26 235 59 497 98 689 102 l70 2 -65 7 c-103 12 -306 9 -411 -5z"/>
<path d="M8740 13953 c-184 -18 -345 -60 -460 -118 -110 -56 -110 -66 0 -29
202 68 444 123 638 143 l77 8 -110 0 c-60 0 -126 -2 -145 -4z"/>
<path d="M8461 13099 c-54 -10 -174 -50 -168 -55 2 -2 48 8 103 21 54 14 122
30 149 34 l50 9 -45 0 c-25 0 -65 -4 -89 -9z"/>
<path d="M3999 14606 c-10 -10 -349 -109 -453 -132 -60 -14 -159 -31 -220 -39
l-111 -15 140 5 c178 6 302 27 435 71 92 31 230 96 230 109 0 6 -15 6 -21 1z"/>
<path d="M5849 13411 c-71 -45 -303 -164 -412 -212 -54 -24 -94 -45 -90 -46 5
-2 65 15 134 38 165 54 287 119 363 191 34 31 59 57 56 57 -3 1 -26 -12 -51
-28z"/>
<path d="M5345 13334 c-44 -19 -66 -32 -50 -29 31 6 158 63 140 63 -5 0 -46
-15 -90 -34z"/>
<path d="M6555 12370 c-63 -8 -42 -17 60 -25 451 -35 981 -278 1655 -760 63
-45 122 -85 130 -89 27 -14 -183 188 -255 245 -314 249 -805 505 -1128 588
-171 45 -329 59 -462 41z"/>
<path d="M6656 11454 c118 -135 212 -261 409 -549 216 -315 282 -405 416 -566
252 -302 520 -527 735 -619 57 -25 56 -23 -56 61 -412 309 -715 634 -1103
1184 -194 275 -287 393 -398 500 l-82 80 79 -91z"/>
<path d="M7481 10056 c122 -175 437 -474 634 -602 84 -54 184 -108 191 -102 2
2 -97 82 -219 178 -270 212 -422 345 -546 476 -69 72 -85 86 -60 50z"/>
<path d="M5366 12406 c-12 -52 -1 -181 18 -231 l15 -40 -5 60 c-3 33 -9 103
-13 155 -6 84 -8 90 -15 56z"/>
<path d="M5637 12367 c-14 -36 -7 -154 14 -222 11 -37 22 -65 24 -63 1 1 -1
28 -6 58 -5 30 -12 98 -16 150 -5 58 -11 88 -16 77z"/>
<path d="M4653 12200 c2 -53 9 -88 25 -120 12 -25 19 -36 16 -25 -3 11 -15 65
-25 120 l-18 100 2 -75z"/>
<path d="M4675 11901 c-140 -69 -254 -156 -345 -262 -68 -78 -152 -202 -193
-284 -25 -51 -77 -174 -77 -184 0 -3 21 32 48 77 78 136 129 200 282 352 123
123 204 192 396 337 49 37 13 25 -111 -36z"/>
<path d="M5625 11847 c-331 -263 -608 -683 -730 -1108 -42 -145 -44 -171 -6
-69 81 218 270 550 459 810 67 92 222 278 304 365 33 36 59 65 56 65 -2 0 -39
-28 -83 -63z"/>
<path d="M4358 11848 c-32 -17 -84 -55 -115 -85 l-58 -54 100 68 c120 80 151
103 139 103 -5 0 -35 -15 -66 -32z"/>
<path d="M5218 11729 c-163 -163 -245 -277 -343 -474 -86 -175 -110 -246 -33
-100 90 171 182 297 416 573 57 68 102 126 99 129 -4 3 -66 -55 -139 -128z"/>
<path d="M4008 11521 c-38 -42 -108 -156 -108 -176 0 -3 24 29 53 72 28 43 65
95 81 116 40 52 26 46 -26 -12z"/>
<path d="M5670 10758 c-112 -110 -196 -279 -256 -513 -3 -11 23 39 59 110 35
72 108 201 161 289 53 87 95 160 93 162 -2 3 -28 -19 -57 -48z"/>
<path d="M5819 10616 c-68 -86 -115 -169 -147 -259 -53 -148 -47 -157 20 -27
35 69 90 171 122 228 32 56 56 105 53 108 -2 3 -24 -20 -48 -50z"/>
<path d="M15113 10663 c9 -2 23 -2 30 0 6 3 -1 5 -18 5 -16 0 -22 -2 -12 -5z"/>
<path d="M16300 10261 c-18 -5 -3 -10 60 -19 278 -42 559 -102 710 -152 177
-59 497 -227 698 -366 95 -66 65 -34 -50 53 -148 112 -284 195 -453 278 -172
85 -304 133 -466 169 -178 39 -424 58 -499 37z"/>
<path d="M15525 10114 c-132 -8 -306 -27 -310 -34 -2 -4 116 -10 263 -13 367
-8 592 -37 912 -118 442 -112 850 -301 1290 -596 134 -90 108 -59 -50 60 -494
371 -1143 630 -1720 686 -123 12 -314 19 -385 15z"/>
<path d="M13575 9370 c-432 -32 -792 -142 -1070 -328 -164 -110 -161 -117 15
-33 352 169 683 265 1080 313 112 14 588 18 775 7 76 -5 93 -4 55 2 -228 35
-642 54 -855 39z"/>
<path d="M13145 9083 c-96 -12 -259 -48 -337 -74 -100 -34 -244 -97 -236 -104
2 -3 69 17 149 44 172 57 360 106 484 125 87 14 88 14 30 14 -33 -1 -73 -3
-90 -5z"/>
<path d="M15350 8680 c52 -15 212 -61 355 -100 395 -109 568 -168 790 -269
115 -52 82 -26 -55 43 -296 151 -739 298 -1025 341 -153 23 -174 18 -65 -15z"/>
<path d="M11624 8493 c-100 -82 -250 -236 -324 -333 -35 -47 -68 -91 -73 -97
-5 -7 -7 -13 -4 -13 3 0 89 92 192 204 102 113 209 225 238 250 73 64 54 57
-29 -11z"/>
<path d="M11752 8422 c-88 -256 -271 -620 -600 -1192 -38 -66 -5 -34 81 78
243 319 414 650 505 977 33 117 56 224 50 230 -2 2 -18 -40 -36 -93z"/>
<path d="M11235 8350 c-456 -235 -821 -572 -1030 -952 -20 -38 -35 -68 -32
-68 3 0 60 64 128 143 328 379 672 692 944 861 123 76 121 75 114 75 -4 1 -59
-26 -124 -59z"/>
<path d="M12136 8294 c14 -36 35 -117 47 -180 13 -62 26 -117 30 -120 12 -12
7 78 -8 151 -13 60 -76 215 -88 215 -3 0 6 -30 19 -66z"/>
<path d="M5770 8269 c112 -49 339 -78 495 -63 l90 8 -140 7 c-77 4 -201 16
-275 28 -217 35 -199 33 -170 20z"/>
<path d="M4320 7529 c48 -20 226 -58 330 -70 193 -22 518 1 710 51 41 11 59
17 40 14 -128 -20 -808 -12 -1055 11 -42 4 -46 3 -25 -6z"/>
<path d="M5448 7533 c7 -3 16 -2 19 1 4 3 -2 6 -13 5 -11 0 -14 -3 -6 -6z"/>
<path d="M5355 7344 c-174 -41 -291 -49 -748 -49 -425 0 -428 0 -355 -17 40
-9 128 -25 195 -34 109 -15 145 -16 310 -6 267 17 548 65 690 117 55 20 23 16
-92 -11z"/>
<path d="M4935 7110 c-33 -4 -188 -8 -345 -9 -160 -1 -278 -5 -270 -10 56 -31
351 -40 514 -16 181 28 260 54 101 35z"/>
<path d="M4065 5660 c-13 -5 -14 -9 -5 -9 8 0 24 4 35 9 13 5 14 9 5 9 -8 0
-24 -4 -35 -9z"/>
<path d="M7476 7928 c-97 -149 -161 -266 -230 -421 -232 -525 -299 -1093 -189
-1620 5 -21 8 104 8 290 0 252 5 361 18 473 43 347 119 632 254 949 50 117
162 344 199 403 13 21 22 38 19 38 -3 0 -39 -51 -79 -112z"/>
<path d="M7560 7339 c0 -3 -16 -52 -36 -109 -51 -150 -98 -351 -125 -530 -30
-205 -33 -563 -6 -740 19 -124 66 -314 92 -370 15 -35 16 -35 11 -5 -106 643
-89 1238 50 1675 13 41 21 76 19 79 -3 2 -5 2 -5 0z"/>
<path d="M7234 5855 c3 -147 7 -195 25 -260 20 -74 84 -225 95 -225 3 0 -2 21
-10 48 -59 194 -90 345 -104 516 -7 88 -8 78 -6 -79z"/>
<path d="M7068 8140 c-24 -28 -77 -105 -118 -173 -40 -67 -80 -132 -88 -144
-8 -13 -12 -23 -9 -23 7 0 144 189 189 260 62 100 80 130 75 130 -3 0 -25 -23
-49 -50z"/>
<path d="M6606 7388 c-190 -293 -328 -706 -393 -1178 -24 -176 -24 -563 0
-716 21 -130 56 -268 93 -362 24 -61 105 -215 110 -209 1 1 -18 61 -42 133
-135 404 -165 808 -94 1292 61 414 176 755 360 1070 47 81 26 62 -34 -30z"/>
<path d="M6022 7248 c-156 -264 -232 -421 -302 -625 -44 -126 -85 -315 -93
-428 l-6 -70 17 50 c187 577 266 787 393 1046 43 88 76 159 74 159 -2 0 -40
-60 -83 -132z"/>
<path d="M4797 5964 c-61 -122 -133 -296 -170 -409 -60 -185 -78 -291 -83
-475 -2 -91 -2 -160 1 -155 2 6 20 91 40 190 63 323 137 601 214 805 22 57 38
106 36 108 -2 2 -19 -27 -38 -64z"/>
<path d="M5543 5503 c-11 -93 -8 -339 4 -388 9 -31 11 14 12 208 1 136 -1 247
-3 247 -3 0 -8 -30 -13 -67z"/>
<path d="M12950 8000 c8 -6 53 -33 100 -61 163 -96 344 -245 633 -521 359
-343 617 -696 925 -1268 28 -52 52 -92 52 -88 1 22 -72 204 -130 325 -163 340
-396 665 -695 972 -242 248 -494 446 -725 569 -89 48 -193 95 -160 72z"/>
<path d="M15625 7155 c10 -16 68 -100 130 -185 62 -85 118 -166 124 -178 7
-13 15 -21 18 -18 8 8 -99 194 -151 263 -55 72 -150 165 -121 118z"/>
</g>
</svg>
