<?xml version="1.0" encoding="UTF-8"?>
<svg 

fill="blue" 
style="filter: drop-shadow(0 0 0 rgba(0, 0, 0, 1));"

width="700pt" height="700pt" version="1.1" viewBox="0 0 700 700" xmlns="http://www.w3.org/2000/svg" xmlns:xlink="http://www.w3.org/1999/xlink">
 
 <g>
  <path d="m364.59 104.35c2.5664 1.5156 5.5391 2.1914 8.5117 1.9375 1.4453 0.44531 3.0156 0.11328 4.1562-0.87891 1.1406-0.99219 1.6914-2.5039 1.4531-3.9961-0.066407-6.8906 0.57422-13.77 1.918-20.527 0.36328-1.75-0.11328-3.4453-2.3008-3.1172-9.2188 0.64062-18.469 0.69141-27.691 0.14844-3.2305 0.070313-4.9883 1.1953-5.0234 4.6016l-0.003906 0.003906c-0.67188 7.6602-2.0742 15.238-4.1875 22.633-1.5 7.3984-0.96875 8.1406 6.3125 9.4883 3.3828 0.625 6.7266 1.4727 10.117 2.0625 3.3945 0.58984 4.3086 2.5938 3.6016 5.6914-3.7656 16.523-3.4688 33.684-8.4375 50.094-1.9883 6.5703-2.2227 13.824-4.4844 20.848 1.6914-0.023438 3.2109-1.0312 3.8906-2.582 4.3945-7.8789 10.016-15.008 16.652-21.121 5.0273-4.3281 9.0312-9.7148 11.73-15.773 1.4844-3.8281 4.9922-6.4961 9.0781-6.8984 3.7852-0.62109 7.5352 1.3086 9.2266 4.75 2.0625 2.9062 1.9336 6.832-0.32031 9.5938-3.4492 6.2461-11.031 8.918-17.637 6.2188-1.7461-0.60156-3.6797-0.054688-4.8516 1.3711-13.223 12.25-23.879 27.008-31.344 43.414-1.5195 4.25-2.2969 8.7266-2.293 13.242-2.9648 23.391-3.9414 46.992-2.9219 70.551 0.58594 8.6914-0.011719 17.461 0.12891 26.191 0.03125 1.9766-0.85547 4.2695 1.4258 6.3711 4.6133-3.2461 9.4766-6.2969 13.926-9.8672v0.003906c15.945-12.691 32.629-24.43 49.957-35.152 1.918-1.4062 3.707-2.9805 5.3438-4.707 3.6406-3.3359 6.2266-3.3438 7.9688 0.96094h-0.003907c2.6562 6.0703 5.8477 11.887 9.5352 17.387 4.5273 7.1875 7.4297 15.129 11.461 22.527 2.9453 5.4102 2.7266 6.2617-3.4336 8.2812-12.609 4.0234-24.484 10.059-35.168 17.871-3.2734 2.418-4.9219 1.4805-5.7344-2.8438h0.003906c-1.375-9.9844-4.5469-19.637-9.3711-28.484-1.0781-1.2305-1.4844-2.9141-1.082-4.4961 0.40625-1.5859 1.5625-2.8711 3.1016-3.4375 7.9922-4.1055 16.047-8.082 24.168-11.934 2.543-1.2031 4.3281 0.20312 4.0859 2.9102v-0.003906c0.058593 6.3672 1.3555 12.66 3.8203 18.531 1.6914 5.7109 0.92578 6.7891-4.8984 8.3398v0.003907c-3.8945 0.78906-7.5625 2.4375-10.746 4.8164-2.9453 2.418-4.8047 1.4609-4.9844-2.4297-0.11328-2.4141-0.58594-4.7148-0.92969-7.0625-0.70312-4.8164 0.21875-6.0273 5.1797-6.4883 1.4922-0.14062 3.4023-0.71875 4.1719 1.1484 0.75 1.8242-0.61719 2.8164-2.1094 3.6484-1.4531 0.80859-2.7227 1.9688-1.3047 3.7266 1.0703 1.3281 2.3359 0.36719 3.5703-0.054687 7.0391-2.4062 7.2773-2.8086 5.1758-10.223-0.85938-3.0312-1.8086-6.0391-2.7617-9.207-7.1758 0.48437-12.203 5.2461-18.02 8.168-2.0234 1.0156-1.4727 3.2891-0.67578 4.9961l-0.003907-0.003906c2.8945 6.5312 5.2656 13.281 7.0898 20.191 1.0078 3.5469 3.2109 3.7812 6.0352 2.0352h-0.003906c8.0234-5.1758 16.594-9.4453 25.555-12.734 1.3398-0.26172 2.4609-1.1602 3.0078-2.4102 0.54297-1.25 0.44141-2.6875-0.27734-3.8438-1.6719-3.8906-3.543-7.6914-5.6094-11.391-3.5469-6.5078-7.4961-12.805-10.785-19.43-1.75-3.5273-3.6484-2.7891-6.3242-1.6836-5.4297 2.7695-10.617 5.9922-15.504 9.6406-15.949 10.008-30.512 21.934-45.469 33.309-2.7969 1.8086-4.918 4.4883-6.0508 7.6172-1.1289 3.1328-1.1992 6.5508-0.20312 9.7266 3.4844 13.609 6.1992 27.406 8.125 41.324 1.1211 7.8398 1.6641 15.758 2.4414 23.645 0.12891 1.3164-0.42578 3.1523 0.26172 3.8906 4.7148 5.0898 1.125 10.5 1.1562 15.832-0.39062 15.883 0.078125 31.773 1.4102 47.605 0.18359 0.77344 0.23828 1.5703 0.16406 2.3594-0.52344 2.207-0.035156 5.9297-2.7031 5.9258-3.5742-0.007813-1.6836-3.7031-1.8984-5.7188-1.4883-17.156-2.0234-34.379-1.6094-51.594 0.32031-3.9648-0.81641-7.9062-3.1992-11.09-2.3789-3.1797-5.8438-5.3828-9.7344-6.1953-1.7539-0.57422-3.4336-1.3945-5.1992-1.9336-4.0195-1.2227-7.5977-2.7656-10.496 2.8047-2.25 4.3242-12.062 3.4023-16.113-0.71484-4.3789-4.4453-5.25-9.1719-2.3281-12.637 4.7148-5.5898 11.848-7.3555 15.82-2.3633 5.8555 7.3594 13.922 8.9023 21.863 11.348 2.4688 0.75781 4.4219 3.0508 7.8477 2.4141 0.25391-8.6992-0.53125-17.398-2.3359-25.91-2.3828-13.559-5.1719-27.055-8.082-40.512v-0.003906c-1.7773-7.75-2.5469-15.699-2.293-23.648 0.77734-17.766-1.1289-35.496-0.49219-53.254 0.21875-6.082 0.28906-12.176 0.70703-18.246l-0.003906 0.003907c0.30078-1.3008 0.003906-2.6641-0.80078-3.7266-0.80469-1.0586-2.0391-1.7109-3.3672-1.7734-9.1367-2.7344-18.602-4.2109-28.137-4.3906-7.1406 0.49609-14.316-0.023438-21.309-1.5469-8.6133-1.8828-9.4453-0.82422-10.418 7.6875-1.2188 9.4453-1.6055 18.984-1.1523 28.5 0.25781 4.1875 1.7031 5.6133 5.9141 4.9531v-0.003906c7.6055-1.2305 15.371-1.0703 22.918 0.47656 3.3828 0.70312 5.2852-0.11719 5.4766-3.5 0.33984-6.0742 0.44141-12.164 0.54297-18.25 0.03125-1.8711-1.168-2.8281-3.0117-2.9922-1.9727-0.17578-3.7656-0.042968-4.3398 2.3516-1.1367 3.5234-1.4922 7.2578-1.0312 10.934 0.84375 4.4961 0.27734 5.0508-4.5195 4.7695-15.77-0.92969-14.574 3.0508-14.297-15.328 0.023437-1.5859 0.30859-3.168 0.42969-4.7539h0.003907c-0.097657-1.4961 0.53906-2.9453 1.707-3.8906 1.1641-0.94141 2.7188-1.2578 4.1602-0.84766 6.5781 0.73828 13.164 1.3906 19.723 2.2852 5.3672 0.73047 6.582 1.8789 6.375 7.1484-0.33203 8.4492-1.168 16.879-1.7656 25.316-0.22266 3.1445-1.9844 4.3711-4.8008 3.332-9.8164-3.6133-19.934-1.875-29.949-1.9219-7.9297-0.039063-8.0547-0.027344-8.4609-7.6484v-0.003906c-0.375-12.719 0.20312-25.449 1.7266-38.082 0.39062-4.0469 2.2734-5.6211 6.1328-5.4492h0.003906c3.1719-0.17578 6.3516-0.070312 9.5078 0.32031 7.1836 1.7891 14.57 2.6055 21.973 2.4336 8.9805 0.13281 17.922 1.168 26.695 3.0938 4.1367 0.66406 5.4609-0.77344 5.4961-4.3477v-0.003906c0.73047-14.82 3.1289-29.512 7.1523-43.793 1.0234-3.3555-0.070313-6.9961-2.7734-9.2305-8.3125-6.9961-17.773-12.504-27.965-16.277-2.0312-0.89844-4.1953 0.21484-6.2734 0.16406-5.1758-0.070313-9.8867-3.0078-12.23-7.625-1.6914-4.0586-0.60156-8.7461 2.707-11.641 4.2031-4.5195 8.0508-4.8945 14.23-1.3867 6.5312 3.707 7.2109 5.0078 5.0469 12.039-0.78516 2.5547-1.4219 4.9375 1.3945 6.1055 9.6797 4.6133 18.922 10.082 27.621 16.348 3.5742-11.754 5.957-23.84 7.1172-36.07 0.64062-6.0586 1.1133-12.133 1.7812-18.188 0.43359-3.9453-1.1758-6.0938-5.125-6.3984-3.4297-0.26562-6.6523-1.5586-10.184-1.5703-4.8594-0.019531-5.6055-1.1094-4.8242-5.6992v-0.003907c0.58203-4.1992 1.4492-8.3555 2.5859-12.438 2.4375-7.0234 3.5664-14.43 3.332-21.859-0.24219-4.0781 1.8594-5.1055 5.418-4.5625 6.293 0.75781 12.625 1.1133 18.961 1.0586 4.457-0.058594 8.9062-0.42969 13.316-1.1055 7.0039-0.80078 8.6641 1.4297 6.6289 8.0273-2 6.3203-2.9375 12.93-2.7773 19.555 0.054688 1.3203 0.015625 2.6406-0.11719 3.9531-0.82031 7.3398-1.7695 8.1602-9.1328 6.5664-5.4727-1.1836-11.012-1.4648-16.531-2.1094-6.4961-0.76172-7.3945-2.6484-5.918-9.0117 0.94922-4.1016 1.6133-8.2734 2.25-12.438 0.53516-3.5234 1.8281-5.3945 5.8125-3.9414 3.2773 1.0859 6.7695 1.3711 10.18 0.82422 2.8398-0.35547 4.0508 1.1992 3.2695 3.8125v0.003907c-1.2969 3.7656-1.8008 7.7617-1.4766 11.73 0.48828 4.1758-3.7109 3.1055-6.6211 4.418zm-57.613 42.738h-0.003906c-3.5742 1.0469-6.3086 3.9453-7.1406 7.5781 0.25781 3.2539 2.8203 5.8477 6.0703 6.1406 3.6719-1.3281 6.6719-4.0469 8.3555-7.5703 0.125-2.4023-4.3203-6.1562-7.2852-6.1484zm77.191 12.961c-0.17578 4.3281 0.53516 4.9336 3.8906 3.5977 2.2422-0.75781 4.2812-2.0273 5.9492-3.707 1.4922-1.6484 2.6836-3.2461 1.1484-5.5273-1.25-2.1406-3.9453-2.9453-6.168-1.8438-3.2266 0.96875-5.2734 4.1406-4.8203 7.4844zm-70.668 250.62c3.9023-0.14062 5.2812-1.2812 5.2461-4.3281v0.003906c0.14844-1.7344-0.44531-3.4453-1.6328-4.7148-1.1875-1.2656-2.8594-1.9688-4.5977-1.9297-3.0078 0.40625-5.2109 3.0391-5.082 6.0742 0.35156 3.0117 3.0469 5.1875 6.0664 4.8945zm52.121-322.29c-2.875 2.5391-7.168-0.72656-8.25 4.0703-0.73828 3.2578-1.1289 6.5898-1.6992 10.043 2.6484-0.097656 2.6641-3.1836 4.4961-3.2695 6.6367-0.30078 6.5898-4.4609 5.4531-10.844zm-79.84 166.75c-3.1641 2.5078-1.7656 5.9023-2.0352 8.875-0.17969 1.9844 0.45703 3.7734 2.8672 3.8477 1.7773 0.054688 3.9609 0.36328 4.8008-1.7383 0.66797-1.6758 1-4.0625-0.99609-4.8828-2.8594-1.1758-3.5-3.6562-4.6367-6.1016z"/>
  <path d="m297.97 133.38c-0.066406 3.9727-5.125 9.3555-8.5781 9.125-3.7227-0.4375-6.6602-3.375-7.0977-7.0977 0.33594-4.8438 4.7344-10.039 8.5-10.047 4.0898 0.44531 7.1875 3.9062 7.1758 8.0195zm-4.832-1.4297c-0.046875-0.62109-0.36719-1.1914-0.875-1.5508-0.51172-0.35938-1.1523-0.47656-1.7578-0.31641-1.0664 0.035157-1.9531 0.83594-2.1016 1.8945-0.085938 1.5977 1.0039 3.0195 2.5703 3.3516 1.2695 0.28516 2.2891-0.85156 2.1641-3.3789z"/>
  <path d="m412.81 150.05c-3.8516-0.23828-6.9609-3.2344-7.3477-7.0742 0.76172-3.6836 3.6641-6.5547 7.3594-7.2734 3.1328 0.042969 9.3711 4.9531 9.4805 7.4648 0.12891 3.043-5.3438 7.0156-9.4922 6.8828zm1.3984-8.5117c-1.6484-0.023437-3.5586 0.38281-3.5078 2.1328 0.066406 2.2266 2.1484 2.4805 4.0547 2.332 1.5781-0.12109 3.625-0.46094 3.5664-2.1406-0.082031-2.1641-2.2578-2.3594-4.1133-2.3242z"/>
  <path d="m293.42 404.3c-0.12891 5.0547-2.7305 8.0312-6.8086 7.7852-1.7188-0.12891-3.3203-0.9375-4.4414-2.25-1.125-1.3086-1.6797-3.0117-1.5469-4.7344-0.019532-2.1133 0.85547-4.1406 2.4102-5.5742 1.5547-1.4375 3.6406-2.1484 5.75-1.9648 3.3906 0.16406 4.7539 2.1445 4.6367 6.7383zm-3.8477 1.0312c0.097657-0.83203-0.17578-1.5469-1.0547-1.5859-0.39062-0.035156-0.77734 0.09375-1.0703 0.35547-0.29297 0.26172-0.46484 0.63281-0.47266 1.0234-0.066406 0.76562 0.10938 1.5898 1.0078 1.6211v0.003906c0.80859-0.019531 1.4805-0.62109 1.5898-1.418z"/>
  <path d="m443.31 128.98c-0.29688 3.1016-2.6719 4.7188-5.1992 6.1953-2.3281 1.8203-5.4727 2.2031-8.1641 0.98828-1.1484-0.69531-1.7773-2.0078-1.5977-3.3398 0.46875-2.8398 2.2109-5.3125 4.7266-6.7109 2.5156-1.4023 5.5352-1.5781 8.1953-0.48047 1.2344 0.66797 2.0117 1.9453 2.0391 3.3477z"/>
  <path d="m262.98 400.79c3.5586 0.37891 6.2031 3.4688 6.0234 7.0469-0.054687 3.5117-2.1172 5.8594-5.0352 5.7305-4.0234-0.56641-7.0703-3.9219-7.25-7.9805 0.55859-2.9609 3.2578-5.0273 6.2617-4.7969z"/>
  <path d="m285.66 116.59c-0.54297 2.6484-0.65234 5.9062-4.4531 6.293-1.4648-0.011719-2.8633-0.62891-3.8672-1.7031-1-1.0742-1.5156-2.5117-1.4258-3.9805-0.074219-3.5078 1.8203-6.1289 4.5547-6.2969 1.4844-0.058594 2.918 0.53906 3.9219 1.6367 1 1.0977 1.4648 2.5781 1.2695 4.0508z"/>

 </g>
</svg>
