<?xml version="1.0" encoding="UTF-8"?>
<svg

fill="blue" 
style="filter: drop-shadow(0 0 0 rgba(0, 0, 0, 1));"

width="700pt" height="700pt" version="1.1" viewBox="0 0 700 700" xmlns="http://www.w3.org/2000/svg" xmlns:xlink="http://www.w3.org/1999/xlink">
 
 <g>
  <path d="m436.11 142.68-1.7227-7.9688 1.4102-0.53125h-0.003907c-1.3125-0.61328-2.5156-1.4375-3.5703-2.4297-0.46094-1.0195-0.46875-2.1875-0.023438-3.2148 0.80469-0.46094 1.7734-0.52344 2.6289-0.16797 7.5391 5.332 15.754 2.3398 23.18 0.71875 2.9375-0.64062 5.1914-7.0039 6.6445-11.152l0.003906-0.003907c1.1406-4.3516 1.8906-8.8008 2.2383-13.293l1.6836-0.40234v0.003906c1.0938 1.707 2.0742 3.4805 2.9375 5.3164 1.9336 4.8438 3.9102 9.6992 5.4297 14.68 1.0156 3.0938 2.8867 5.832 5.3906 7.9102 2.5078 2.0742 5.5469 3.4023 8.7734 3.8281 4.1445 1.0039 4.9531 2.9297 2.1836 6.0859-10.352 11.793-10.285 14.664 0.82031 25.602h0.003906c0.5625 0.89844 1.0547 1.8359 1.4688 2.8086-2.0508 0.20703-4.1172-0.011719-6.0781-0.64062-3.1719-2.3047-6.9023-3.7188-10.805-4.0898-3.9023-0.37109-7.832 0.3125-11.379 1.9766-3.1133 1.9531-5.7227 4.6094-7.6172 7.7578-1.2969 1.9023-2.4219 3.9141-3.3633 6.0156-4.4062-4.1094-1.1719-6.9727-0.27734-10.137 1.4883-4.4727 2.3789-9.125 2.6445-13.836 0.39453-1.8633-0.41406-3.7734-2.0234-4.7891-1.6094-1.0195-3.6797-0.92969-5.1953 0.22266-0.61328 0.15234-1.2109 0.34375-1.7969 0.57422-2.5195 1.6953-7.8711-1.6211-8.0078 3.7617-0.48438 2.6836-0.22656 5.4531 0.74609 8 0.97266 2.5508 2.6211 4.7891 4.7656 6.4727 1.0859 1.1562 1.5195 2.7812 1.1484 4.3242-3.0625 3.4492-4.9336 7.7969-5.332 12.395-0.39844 4.5977 0.69922 9.2031 3.1289 13.129 5.3398 7.9727 11.562 15.316 18.543 21.898l2.7773-0.58203h0.003906c1.0977-4.8086 1.6016-9.7344 1.5-14.668-1.4297-5.1367-3.4805-10.078-6.1016-14.715 3.0508 1.5742 4.3594 2.0977 5.5078 2.8633 5.1953 3.8633 11.512 5.9258 17.988 5.8672s12.754-2.2344 17.879-6.1953c0.4375-0.45312 0.96094-0.82031 1.5352-1.082 2.3047-0.42188 4.6328-0.69141 6.957-1.0156h-0.003907c-0.92969 1.9648-2.1797 3.7617-3.6953 5.3242-2.5312 1.1953-4.418 3.4336-5.168 6.1328-0.75 2.6992-0.29297 5.5898 1.2578 7.9219 5.1094 9.6797 10.445 19.355 21.855 23.223 0.75391 0.74219 1.3789 1.6133 1.8398 2.5664-3.8086 0-6.8164 0.23438-9.7773-0.039063-13.5-1.2617-19.34 2.8008-22.738 15.836l-0.003906-0.003906c-0.69141 1.9961-1.543 3.9297-2.5508 5.7852-1.3477-1.8789-2.4141-3.9453-3.1641-6.1328-1.793-9.8594-21.121-19.234-28.477-18.641v-0.003906c-2.3438 0.003906-4.6875-0.19531-7-0.58984l3.2305-6.0703c-5.0273-5.9727-10.312-12.258-16.203-19.254-0.41797 1.2344-0.71484 2.5039-0.88281 3.7969 0.53125 25.441 1.0391 50.887 1.7266 76.324 0.21875 8.0234 8.1992 8.4961 12.898 11.055 9.1562 4.9844 13.836 2.875 20.484-5.5508l0.003906-0.003906c1.5508-1.4648 3.2969-2.707 5.1953-3.6836 0.31641 2 0.33203 4.0352 0.042968 6.0391-2.2656 4.9336-0.76953 10.781 3.5938 14.016 5.0703 4.0781 9.2383 9.2773 14.293 13.383 4.3125 3.5078 9.3867 6.0664 13.98 9.25 1.2383 1.1328 2.3164 2.4297 3.2031 3.8516-1.5742 0.53906-3.2305 0.79688-4.8906 0.75781-11.227-2.6328-23.027 0.37891-31.617 8.0625-2.2422 3.1172-3.8086 6.6641-4.6016 10.418l-1.8984 0.16406c-0.56641-2.3203-0.97656-4.6719-1.2227-7.0469-0.35156-8.7695-3.1836-13.531-9.8477-16.027-7.5781-2.8398-13.473 1.2422-12.613 9.1797 1.1016 10.203 2.9844 20.32 4.0703 30.527-0.23828 2.25 0.6875 4.4688 2.457 5.8828 1.7656 1.4141 4.1328 1.8281 6.2734 1.1016 5.2969-0.81641 7.2148 0.49219 5.7617 6.5273-2.2031 9.1484 1.6367 13.738 11.109 15.219 2.9102 0.45312 5.7695 1.2031 8.6562 1.8125l0.13672 1.9062v0.003907c-1.0977 1.082-2.3906 1.9492-3.8125 2.5547-9.3047 1.8242-10.621 10.203-8.2734 17.988 1.1484 3.8047 3.207 7.3242 4.5117 11.09l0.003906 0.003906c0.015625 1.2969-0.27344 2.582-0.84766 3.7461-1.1484-0.10156-2.2578-0.48438-3.2227-1.1133-1.5-1.9961-2.7695-4.1562-3.7812-6.4375-2.5195-6.5273-7.168-12.012-13.199-15.562-0.27734 2.6406-0.39844 5.2969-0.36328 7.9531 1.0664 12.949 2.4727 25.875 3.3633 38.836 0.58594 8.5195 4.4961 12.852 13.137 12.121 4.7305-0.39844 5.4727 1.9805 4.582 5.0898-2.4492 8.5469-3.7656 16.801 4.125 25.32-14.309-0.21094-25.797 1.7656-29.238 17.055l-1.5391-0.67578c-0.55469-1.7578-1.0508-3.5352-1.6719-5.2695l-0.003906-0.003906c-1.1992-4.5859-2.9023-9.0273-5.0781-13.238-3.4766-5.3242-10.453-7.0938-16.047-4.0664 0.41797-1.7617 0.98828-3.4844 1.707-5.1484 4.4414-7.3125 9.2773-14.406 13.336-21.926v0.003906c0.92188-2.9844 1.3359-6.0977 1.2266-9.2188 0.5-3.8594 1.0742-7.7109 1.7109-12.219l5.8242 1.9883c-1.5195-10.262-2.9727-20.07-4.5312-30.594l-6.5859 4.7188v-21.469l-9.6094-1.7148c-0.03125-1.0859 0.19922-2.1602 0.67578-3.1367 9.2188-6.7578 9.5078-15.992 7.8516-26.082h-0.003906c-0.39453-4.4258-0.55078-8.8672-0.46484-13.309-0.18359-3.4922-0.625-6.9727-0.95312-10.461l-1.7148-0.88281c-3.5742 5.5234-7.1523 11.047-10.727 16.57l-3.3125-2.8867c-0.36719 4.8711 2 9.543 6.1445 12.129 1.1016 0.75 1.7734 1.9844 1.8086 3.3203-0.78516 1.1328-1.9961 1.8984-3.3555 2.1211-8.6328 2.0039-10.145 3.5898-10.129 12.277 0.007813 3.9688 0.76953 7.9297 0.95703 11.902 0.11719 2.4688-0.20703 4.9609-0.32812 7.4414l-2.0938 0.33594c-0.98828-2.1172-1.9883-4.2266-2.9609-6.3516v0.003906c-2.5898-6.5703-5.5781-12.973-8.9492-19.176-3.4883-5.6641-6.4531-5.1992-10.633 0.27734-0.83594 1.1875-1.75 2.3203-2.7383 3.3867-0.76563 0.22656-1.5742 0.28516-2.3633 0.16797 3.9023-18.27 8.9414-36.344 1.6719-56.586 1.8867 1.043 3.6914 2.2266 5.3984 3.5469 3.1016 3.6328 7.2656 6.1992 11.906 7.3398 4.6367 1.1367 9.5195 0.79297 13.949-0.98828 3.8945-0.45312 7.8359-0.25391 11.66 0.60156 4.1641-3.0273 4.4883-8.5586 3.5352-15.465-2.1016-15.199-3.0625-30.559-4.4844-45.852-0.23047-2.4648-0.43359-4.9336-0.65625-7.4766-10.32 2.3945-13.645 9.0078-10.402 21.223h-0.003906c-1.7617-0.28516-3.543-0.40625-5.3281-0.36328-3.9883 0.007812-7.9453 0.71484-11.688 2.0898-4.4141 2.3516-5.5117 1.3398-6.1133-2.9844-0.57031-4.1328-1.543-8.2109-2.3359-12.312l-1.8438 0.15234c-0.63281 3.2188-1.1641 6.4609-1.9141 9.6484v-0.003906c-0.74609 3.8359-2.8438 7.2734-5.9102 9.6914-3.0664 2.418-6.8984 3.6562-10.801 3.4922-17.645 0.5625-35.273 1.6641-52.918 2.2812-4.9492 0.17188-9.9336-0.5625-15.305-0.91016-0.53516 11.684 7.5352 19.121 13.418 27.516l-1.4297 1.3086 0.003906-0.003906c-1.5078-1.0703-3.082-2.0508-4.7109-2.9297-4.7852-2.8672-9.9453-5.0625-15.328-6.5234-3.9766 0.16016-7.7422 1.8242-10.539 4.6484-3.2656 3.7031-6.1094 7.7578-8.4805 12.086-0.81641-2.4609-1.5-4.9609-2.043-7.4961-0.51953-3.7383-0.49219-7.5664-1.1797-11.262-1.7812-9.543-4.957-12.352-14.551-13.527h-0.003906c-1.0391-0.097656-2.0664-0.31641-3.0547-0.64844-0.62109-0.45703-1.1523-1.0195-1.582-1.6602 8.5664-6.0156-1.6016-9.418-2.7539-14.52-0.50391 4.7773-1.0742 9.5508-1.4922 14.34-1.2461 14.211-2.918 28.41-3.4062 42.652v-0.003906c0.34766 6.1055 1.7227 12.105 4.0625 17.754 3.0664-3.8086 3.3008-9.168 0.57813-13.23-0.63672-2.1641-0.89063-4.4219-0.74609-6.6758 2.0625 0.85547 3.8828 2.1992 5.3125 3.9141 2.6445 7.1797 8.1914 7.9648 14.375 7.1367 6.1172-0.82031 12.152-2.25 18.223-3.4102l0.89844 2.1445v0.003906c-1.5 1.1133-3.1094 2.0703-4.8008 2.8594-8.9648 3.168-12.035 8.6484-8.7461 17.375 2.832 7.5195 4.3594 15.988 12.637 20.293 1.3008 1.4961 2.2891 3.2383 2.9062 5.125-1.7539 0.074219-3.5078-0.14844-5.1914-0.66406-5.7773-3.9336-12.16-5.918-18.094-1.7578h0.003906c-5.5273 4.0039-7.1523 11.523-3.7812 17.457-7.0625 1.8555-7.1914 1.4453-6.4727-4.8945 0.96484-9.5312-1.707-19.07-7.4805-26.711-3.8906-3.4531-9.6836-3.6641-13.816-0.50391-1.4375 1.2969-2.1758 3.1992-1.9922 5.125 0.18359 1.9258 1.2695 3.6523 2.9258 4.6562 0.67578 2.0273 0.64844 4.2227-0.082032 6.2305-1.2109 3.3086-1.9492 6.7695-2.1914 10.281 0.80859 3.0078 2.6914 5.6133 5.293 7.3281 2.6992 1.957 4.7852 3.1602 1.2773 5.9336-3.9414 2.9688-6.7852 7.1602-8.0977 11.914-1.3086 4.7539-1.0078 9.8125 0.85547 14.379 0.72266 1.8242 1.2617 3.7188 1.8867 5.5781l-1.7969 1.2617c-1.4453-1.5898-2.957-3.125-4.3164-4.7852l-0.003907 0.003906c-2.3359-3.6719-5.1133-7.043-8.2656-10.047-7.7344-5.6367-7.9258-5.2383-14.859 1.3164-1.3242 0.76953-2.7852 1.2734-4.3008 1.4727-0.42188-1.2344-0.65234-2.5234-0.67578-3.8281 0.98047-6.8398 2.707-13.621 3.0859-20.48h-0.003907c0.10547-6.4688-0.26953-12.934-1.125-19.344-0.51953-5.4648 0.66016-6.4961 5.8828-4.5898 4.5977 1.6758 8.9688 5.7461 14.18 2.6016 2.75-1.4648 4.957-3.7773 6.2852-6.5977 1.375-4.793 1.8711-9.7969 1.4609-14.77-1.5977 5.6602-3.1992 11.324-4.7969 16.984l-1.6562-0.39062c-0.21094-9.4766 1.1367-18.926 3.9922-27.961 3.1328-9.1406 5.6836-18.465 7.6484-27.922-8.3516 4.8984-14.773 12.504-18.207 21.559-3.8516 9.5273 1.9883 18.355 6.8086 26.879l-2.4453 1.1992c-1.7148-1.2109-3.543-2.2969-5.1289-3.6602-2.9727-3.1641-6.8047-5.3906-11.027-6.4023-4.2227-1.0117-8.6484-0.76953-12.734 0.69922-4.1758 1.457-8.5234 2.3672-12.934 2.7148-2.0703-0.34766-4.0352-1.1328-5.7734-2.3086 1.3359-1.2344 2.8633-2.2383 4.5312-2.9648 7.0977-1.6992 7.3828-1.9531 5.6328-8.4922v-0.003906c2.4375-1.0469 4.1133-3.3438 4.375-5.9883 0.25781-2.6406-0.94141-5.2188-3.1289-6.7227-5.168-4.2773-10.59-8.2344-16.242-11.848-1.6875-1.1992-3.4531-2.2969-5.1836-3.4375l0.82422-2.2578c3.2617 0.60937 6.5 1.3984 9.7891 1.7773 4.0781 0.70312 8.2188 0.95703 12.352 0.75391 2.6992 0.10937 5.3008-1.0156 7.0742-3.0547 1.7734-2.0391 2.5234-4.7695 2.0391-7.4297 0.16797-3.1484 1.0977-6.2109 2.7148-8.918 1.1602-1.6211 2.582-3.0352 4.2109-4.1875 1.2383 1.5117 2.3672 3.1094 3.3789 4.7852 2.4648 4.7461 4.625 9.6523 7.1602 14.359 0.77734 1.2383 1.9766 2.1562 3.375 2.5898 8.8008 2.6406 22.754-5.0938 23.852-14.137 1.5625-12.859 1.8828-25.871 2.6914-38.82 0.18359-2.918 0.11328-5.8516 0.30859-8.7695 0.49219-7.4102-1.6562-10.988-9-11.699-8.5586-0.82813-17-0.89063-23.871 6.6484h-0.003906c-4.2539 3.7422-9.0781 6.7852-14.289 9.0117-1.918 0.41406-3.8945 0.44922-5.8242 0.10938 13.438-23.473 6.918-39.121-17.438-48.449l1.2773-1.5859c2.168 0 4.3359-0.046874 6.5 0.007813 8.0391 0.20312 16.402 0.45312 21.516-7.0508l0.003907 0.003906c1.7617-3.8555 3.0117-7.9219 3.7266-12.102 0.78125-2.8867 1.9727-5.6445 3.5352-8.1914 4.1172-5.8438 3.2695-12.691-2.5078-14.805-1.9453-0.097656-3.9023-0.046875-5.8398 0.16016-1.5-0.29688-2.8398-1.1289-3.7734-2.3438 0.10547-1.3281 0.82031-2.5312 1.9297-3.2656 12.832-4.875 14.832-16.512 17.621-27.703 0.51953-2.0898 1.1914-4.1406 1.793-6.2109l1.9336-0.39453c1.5039 3.0078 3.1836 5.9453 4.4805 9.0391v0.003906c1.0469 3.1211 3 5.8633 5.6094 7.8711 2.6133 2.0078 5.7617 3.1914 9.0508 3.4023 3.4375-0.46484 6.668-1.918 9.293-4.1836 2.6289-2.2656 4.543-5.2461 5.5117-8.5781 2.8945-6.9844 7.0898-13.43 11.258-21.121-5.4453-2.9805-11.879-6.8047-18.594-10.059-4.1289-2-7.668 1.8516-7.6562 7.5938 0.011719 6.4766-0.023437 12.965-0.42187 19.426l0.003906-0.003906c-0.53516 1.6992-1.418 3.2656-2.5898 4.6055-1.6172-0.76953-3.0859-1.8242-4.3281-3.1133-2.6133-4.0547-4.7578-8.4102-7.1719-12.598h-0.003906c-2.6016-4.4766-7.8086-6.7422-12.855-5.5898-7.5625 0.63672-15.223 0.15625-22.84 0.15625l-0.80078-1.9219-0.003906 0.003906c1.2266-1.5938 2.707-2.9727 4.3906-4.0703 8.1562-3.4531 9.2148-9.168 6.9531-17.914h-0.003906c-2.3555-7.168-5.125-14.195-8.293-21.039-0.71875-2.2109-1.3008-4.4609-1.7422-6.7422 2.1836 0.26172 4.3789 0.46094 6.5508 0.80078 6.3203 1.4766 12.75 2.4414 19.223 2.8828 10.547-0.10547 15.977-8.2148 13.469-18.586-0.375-1.5469-0.86719-3.0664-1.4297-5.0234v-0.003907c2.2773-0.82422 4.8125-0.49219 6.793 0.89453 1.9844 1.3867 3.1719 3.6523 3.1797 6.0703 1.1055 7.2617 2.5 14.484 3.4688 21.766 0.57812 4.7266 4.2734 8.4648 8.9961 9.0977 5.1992 1.5742 10.273 3.5352 15.184 5.8711 1.2695 1.1836 2.2383 2.6562 2.832 4.2891-1.3906 0.70703-2.7383 1.5273-4.1836 2.0938-3.3359 1.3164-6.7227 2.5078-10.41 3.8672 5.3086 7.4648 18.73 14.457 23.508 13.023-2.6367-8.9297-0.39062-18.582 5.9102-25.434 1.4883-1.9297 3.7422-3.1211 6.1719-3.2617 2.4336-0.14453 4.8086 0.77734 6.5117 2.5195 6.6211 4.8828 11.609 11.656 14.305 19.43 3.332 8.7852 7.1211 17.398 11.148 27.145-1.1992-14.027-4.9766-27.715-11.133-40.375-2.3164-3.2227-5.375-5.8359-8.918-7.6211-3.6875-2.5352-7.8242-4.4062-11.539-6.9062h-0.003906c-2.5859-1.4844-5.7305-1.6211-8.4414-0.37109-2.707 1.2539-4.6367 3.7383-5.1836 6.6719-0.8125 3.3594-1.2461 6.8125-1.8516 10.223l-1.8477 0.24219c-0.72656-1.8945-1.5625-3.7539-2.1641-5.6875-1.5508-4.9688-2.6914-10.09-4.5742-14.922l0.003906-0.003906c-0.55469-2.332-2.2305-4.2344-4.4766-5.082-2.2422-0.84375-4.7578-0.51953-6.7109 0.87109-1.7734 0.25781-3.582 0.10547-5.2852-0.44141 0.46875-2.0586 1.2617-4.0273 2.3555-5.8281 1.4961-0.66797 3.0508-1.1875 4.6484-1.5547 2.2031-1.0508 4.0391-2.7383 5.2695-4.8477 3.2578-8.1094 3.1484-17.18-0.29688-25.211-0.76562-2.7188-1.1562-5.5273-1.1641-8.3516 6.3125 4.2852 12.953 8.0586 19.867 11.289 8.3516 3.1172 10.512-8.1094 18.566-9.6133h-0.003907c-0.074219 2.0039-0.37109 3.9883-0.87891 5.9297-2.8047 7.0078-2.3164 8.7578 4.1445 12.844 6.3672 4.0234 6.3672 4.0234 0.10156 8.418-8.418 5.9023-9.4531 20.848-1.2812 26.285l0.003906-0.007813c8.0156 4.3633 13.973 11.73 16.551 20.484 0.34375 0.50781 0.80078 0.92578 1.332 1.2188 2.8398-9.0312 1.3203-11.254-17.461-25.684h0.003906c0.14844-0.53516 0.40625-1.0352 0.74609-1.4727 7.4648 0.60938 8.957-5.3828 9.832-10.258 1.0703-5.9648 2.5898-12.695-3.3242-17.664v0.003906c-1.1953-0.86719-2.2227-1.9453-3.0273-3.1836-0.55859-1.0664-0.59766-2.332-0.097657-3.4297 0.87891-0.80859 2.1211-1.0977 3.2734-0.76562 4.3359 2.5508 9.1406 3.9219 12.785 0.12109h-0.003906c3.8828-4.3008 7.1758-9.0977 9.7891-14.27 2.3594-5.0312 4.4258-10.199 6.1914-15.469 1.2852 0.88672 2.3594 2.0508 3.1367 3.4062 0.60547 14.375 5.7461 25.332 21.973 28.5-7.0234 10.078-4.0352 19.266 0.30859 28.48h0.003906c0.45703 1.6523 0.64844 3.3633 0.56641 5.0742-1.3438 0.26953-2.7188 0.33594-4.082 0.19531-3.7461-0.82813-7.668-0.066407-10.832 2.1016-3.1641 2.1719-5.2852 5.5547-5.8594 9.3477-0.21875 1.4102-0.30469 2.8516-0.65625 4.2266-0.46484 0.61328-1.0469 1.1211-1.7148 1.4961l-5.4648-7.0898c-5.6836 4.5-8.6719 11.598-7.9219 18.809 1.0625 13.785 2.7734 27.523 4.1836 40.949 0.38281-0.43359 0.6875-0.92969 0.89062-1.4688 3.1992-9.0312 5.9648-18.238 9.6016-27.086 4.4492-10.875 12.973-19.578 23.75-24.254 4.582-2.0547 9.6133-2.8945 14.613-2.4414 11.18 1.2422 17.555-6.3789 25.973-11.574-8.0312-7.1562-17.746-3.8789-27.016-6.2148 3.082-4.1016 5.8281-7.3984 8.1797-10.953l-0.003906-0.003906c5.043-6.9609 6.293-15.973 3.332-24.043-0.64062-1.9961-0.96875-4.0781-0.96875-6.1758 0.058594-2.1016 0.25-4.1953 0.57031-6.2734 2.3945 0.94531 4.6133 2.2891 6.5586 3.9766 2.2734 3.5703 5.6875 6.2695 9.6875 7.6562 4 1.3906 8.3516 1.3828 12.348-0.015624 5.5273-1.5938 10.77-4.1758 17.195-6.7305 0.51172 2.1055 0.80078 4.2578 0.85938 6.4219-0.93359 14.102 1.0781 17.645 13.871 23.547h0.003906c1.4297 0.32031 2.7852 0.92188 3.9844 1.7656 1.3125 1.9648 2.4297 4.0469 3.3438 6.2227-1.5703 1.1016-3.3281 1.9102-5.1875 2.3867-8.7578 0.46094-17.418 1.4258-23.824 8.1055-3.082 3.8008-5.8477 7.8516-8.2578 12.109-1.0781-1.0898-2.0977-2.2305-3.0586-3.4219-4.207-5.7227-7.0039-5.8828-12.242-0.88672-1.9297 1.8398-4.207 3.3242-6.5234 5.1211-0.23828-0.4375-0.09375 0.16406 0.13281 0.19922 13.488 2.0391 19.918 12 25.82 22.695l0.003906 0.003906c1.2344 1.5742 2.707 2.9531 4.3672 4.0781l2.3359 7.8242c5.0039 0.33984 9.7188-2.375 11.938-6.875zm-114.2 142.65 0.71875 2.0469c-1.6016 0.96875-3.1289 2.0547-4.5703 3.2461-2.8477 2.6953-5.5156 5.5859-8.2578 8.3945 3.4102 2.1602 6.8008 4.3438 10.246 6.4414h-0.003906c0.59766 0.22266 1.2383 0.29688 1.8672 0.21484 15.035 0.10547 30.07 0.11328 45.102 0.32812 9.2109 0.12891 17.07-0.45703 22.477-10.426 4.7695-8.8008 3.8242-15.43-5.8438-18.414-2.0859-0.75781-4.1328-1.6289-6.1289-2.6055l0.50391-1.9805c2.957 0.14063 5.918 0.42969 8.875 0.39844 7.6797-0.078125 8.5391-1.3203 6.4922-9.0312-33.605 8.5664-67.555 7.0391-102.81 2.2969 0.32422 7.2578 0.28516 13.496 1.0898 19.629 0.6875 2.0977 2.4102 3.6953 4.5547 4.2148 6.1758-0.70703 12.246-2.3242 18.367-3.5508 2.4219-0.48438 4.8828-0.80469 7.3242-1.2031zm37.496-147.91c-14.266 14.375-11.512 32.789-15.547 50.023h68.828c1.875-14.426-4.5352-27.328-6.9141-42.254 3.168 1.2461 5.4062 2.0391 7.5742 2.9961 3.8398 1.6953 7.5508 3.7422 11.5 5.1133l0.003906-0.003906c1.7891 0.15234 3.5938-0.074218 5.2891-0.66797-0.027344-1.5742-0.30859-3.1328-0.82812-4.6172-2.4844-4.8516-5.2852-9.5352-8.3828-14.023-4.0898-5.7656-9.8203-10.172-16.441-12.645-6.625-2.4727-13.84-2.8984-20.707-1.2266-1.7031 0.38281-3.1758 1.4375-4.0859 2.9258-0.13672 5.4492 0.37891 10.914 0.70313 17.039l11.402-4.457c-0.73828 3.0898-1.1797 5.0078-1.6562 6.918h0.003907c-0.66797 2.3398-0.36328 4.8438 0.83594 6.957s3.1992 3.6562 5.5469 4.2812c1.5078 0.68359 2.9258 1.5586 4.2109 2.6016-1.2656 1.1641-2.6797 2.1562-4.207 2.9492-7.7461 2.8242-15.098 9.9883-11.312 19.277v0.003906c0.28906 1.4766 0.31641 2.9961 0.074219 4.4844l-1.2578 1.0039c-6.9023-7.9922-13.164-17.566-27.273-9.6172 5.2383-13.352 8.1875-24.66 2.6406-37.062zm-69.129 105.04 1.168-2.4961c1.8711 0.55469 3.7539 1.0703 5.6133 1.6719h-0.003906c4.2852 1.707 8.6797 3.1211 13.156 4.2305 23.48 4.1484 46.852 1.0352 70.195-1.6602 4.3633 0.21484 8.6992-0.8125 12.496-2.9648 2.4766-2.4531 1.5742-8.125 2.6094-12.27 2.4219-9.6914 0.58594-10.941-8.5195-11.113-24.629-0.45312-49.273-0.15625-73.914-0.15625l-1.0312 2.3633 8.5039 11.789h0.003907c-2.668-0.3125-5.2969-0.91016-7.8398-1.7773-8.0547-4.1367-14.941-0.63281-21.773 3.0703-1.2305 0.69922-2.082 1.918-2.3164 3.3164 0.24219 6.7305 0.83984 13.445 1.4102 21.43 3.5508-4.4141 6.1094-7.5938 8.4219-10.473zm109.95-22.484c0.41016 7.8203 0.30078 15.656-0.33203 23.461-0.45313 3.3398-1.6758 5.1758 1.625 7.7891 2.3125 1.8281 2.5469 6.3906 4.8945 8.0508 5.0898 3.3438 10.461 6.2344 16.047 8.6484 2.2031 1.418 5.0117 1.4766 7.2695 0.16016 2.2617-1.3203 3.5898-3.7969 3.4414-6.4062 0.12891-1.4688 0.14453-2.9453 0.039063-4.418-0.40625-14.902-0.59766-29.816-1.3984-44.699h0.003906c-0.003906-4.1836-1.3281-8.2617-3.7773-11.652-2.9961-3.2539-7.1289-5.2305-11.539-5.5273-5.4062 0.085937-5.9453 5.0391-5.4844 10 0.13281 3.3008-0.86328 6.543-2.8242 9.1992-1.9648 2.6523-4.7734 4.5547-7.9648 5.3945zm-71.156-22.738 0.50391 1.8047c-2.6836 1.0078-5.3047 2.1875-7.8398 3.5273-3.3047 1.5898-6.2695 3.8086-8.7305 6.5273-1.9609 2.7383-1.0195 5.5781 3.6562 5.3203 23.695-1.3203 47.387-2.7344 71.098-3.6055 16.945-0.62109 16.961-0.26562 16.395-17.191-0.24609-0.5625-0.58984-1.0781-1.0117-1.5195h-100.87l-0.13672 2.2148c8.0703 6.5938 17.711 3.4648 26.934 2.9219zm-44.562 87.469v-37.414c-5.4766 0.9375-5.457-2.0859-5.5977-5.5547 0.11719-5.6406-0.42578-11.273-1.625-16.781-1.7461-8.1367-7.3477-14.91-15.008-18.16-0.77344 2.2539-1.3398 4.5703-1.6953 6.9258-0.90625 16.738-0.84375 33.57-2.6836 50.199-1.7656 15.977 7.4922 26.664 14.762 38.984 7.4414-9.1055 0.44141-18.473 1.1484-27.344l1.6641-0.49219c2.7422 2.9258 5.4844 5.8516 9.0352 9.6367zm2.9609-118.55c2.6211 5.3867 5.2031 10.809 7.9062 16.172 0.49609 1.7461 1.543 3.2891 2.9844 4.3984 6.8711 0.73047 13.805 0.85547 19.551 1.1289-1.3164-11.137-2.5234-20.836-3.5938-30.551 0.007813-5.0352-2.4453-9.7539-6.5625-12.652-4.1211-2.8945-9.3945-3.5977-14.129-1.8906-4.6484 1.7734-9.1914 3.8125-13.605 6.1055-3.2383 1.0625-6.0742 3.0898-8.1289 5.8125-2.0547 2.7227-3.2227 6.0039-3.3555 9.4141 0.15234 9.4688 4.9766 18.254 12.891 23.457 0.20312-2.8711-0.03125-5.7617-0.70313-8.5625-3.2734-6.7617-3.5117-7.6328 6.7461-12.832zm-42.094 33.48-1.0234 1.8281c-1.6016-0.73047-3.2617-1.3516-4.7891-2.2109h-0.003906c-2.8516-2.3477-6.8047-2.8359-10.145-1.2578-3.3438 1.582-5.4688 4.9492-5.4648 8.6445-0.45703 1.5156-1.0078 3.0039-1.6562 4.4492-0.91406 1.7773-1.3945 3.7461-1.3984 5.7461 1.0547 5.8555 6.4727 9.8906 12.387 9.2266 9.1719-0.09375 9.168 0.097656 7.1953 9.0352 0.18359 0.48828 0.46875 0.93359 0.83594 1.3047 6.7734-5.6016 15-10.09 11.508-21.27-0.082031-1.2539 0.0625-2.5078 0.42578-3.707 0.86719-8.0156 1.7266-16.035 2.5977-24.164l-18.414 2.3047zm-23.832-65.371 2.418 0.019531v-24.652l1.7461-0.22266c2.0195 11.375 0.68359 23.867 9.7891 32.941-2.9805-11.281-7.1484-22.309-5.5742-34.137l2.0469-0.42969c1.8438 8.0156 3.6836 16.027 5.5273 24.043l-0.003906-0.003906c1.6758-6.1992 2.7188-12.551 3.1094-18.961 0.37109-6.4023 0.082031-12.844 0.082031-18.336-1.4883 8.1797-7.1328 11.512-16.254 8.7656-3.3203-1-6.6484-1.9648-10.988-3.2461-0.039062 2.3164 0.32031 4.6289 1.0547 6.8281 6.3867 1.4883 3.7578 6.4688 4.3477 10.152 0.91797 5.7422 1.8008 11.492 2.6992 17.238zm69.691 2.1367c12.648-3.0312 21.242 2.8398 29.504 10.594l0.003906-0.003907c-3.9531-8.9414-8.4531-17.633-13.477-26.02-1.5078-1.6523-3.7617-2.4062-5.957-1.9922-6.1484 3.6719-9.957 10.262-10.074 17.422zm62.805 114.29v-0.003906c1.8047 2.8281 3.4648 5.7461 4.9766 8.7422 1.75 3.9688 3.9023 3.9062 6.7031 1.25 3.3516-3.1836 6.6562-6.4102 10.043-9.5547 3.9492-3.668 5.6367-3.1914 7.2891 2.0508 0.76562 2.4336 1.3555 4.9258 2.5508 9.3281l9.2227-15.629-1.3672-1.4102zm-65.059-172.99c1.6641-3.168 2.9375-5.5938 4.2109-8.0195l1.3359 0.56641v9.8477c9.8398-0.75 10.355-3.8906 3.3242-14.418l-16.875 0.003906c-0.46875 9.4922-0.94922 19.191-1.4336 28.891l2.2266 0.23438c1.5352-8.3555 3.0703-16.707 4.6094-25.062l2.0898 0.37109c0.15625 2.2969 0.30859 4.5898 0.51172 7.5859zm54.152 26.992c13.008-8.2305 21.551-16.82 16.875-31.777-10.645 1.3359-3.375 9.6484-5.5625 15.199-6.5977-3.6445-4.0938 5.0195-9.5312 7.4805l-1.3945-4.8594-1.5469 0.84375zm-124.69 145.77 1.2969 0.22266c1.2305-3.9805 2.4609-7.9609 3.6914-11.941l2.0625 0.17969v16.223c3.2773-5.5195 6.1875-10.086 8.7617-14.832h0.003907c1.4336-1.8047 1.7305-4.2617 0.76953-6.3555s-3.0195-3.4688-5.3242-3.5586c-2.7969-0.70312-5.4609-1.9297-8.332-2.9727-0.98047 7.7461-1.9531 15.391-2.9258 23.035zm32.773-10.047c-4.0156 3.9648-13.387 2.8203-12.023 11.539h0.003907c1.457 6.8594 5.8516 12.734 12.023 16.062v-27.602zm153.37 137.13 2.207 0.28906c1.5586-6.6367 3.1172-13.277 4.6758-19.914l2.0977 0.14062 0.96484 13.453c1.6484-7.1641 1.3594-15.016 11.008-19.203l-19.312-0.003906c-0.55859 8.5938-1.0977 16.914-1.6406 25.238zm-113.48-161.77 2.6172-1.9688c0.33594-2.8047 0.66797-5.6133 1.0273-8.6016l6.9297 0.91797c0.58984-2.1953 0.63281-4.5039 0.12109-6.7227-2.5273-3.0078-5.4258-5.6875-8.625-7.9727-1.3633 0.44141-2.5078 1.3906-3.1914 2.6523-0.38672 5.8594-0.39062 11.75-0.29688 17.629 0.25781 1.4219 0.73438 2.793 1.418 4.0664zm169.39 281.69 1.0078-0.03125 3.5625-7.3672 1.6719 0.035157 4.5664 12.941 1.5195-0.47266c-0.125-1.7578-0.32031-3.5156-0.36328-5.2773-0.13672-2.0898-0.10156-4.1836 0.10156-6.2695 0.57031-2.2305 0.14062-4.6016-1.1758-6.4922-1.3164-1.8906-3.3945-3.1133-5.6836-3.3477-5.2305 0.16797-5.2969 4.3438-5.2148 8.293 0.050781 2.6602 0.007813 5.3242 0.007813 7.9883zm41.402-261.07-22.613-8.8594-0.73828 1.4141c5.8164 3.3203 11.637 6.6406 17.453 9.9648l-0.49609 1.4062h-10.047c2.5664 3.1562 4.9922 6.1445 7.3477 9.043 3.2305-4.6094 6.0703-8.6602 9.0898-12.969zm-156.49 14.902c-13.047-0.30469-14.449 0.88672-12.656 10.262 0.78516 4.0977 3.6797 4.9492 6.3516 2.8125h-0.003907c4.6289-2.6133 7.1445-7.8281 6.3047-13.074zm-16.488-136.4c1.7695-4.7812 3.0391-8.2188 4.6641-12.613-2.9531-1.4258-6.0547-2.5312-9.2461-3.2969-1.9648 0.23438-3.7422 1.2852-4.8984 2.8984-0.11719 1.5039 0.38672 2.9922 1.3906 4.1172 2.1758 2.7344 4.6875 5.2031 8.0898 8.8945zm147.55 227.91 17.617-8.5938-20.18-14.227-0.75391 1.0508c4.3281 3.6094 8.6562 7.2188 12.703 10.594-2.6328 2.3555-4.4297 3.9609-7.1484 6.3984l-4.5078-0.52734zm-214.06-223.99-18.984-10.469 6.4258 16.66zm-13.508 245.01c-2.5391 7.9766-4.5352 14.246-6.8164 21.41 12.441-3.1797 13.344-6.1367 6.8164-21.41zm13.277-167.95 1.6719 1.9453c2.5352-0.90625 4.8438-2.3477 6.7695-4.2266-0.88672-5.6133-2.168-11.152-3.8359-16.582l-1.875 0.074219zm46.426 53.172c1.0273 4.8789 1.6016 8.3984 2.5664 11.809v0.003906c0.63672 1.4141 1.4727 2.7305 2.4844 3.9023 1.3008-1.125 2.3867-2.4766 3.2148-3.9844 0.92188-3.4414 1.6562-6.9336 2.2031-10.453zm22.016-62.082c-2.0547-8.7422-4.0117-17.066-5.9688-25.391l-0.50781 0.16797v25.434l0.003907 0.003906c0.6875 0.30859 1.418 0.50781 2.168 0.58594 1.6445-0.20703 3.2695-0.59766 4.3047-0.80078zm-2.4883 80.164 1.875-1.9414c-0.72266-4.4219-1.4453-8.8398-2.3359-14.289-5.0938 2.1914-8.0156 7.5898-7.0586 13.051 0.28906 1.4883 4.8906 2.1445 7.5195 3.1797zm14.75-2.7188 1.5781 2.9375 12.68-2.9961c-1.7812-2.8555-3.5664-5.7109-5.3477-8.5664zm135.97-54.777-0.85938 1.7969 29.324 13.859c-7.4414-11.059-19.055-11.246-28.465-15.656zm-40.125-133.54c-2.3047 4.2617-4.5391 8.3945-6.7734 12.527l2.0039 0.96875 1.8203-4.6797 15.344 0.86328c-4.5508-3.5586-8.0625-6.2969-12.395-9.6797zm-101.44 13.184c2.707-3.7383 4.3672-8.1289 4.8047-12.719 0.4375-4.5938-0.35938-9.2188-2.3086-13.398zm28.602 174.2 0.875 2.4062c4.4141-0.94141 8.7422-2.2461 12.938-3.9023 0.12891-2.6953-0.17578-5.3906-0.90625-7.9883-1.0039 0.30078-1.9727 0.69531-2.8945 1.1836-3.3633 2.7383-6.6797 5.5273-10.016 8.3008zm-60.215-0.77344 2.2188-1.793-5.5742-9.0078c-2.2617 2.1133-6.5898 4.4258-6.4102 6.3047 0.59375 6.1836 6.8477 1.8047 9.7617 4.4961zm142.41 68.703c7.2188-11.457 6.5547-15.387-2.4766-19.711 0.77734 6.2148 1.5156 12.102 2.4727 19.711zm-11.336-100.76c0.84375-7.957 2.0586-19.422 3.2734-30.887l-3.2734-0.19922zm16.121 281.99c11.301-3.9219 15.148-8.957 11.848-13.23l-3.9961 7.625-3.957-9.4453zm-186.09-105.86 10.605-8.3828-7.7852-6.8516c1.7227 5.1328-0.65234 7.0469-5.1523 7.5703 0.86328 2.8359 1.582 5.1953 2.332 7.6641zm168.28-229.2 1.9844 0.066406c1.1758-0.98828 2.0859-2.2578 2.6367-3.6914-1.8359-5.207-4.1758-10.238-6.3477-15.328l-2.5156 0.74609zm-102.8-9.4648 1.1562-0.19531v-28.652l-2.7656 0.089844zm-118.93 203.91 1.4727-1.5781c-4.8047-7.4102-11.332-13.547-19.023-17.879l-1.1641 1.2773c6.2383 6.0586 12.477 12.117 18.715 18.18zm171.74-228.29c-3.8242 1.457-2.9062 9.4453 2.375 16.34l3.9375-2.9961zm-87.316 73.949c-0.36719 7.4102 0.60938 7.8672 11.848 6.2695-0.59375-8.4023-6.9297-5.4961-11.848-6.2695zm-15.832 102.34c1.3594 6.8516 2.3438 11.801 3.5117 17.699l5.9727-10.527c-3.0039-2.2695-5.5977-4.2305-9.4844-7.1719zm194.22-104.43-1.5117 2.3281c3.6289 7.3281 11.391 5.8047 17.367 8.1016l0.85938-1.7383zm-42.473-16.559c1.6719-4.8398 3.1367-9.082 4.6016-13.324l1.457 0.39063c-0.13672 2.6328-0.27734 5.2695-0.41406 7.9023l1.4141 0.089844c0.36328-4.25 0.72656-8.4961 1.1211-13.121v0.003907c-7.1328 2.8477-10.742 10.82-8.1797 18.059zm-19.039-40.027-1.4883 0.35156c2.2617 9.8398 4.5195 19.68 6.7812 29.52l2.3203-0.5625zm-115.7 158.21c-5.543-4.6094-11.09-9.2188-16.633-13.828l-1.1719 1.5078v0.003906c3.5859 6.75 10.223 11.34 17.805 12.316zm151.43 94.773 1.0781 1.0234 16.371 3.5273-6.3711-8.0117zm-157.36-322.08-10.66 9.8906 0.94531 0.72266 13.516-4.8594zm194.21 51.402c-6.0703-2.8594-9.1719 0.30859-10.824 9.832 6.7578 0.035156 5.6992-7.3984 10.824-9.832zm-76.062 133.44c2.8242 3.3594 4.7773 5.6836 7.4414 8.8555l5.9102-8.8555zm45.852 199.33-2.9414-0.22656c-0.44922 6.6328-0.89844 13.266-1.3477 19.898l1.9609 0.12891c0.77734-6.6016 1.5547-13.203 2.332-19.805zm-237.31-123.03c-0.60156 6.1875-1.0742 11.008-1.543 15.832l0.93359 0.39062c2.1328-4.1875 4.2656-8.3711 6.5781-12.902zm224.17-258.64c-3.4766-1.457-16.332 7.3086-17.637 13.168 6.1445-4.5859 12.023-8.9766 17.637-13.168zm-202.57 279.3 1.6016 0.80469c2.9453-8.7344 5.8906-17.473 8.8359-26.207l-1.9766-0.65234c-2.8242 8.6836-5.6406 17.371-8.4609 26.055zm47.805-192.19 1.2539 7 1.7695-0.59375-5.1055-12.828-1.7422 0.34766v12.648zm171.82 206.67c-1.957-0.007813-3.9062 0.21484-5.8086 0.67578-0.30469 3.7852-0.38672 7.5898-0.25391 11.387l1.332-0.097656zm-33.043-229.16h-8.1875c1.6094 3.4492 3.0078 6.4453 4.4453 9.5312 0.66797-0.25391 1.2812-0.625 1.8164-1.0938 0.63281-2.5391 1.1797-5.0977 1.9258-8.4375zm-8.4023-81.098-1.7578-1.6055c-4.3398 4.7773-8.6797 9.5508-13.023 14.328l1.6758 1.5312zm-87.09 9.1094 1.0117 0.007812 1.3164-16.559-2.3281-0.070312zm-73.16 203.06-1.5195 0.83984c2.9844 5.582 5.9688 11.164 8.9531 16.75l2.168-1.1914c-3.1992-5.4648-6.3984-10.93-9.6016-16.398zm28.09-157.22c3.1641-5.5664 6.0742-10.684 9.3633-16.473-8.0508 3.332-8.7344 9.6211-9.3633 16.473zm-57.711 61.508 2.5742 0.53516c0.8125-4.8789 1.6211-9.7617 2.4336-14.641l-1.8008-0.37109zm120.32-122.02-2.9961-0.37109-0.66406 14.777 1.9844 0.16016zm-131.58 117.47 1.207 0.78906c3.9062-5.918 7.8125-11.84 11.715-17.758l-1.6719-1.082c-3.75 6.0156-7.5 12.031-11.25 18.051zm65.613 125.95-1.3398 1.5195 13.934 10.887 1.3086-1.6875zm87.512-176.79 1.0156-1.0781-2.8984-9.6562-6.0352 5.6367zm85.633 186.96-1.0781 5.4102 9.8242 1.293-2.7734 2.3477zm-46.109 57.996-2.1133 0.72266c1.5586 3.8867 3.1172 7.7734 4.6758 11.656l2.6719-1.168c-1.7422-3.7344-3.4883-7.4727-5.2344-11.211zm-138.89-198.84c2.3711 12.055 2.6562 12.344 7.8945 9.168zm8.25 37.117c0.47266-9.7188-0.23047-10.844-6.3672-10.684zm195.31 12.199c-5.457-5.7109-5.457-5.7109-9.3281 0zm-270.19 20.168 1.5312-0.58594c-0.98828-3.4297-1.9805-6.8555-2.9688-10.285l-2.8867 0.8125c-1.5 4.1484 3.1094 6.6445 4.3242 10.059zm164.21-111 5.7305 12.09c0.28125-4.7266 1.2695-9.7578-5.7305-12.09zm62.633-63.402-1.7578-1.4922-9.0938 12.211 1.2422 0.96484c3.2031-3.8906 6.4062-7.7891 9.6094-11.684zm-224.66 273.98-1.8281 2.3359 7.7891 5.6289 1.2578-1.6289z"/>

 </g>
</svg>
