<?xml version="1.0" encoding="UTF-8"?>
<svg 

fill="white" 
style="filter: drop-shadow(0 0 5 white);"

width="700pt" height="700pt" version="1.1" viewBox="0 0 580 580" xmlns="http://www.w3.org/2000/svg" xmlns:xlink="http://www.w3.org/1999/xlink">
 <g>
  <path d="m276.62 248.44c-3.1719-4.6992-7.0273-8.8984-11.434-12.461-1.8789-1.7617-3.9141-3.3516-6.0781-4.7422-1.0742-0.76953-2.0859-3.8203-3.6602-0.1875-0.37891 0.875-2.4062-0.039063-2.2695-0.77734 0.85156-4.6211-3.1641-5.8477-5.5312-8.0078-3.7852-3.4609-7.9375-6.5234-11.988-9.6875v-0.003907c-2.3047-2.043-3.5078-5.0586-3.2461-8.125 4.4219 8.7422 12.859 12.867 20.633 19.133-0.40625-5.5039 0.80078-10.145 0.67578-14.832-0.19922-7.5039 1.7461-14.816 1.6211-22.289l-0.003906-0.003906c-0.17188-0.79297 0.28516-1.5898 1.0586-1.8398 0.44922 0.046875 0.85547 0.29297 1.1016 0.67188 0.24609 0.38281 0.30469 0.85156 0.16406 1.2812-0.054687 2.7031-0.34375 5.3945-0.85547 8.0469-1.1133 4.168-0.17578 8.4102-1.2266 13.098v-0.003907c1.5781-0.98438 2.8438-2.3945 3.6523-4.0703 4.0742-6.9688 9.6836-12.934 13.168-20.277h0.003906c0.12891-0.29688 0.37891-0.52734 0.68359-0.63672 0.30469-0.10547 0.64062-0.082031 0.92969 0.070313 0.4375 0.12891 0.78906 0.45312 0.96094 0.875 0.17188 0.42188 0.14453 0.89844-0.078124 1.2969-0.75391 1.3438-1.6523 2.6016-2.6875 3.7461-5.625 7.4453-10.859 15.18-15.688 23.168-1.7148 4.0859-2.0938 8.6094-1.0781 12.922 0.29688 1.0039 1.0234 1.8203 1.9805 2.2344 9.7344 7.5859 18.625 16.195 26.52 25.68 7.6484 8.6914 14.676 17.906 21.031 27.582 3.043 4.5391 5.3633 9.5625 8.2969 14.27-0.83203-5.7578-1.1484-11.574-0.94531-17.387 0.93359-14.168-0.19531-28.484 2.9648-42.484 0.23047-2.4453-0.48438-4.8867-1.9922-6.8242-4.7148-10.309-10.645-20.016-17.672-28.914-0.79688-0.90234-1.3008-1.875-0.37109-2.6523 1.1992-1 1.8633 0.45312 2.4297 1.1289 5.2578 6.6484 9.832 13.805 13.664 21.363 1.1953 2.1953 2.4688 4.3516 4.3086 7.582 1.0117-5.4023 1.6445-9.6953 2.6992-13.895h0.003906c1.6562-6.3047 2.9492-12.699 3.8711-19.152 0.55859-7.8008-1.2852-15.586-5.2852-22.312-0.39453-0.78516-2.5352-1.6641-0.77344-2.6875 1.043-0.60547 1.7578 1.0195 2.332 1.9648 3.1055 4.7188 4.957 10.156 5.375 15.789 0.13672 1.293 0.55469 2.5391 1.2266 3.6523 3.7734-5.3828 7.8711-10.531 12.27-15.414 0.65234-0.80859 1.3828-1.5469 2.1875-2.207 0.32812-0.58594 1.0586-0.80859 1.6562-0.5 0.9375 0.66016 0.35156 1.3633-0.12109 1.9609-2.1641 2.7305-4.1836 5.5938-6.5664 8.1172-3.6016 4.4961-6.7148 9.3594-9.2852 14.516-5.2656 8.6445-4.3359 18.434-6.6016 27.578v0.003907c-1.5195 7.9102-2.5352 15.91-3.0469 23.953-0.13672 1.1836-0.96875 2.7344 0.68359 3.3594 1.4062 0.53125 1.8945-0.95703 2.5742-1.8555 3.4844-4.6016 6.5156-9.5273 10.418-13.848v-0.003906c1.4141-2.5703 2.2031-5.4375 2.3047-8.3672 1.1172-4.1719 1.6602-8.5 2.6562-12.711 0.29688-1.2539 1.1211-2.2656-0.19922-3.4336-1.2188-1.0781 0.35547-1.4336 0.75781-2.0312v0.003906c0.21484-0.64062 0.88672-1.0039 1.5391-0.83594 0.68359 0.42578 1.0117 1.2461 0.80859 2.0273-0.5625 4.4219-1.457 8.7969-2.6758 13.082-0.54297 2.4883-1.0859 4.9727-1.8164 8.2969 3.6172-2.2188 6.668-4.0469 9.6641-5.9609 0.78906-0.69141 1.8945-0.89844 2.8789-0.53906 0.34766 0.35156 0.50781 0.84766 0.42969 1.3359-0.33594 0.96094-1.2266 1.625-2.2461 1.6719-5.2539 1.207-9.5977 4.8789-11.668 9.8555-0.28516 0.90234-0.71875 1.9609-1.7773 1.5078-1.7422-0.75-2.1133 0.69531-2.5703 1.5156-1.875 3.3789-5.0312 5.7656-6.8672 9.2461h0.007812c-0.16406 1.0352-0.74219 1.9648-1.5977 2.5703-0.85938 0.60938-1.9219 0.84375-2.957 0.65625-0.98828-0.29297-0.47656 0.84766-0.64453 1.3281-0.72266 4.2852-0.77344 8.6562-0.15234 12.957-0.125 4.2031-0.55859 8.4062-0.72656 12.602-0.23438 5.9023 2.0234 11.703 0.33594 17.691 0.32812 1.7422 1.0508 3.3867 2.1211 4.8008 3.9219 9.707 7.6914 19.48 11.734 29.141 3.6875 7.7422 6.6484 15.809 8.8438 24.098 1.0898 5.0469 2.0312 10.129 3.2617 16.324 2.0781-6.0898 3.4805-12.395 4.1758-18.793 1.7734-9.5859 3.1953-19.234 4.9648-28.82 2.9727-16.09 7.5-31.789 11.965-47.512 0.76562-3.8281 0.76953-7.7695 0.015625-11.602-0.46484-3.7812-4.2461-3.9062-6.6484-5.4922-0.87109-0.11719-1.6523-0.60547-2.1367-1.3398 2.5234-1.4844 4.4375 0.96484 6.793 1.1797-0.24609-1.9102-0.9375-3.7383-2.0234-5.332-0.33594-0.90625-0.38672-1.5391 0.36328-1.9648 0.99219-0.5625 1.2383 0.40234 1.5391 1.0352l0.003906-0.003906c1.8906 3.5938 3.2188 7.4531 3.9414 11.445 0.23047 0.6875 0.53125 1.3516 0.89453 1.9766 2.4531-5.9922 4.7461-11.383 6.875-16.84 3.9688-9.4141 8.6133-18.531 13.902-27.273 2.5977-3.9531 4.7656-8.1719 6.4688-12.582 0.77344-2.5039 0.070313-5.7422 0.67969-8.5664 0.73828-3.9258 0.33203-7.9766-1.168-11.68-1.4961-3.6992-4.0273-6.8906-7.2852-9.1992-0.60938-0.61328-1.1836-1.2656-1.7188-1.9414 5.1484-0.23828 5.9141 4.7227 9 6.7461 0.5625-0.68359 0.66016-1.6367 0.25-2.418-0.33203-1.0156-1.0586-2.1641 0.40625-2.4688 1.125-0.23438 1.6289 1.2227 1.8008 2.1328 1.3516 5.7969 1.5859 11.801 0.69531 17.684-0.38672 1.7852-0.41797 3.6289-0.09375 5.4258 3.8242-6.668 8.0742-13.082 12.727-19.203 0.77344-1.1758 1.6172-2.3047 2.5273-3.3789 11.305-11.566 8.3164-25.328 5.7539-38.867-1.0234-5.4062-6.5117-4.5977-10.277-5.3945-6.7852-2.1836-14.074-2.2812-20.918-0.28906-1.1211 0.089844-2.1758-0.53516-2.6406-1.5586 4.7266-2.6172 9.9141-0.64844 15.426-1.8438-3.2734-3.3125-6.1797-6.1641-8.9805-9.1211-1.7695-1.8633-3.3984-3.8633-5.0391-5.8438v0.003906c-0.32813-0.35938-0.48438-0.83984-0.42578-1.3242 0.42578-0.52344 1.1797-0.63672 1.7461-0.26562 0.12109 0.039063 0.23438 0.10938 0.32812 0.19922 4.1992 5.4766 10.344 9.2539 14.219 14.719h-0.003906c2.2656 2.6719 5.5898 4.2227 9.0938 4.2383 6.2891 1.5508 6.6719 1.1445 5.5273-5.2695-1.9961-10.941-4.8281-21.715-8.4609-32.227-0.86719-1.8555-2.2695-3.4102-4.0195-4.4688-5.1914-4.207-10.324-8.4922-15.461-12.766-0.46094-0.50391-0.87109-1.0469-1.2344-1.625 2.9609 0.58203 5.6602 2.082 7.7148 4.293 0.67969 0.95703 1.7812 1.5156 2.9531 1.5039 1.4688-0.67969 0.67969-2.4883 0.4375-3.4844-0.27734-3.7227-0.9375-7.4062-1.9766-10.992-0.27734-1.3828-0.30469-2.8047-0.074219-4.1992 1.6133 1.0273 2.5547 2.8398 2.4648 4.7539 0.875 4.8516 1.5195 9.7461 2.0938 14.645l-0.003906-0.003907c0.125 1.5117 0.95703 2.875 2.2422 3.6758 4.7852 3.1992 8.0117 8.2578 8.8867 13.945 1.2227 5.7227 2.8281 11.352 4.8047 16.859 1.625-4.1133 2.7891-8.3945 3.4727-12.762 2.4062-10.305 4.2461-20.742 6.543-31.074v-0.003906c0.51562-3.9766 0.71094-7.9922 0.58594-12.004 0.054688-0.89062-0.14844-2.1797 0.95313-2.2656 1.3438-0.10547 1.3672 1.1875 1.3828 2.2344-0.31641 5.3789-0.95312 10.734-1.9023 16.035-0.26562 2.6289-2.0703 6.7344-0.57812 7.5391 2.3711 1.2812 4.0781-2.6289 6.2461-4.0586 2.6133-1.7305 4.125-4.8711 6.8633-6.6719 0.71875-0.47266 1.2969-1.5547 2.2188-0.51562h-0.003906c0.33203 0.32812 0.5 0.78516 0.45703 1.25-0.046875 0.46094-0.29688 0.88281-0.68359 1.1367-4.6406 4.2539-9.5039 8.2578-14.562 11.996-1.1211 0.49609-1.9375 1.4961-2.2031 2.6875-2.4922 10.574-5.4453 21.066-7.3047 31.75v0.003906c-0.12891 4.3516 0.46484 8.6992 1.75 12.863 1.6914 8.8516 2.5508 17.84 2.5664 26.852 2.2422-1.5039 4.0312-3.5977 5.1641-6.0508 5.3203-6.5977 11.59-12.328 17.105-18.734 7.5625-8.7891 15.133-17.566 23.312-25.789v-0.003906c3.582-4.4961 5.6094-10.035 5.7812-15.785 0.62891-3.7852 1.3594-7.5469 2.2305-11.27 0.53125-1.7109 0.19922-3.5742-0.88672-4.9961-2.6172-3.7617-4.2148-8.168-7.1719-11.762-0.57422-0.69531-1.7266-1.7891-0.48828-2.6211 1.2227-0.82422 2.2266 0.31641 2.8359 1.2969 2.1562 3.4688 4.207 7 6.3164 10.496v-0.003907c0.28125 0.36719 0.58594 0.71094 0.92188 1.0273 1.7344-3.4062 1.0234-7.375 3.5859-10.41-0.25391 6.5938-1.3867 13.129-3.3711 19.426 5.9609-0.94141 11.035-4.8438 13.473-10.363 3.4531-6.332 5.9727-13.125 7.4844-20.172 0.18359-0.94531-0.16016-2.9414 1.5-2.5312 1.6328 0.40234 0.84375 1.9492 0.51953 3.25h0.003907c-1.5117 6.8711-4.0664 13.465-7.582 19.555-0.26562 0.68359-0.4375 1.3984-0.51172 2.1289 2.3789-0.66406 4.6289-1.7344 6.6445-3.1641 0.96484-0.32422 1.9531-1.3359 2.5547 0.015625 0.27734 1.0547-0.33984 2.1328-1.3828 2.4336-2.3906 1.1602-4.7422 2.3945-7.1055 3.5977-0.97266 0.33203-1.7852 1.0117-2.2891 1.9023-0.20703 0.78516-0.75391 1.4414-1.4883 1.7891-0.73438 0.34766-1.5859 0.35156-2.3242 0.019531-2.8203-0.66406-4.8125 2.4922-7.3438 3.6797-2.3555 1.2422-3.8359 3.6875-3.8438 6.3516 0.09375 4.832-0.91797 9.6211-2.957 14-1.8789 1.8945-3.8633 3.6836-5.9336 5.3633-4.0039 3.9414-7.7227 8.1602-11.137 12.621 7.9375-1.6133 15.809-0.875 21.555-7.957 6.1719-7.6094 14.293-13.516 19.996-21.629 0.33203-0.47266 0.78516-1.168 1.5234-0.52344l-0.003907 0.003906c0.5625 0.55078 0.60547 1.4453 0.09375 2.043-1.3164 2.9414-4.5352 4.1992-6.0664 7.2305 3.8789-0.93359 7.6211-1.9219 11.406-2.6719 0.92188-0.18359 2.6758-0.78516 2.8594 0.94531 0.20312 1.957-1.5742 1.2305-2.5625 1.2891-8.0977-0.14062-15.824 3.3789-21.039 9.5742-2.3125 1.8867-4.2266 4.2109-5.6328 6.8477 3.8555-0.80859 7.5742-1.6719 11.328-2.3125 0.88281-0.15234 2.6055-0.93359 2.7266 0.78906 0.10156 1.4375-1.3984 1.3398-2.5977 1.543l0.003906-0.003907c-5.4062 0.73828-10.707 2.1055-15.797 4.0742-3.7969 1.0508-7.6914 1.7266-11.621 2.0117-5.4844 0.67188-10.547 3.2891-14.266 7.375-9.1797 9.5938-17.672 19.824-25.41 30.613-8.4062 12.547-17.93 24.355-25.418 37.496-5.2891 9.2852-9.9258 18.938-14.996 28.703 3.7539-0.97266 7.2656-2.7109 10.32-5.1016 9.3086-5.3945 19.023-9.9648 28.723-14.559h-0.003907c3.4922-1.6055 6.3984-4.2539 8.3125-7.5859 5.9844-9.5 10.969-19.594 14.875-30.117 1.0781-3.043 2.082-6.1133 3.4453-9.0781 1.3086 5.7969-2.75 10.477-3.4688 16.66 3.6211-2.8047 6.7578-5.1094 9.7539-7.582 4.2617-3.5156 9.7812-5.0469 13.816-8.9102v-0.003906c0.45703-0.51172 1.2344-0.57812 1.7734-0.15234 0.82031 0.78906 0.070313 1.5391-0.5 1.8906h0.003906c-2.5625 1.7031-5.2305 3.2461-7.9844 4.6172-6.6836 4.0586-12.75 9.0625-18.008 14.855-6.5859 5.6602-7.8594 14.508-13.895 21.031 3.8125-0.27344 7.5273-1.332 10.91-3.1133 9.5977-3.1836 19.363-5.6211 29.184-7.9727 6.9414-1.6641 12.121-6.9297 18.461-9.9023 2.4375-1.1445 4.8047-2.4414 7.2461-3.5742 0.77344-0.35938 1.8438-0.75 2.1758 0.60938 0.30078 1.2344-0.51562 1.3438-1.5312 1.5898v0.003907c-6.3945 2.0078-12.387 5.125-17.707 9.1992 3.8828 1.0703 7.875 1.1992 11.641 2.4023 1.6953 0.63672 3.4922 0.94922 5.3008 0.91797 0.39844-0.007812 0.78125 0.15625 1.0508 0.44922 0.26953 0.28906 0.40234 0.68359 0.35938 1.0781-0.050781 0.91016-0.95703 0.78906-1.5039 0.76562v0.003906c-1.668 0.12891-3.3477-0.042969-4.957-0.50781-4.4844-1.4805-9.1211-2.4648-13.82-2.9336-3.1016 0.23047-6.125 1.0664-8.9062 2.457-9.7305 2.0938-19.328 4.7812-28.734 8.043-8.0039 2.6719-15.793 5.957-23.293 9.8242-2.9492 1.2734-5.793 2.7695-8.5156 4.4805 7.6523 1.7148 15.414 2.9023 23.227 3.543 4.3867 0.78906 8.7188 1.8828 13.098 2.7109 2.8828 0.54297 3.082 1.9766 1.5234 4.4258-3.9258-4.7422-9.8555-4.1875-14.984-5.25-7.5977-1.5703-15.473-1.7578-23.207-2.7266v0.003907c-5.2852-0.085938-10.438 1.6523-14.594 4.9219-3.1328 2.168-6.5 3.9805-10.031 5.4062-2.3203 1.5391-3.8594 4.0078-4.2266 6.7695-3.1211 7.4141-5.9688 14.957-8.5859 22.566-2.5312 7.2344-4.6641 14.602-6.3906 22.066-1.1914 5.2891-3.7422 10.23-4.3945 15.398 10.094-3.1914 11.887-12.934 15.949-21.625 0.94531 1.7305 0.82031 3.8477-0.32422 5.4531-1.1992 1.3945-1.7461 3.2344-1.5 5.0586 0.54297-0.21094 1.1211-0.39453 1.6641-0.65234 0.62891-0.30078 1.3086-1.2148 1.8242-0.019531 0.33203 0.76953 0.76563 1.8867-0.44531 2.3281-6.5352 2.3711-9.7109 8.9922-15.617 12.23h-0.003906c-2.4102 1.7812-3.8906 4.5508-4.0273 7.5469-1.1797 6.4219-2.2383 12.867-3.2812 19.312-0.78516 4.8555-1.375 9.7422-2.2188 14.586-1.2969 7.4219-2.5547 14.859-4.168 22.215-2.1836 8.5391-3.668 17.246-4.4375 26.027-0.44922 8.3203-1.8164 16.586-2.875 25.684v-0.003906c5.0156-5.793 9.6484-11.91 13.871-18.309 5.2266-7.6523 11.203-14.77 17.84-21.242 1.8594-2.2812 3.1133-4.9922 3.6445-7.8867 5.5508-12.848 8.0352-26.809 7.2539-40.785-0.058594-0.94141-0.89062-2.3242 0.6875-2.4336 1.4453-0.097657 1.6875 1.3633 1.6562 2.5703 0.19922 5.1562 0.070312 10.316-0.37891 15.453 1-0.36328 1.7578-1.1992 2.0195-2.2305 2.7422-5.6445 5.957-11.047 9.6172-16.145 1.1445-1.4336 1.5625-3.3203 1.125-5.1016-0.73047-4.332-0.95312-8.7344-0.66406-13.117-0.070313-1.0312-0.10547-2.3945 1.2344-2.4648 1.6641-0.082031 1.0352 1.4688 1.0586 2.3242 0.085937 3.2461-0.019532 6.4922 0.0625 9.7383 0.023437 0.88672-0.62891 2.2344 0.96875 2.5156l0.003906 0.003906c1.1641 0.23828 2.3438-0.30859 2.918-1.3438 1.9023-2.9062 4.1289-5.5859 6.6367-7.9844 0.61328-0.54297 1.2109-1.6719 2.2305-0.72656 1.0586 0.98047-0.011719 1.6484-0.62109 2.1875-6.6289 5.8438-9.8906 14.332-16.305 20.453-2.4727 3.2539-4.5117 6.8164-6.0664 10.598-0.61328 2.2539-2.2383 4.0977-4.3984 4.9922-0.64453 0.17969-1.0547 0.80469-0.96484 1.4688-0.83594 7.1562-2.8867 14.117-6.0664 20.582 3.5156-2.6992 6.6289-5.8867 9.2422-9.4688 9.4102-10.598 19.539-20.539 30.309-29.754 4.582-4.0977 9.3711-7.957 14.352-11.566 1.0977-0.89844 1.7773-2.207 1.8789-3.6211 0.88281-3.8828 1.6836-7.7812 2.4609-11.684 0.16016-0.80078 0.32813-1.7227 1.2344-1.5547 1.1016 0.20703 1.0977 1.1094 0.81641 2.1562-0.75781 2.8164-1.5234 5.6484-2 8.5195-0.625 3.7734-0.13672 4 3.3984 2.9648 4.3047-1.2617 8.0039-4.0195 12.461-4.8789 0.67188-0.12891 1.3594-1.1367 1.9453-0.10547 0.67578 1.1875-0.41797 1.5547-1.2148 1.9375-4.2617 2.0391-8.5273 4.0625-12.797 6.0742v-0.003907c-2.4883 0.6875-4.7031 2.1211-6.3477 4.1094-0.98047 1.5469-3.1992-0.085937-4.6289 1.1094-1.75 1.4688-3.8008 2.6094-5.4297 4.1914h0.003907c-8.1914 6.6016-15.871 13.812-22.973 21.574 2.7461 0.27344 5.5195-0.019531 8.1484-0.86328 8.3438-1.1406 16.691-2.25 25.09-2.75 3.2305 0.09375 6.3516-1.1992 8.5664-3.5547 3.582-3.3633 6.9375-6.957 10.055-10.758 0.48828-0.72266 1.0547-1.8477 2.0312-1.0078 0.70703 0.61328 0.13672 1.3047-0.53125 2.1484-3.4219 4.3477-7.7383 7.8359-11.672 12.121 5.8867-0.25781 10.961 2.5664 16.477 1.8633h0.003906c0.90234 0.066406 1.7695 0.39453 2.4883 0.94922 0.77734 0.45312 2.1445 0.84375 1.6211 2.0352-0.64062 1.4648-1.7891 0.44922-2.5859-0.007812v-0.003907c-1.4102-0.64844-2.9648-0.91016-4.5078-0.75391-8.168-0.09375-16.355-0.60156-24.496-0.19531v0.003907c-6.3711 0.62891-12.707 1.582-18.98 2.8555 5.9492 3.6875 11.367 7.1016 16.852 10.406 1.6797 0.92578 3.4141 1.75 5.1992 2.4648 0.96484 0.42969 2.2383 0.90234 1.418 2.0938v0.003907c-0.81641 0.67187-2.0039 0.64453-2.7852-0.066407-2.4883-1.5664-5.125-2.8984-7.7188-4.3359h-0.003907c-1.0664 3.3164-1.0156 6.8945 0.15234 10.18 0.18359 0.33594 0.32812 0.69531 0.42969 1.0664-0.13672 2.1953 1.2891 5.9023-1.0078 6.168-2.4844 0.28906-0.59766-3.2148-1.1484-4.957v-0.003906c-0.86719-3.6602-1.1406-7.4336-0.80859-11.18-0.25781-2.3477-1.7812-4.3672-3.9688-5.2578-1.7344-1.2812-3.7305-2.1992-5.5703-3.3359-3.5898-2.3008-7.9258-3.1406-12.113-2.3438-4.1914 0.79297-7.918 3.1602-10.414 6.6133-5.3984 6.7852-11.148 13.277-17.227 19.457-7.5195 7.7383-14.273 16.188-20.168 25.223-2.3828 3.4609-4.5469 7.0586-6.4883 10.781 4.5508-1.0234 8.3672-1.8008 12.133-2.7852l0.003907 0.003906c0.97656-0.32031 1.9922-0.48828 3.0195-0.50391 0.75391 0.03125 1.6992-0.085938 1.668 1.0625 0.074219 0.44922-0.066407 0.90625-0.375 1.2383-0.30859 0.33203-0.75391 0.5-1.207 0.46094-1.2617 0.007813-2.5234 0.22656-3.7891 0.34375-0.99219 0.089844-2.3281-0.37891-2.7578 0.82813h0.003907c-0.15234 1.0586 0.57812 2.043 1.6367 2.207 0.75 0.23438 1.3516 0.79688 1.6367 1.5273 0.28516 0.73047 0.22266 1.5508-0.17188 2.2305-0.9375 0.25-1.9102-0.26562-2.2344-1.1797-2.1953-3.2344-6.2148-4.7031-9.9766-3.6367-0.77344 0.011719-1.4336 0.56641-1.582 1.3242-2 6.3242-6.7305 11.711-7.2539 18.398-0.34375 4.3828-1.1523 8.7383-1.2031 13.133-0.10938 9.9336-2.8477 19.621-2.4844 29.613 0.29688 8.0664 0.070313 16.156 0.84766 24.207l0.003907 0.003906c-0.20312 0.89844 0.11719 1.832 0.82422 2.4219 1.0195 0.59375 0.62109 1.3633 0.007812 1.8516h-0.003906c-0.64844 0.61328-1.4648 1.0234-2.3477 1.1758-1.0898 0.035157-0.74609-1.1016-0.80469-1.8047v0.003906c-1.3398-13.977-1.3438-28.051 0-42.031 1.5703-14.559 2.7266-29.176 4.8086-43.664 1.3867-9.6445 2.0742-19.363 3.668-28.973v0.003907c0.19922-1.0156 0-2.0703-0.55078-2.9492-2.1406-3.5117-3.9961-7.2031-6.1953-10.676-2.7734-4.375-7.6953-2.6328-11.629-3.7109-0.69922-0.19141-1.5508 0.22656-2.293 0.10938-0.64062-0.10156-1.7773 0.14453-1.6797-1.0508 0.085938-0.80469 0.80469-1.3906 1.6094-1.3164 1.6602-0.31641 3.3672-0.25781 5 0.17187 1.7852 0.55469 3.6836 0.65625 5.5195 0.29688-0.74609-1.9648-1.8828-3.7617-3.3438-5.2734-0.8125-0.82031-1.9805-1.8828-0.66406-2.8711 1.1406-0.85547 2.1758 0.26172 2.8086 1.2812 3.2734 5.2852 6.5078 10.594 9.7539 15.895l1.9141 3.125c1.5508-7.3086 2.9844-14.051 4.4102-20.793 0.035156-0.25781 0.046875-0.51562 0.042969-0.77344-4.1836 0.027344-2.6406-3.7773-3.5547-5.7461l-0.003906 0.003906c-1.0586-2.6094-1.6562-5.3789-1.7695-8.1914-1.1367-7.9844-3.6914-15.699-7.5469-22.781-3.3438-7.2031-6.0234-14.613-8.8047-21.988-2.9766-7.8867-7.0781-15.188-10.625-22.773h-0.003906c-6.082-11.836-13.559-22.898-22.266-32.957-2.6797-4.0625-6.0273-7.6406-9.9102-10.578z"/>
  <path d="m276.51 248.32c-0.48828 1.4766-1.2734 1.6172-2.6406 0.875-8.4102-4.5586-12.223-0.85547-16.715 4.9453-3.5664 4.4922-6.3984 9.5195-8.3984 14.895-0.11719 1.0508-0.80078 1.9531-1.7773 2.3594-0.67188 0.070313-1.3008-0.32812-1.5234-0.96484-0.67188-1.207 0.44141-1.6445 0.94922-2.4844 2.25-3.7188 4.2344-7.6016 6.5273-11.816-2.7031-0.054687-5.3438 0.84766-7.4453 2.5508-4.5156 2.3125-9.0391 4.6211-13.52 7l-0.003906-0.003907c-1.0078 0.53906-1.9297 1.2305-2.7305 2.0469-0.58594 0.60156-0.71094 1.5898-1.8164 0.47266-0.97266-0.98047-0.45312-1.457 0.25391-2.1328v0.003906c3.4922-2.8242 7.3789-5.1172 11.539-6.8086 5.0703-2.5938 10.543-4.4219 15.535-7.1406 2.7344-1.8164 5.2422-3.957 7.4688-6.3711 1.1914-1.0977 0.26953-1.7695-0.77734-2.1367-6.2617-2.6367-12.91-4.2539-19.688-4.7852-2.1758-0.41016-4.4297-0.027344-6.3477 1.0781-2.1406 1.8242-3.832-0.32422-5.8555-0.007813-6.3242 1.6523-12.52 3.7695-18.535 6.3359-3.6445 0.625-7.1953 1.7344-10.551 3.2969-0.31641 0.24219-0.73047 0.32422-1.1172 0.21484-0.38672-0.10547-0.70312-0.39063-0.84766-0.76563-0.39844-1.1055 0.24609-1.5742 1.2773-1.8945 4.7461-1.4609 9.4844-2.9609 14.207-4.5 4.3906-1.4336 4.2266-6.4258 6.9961-9.1641 0.48438-0.48047-0.48828-1.1406-0.95312-1.4648-5.8047-4.793-12.133-8.9102-18.867-12.277 1.5469-1.9883 1.5742-2.0312 6.5625 0.76562 2.3203 1.3008 4.5234 2.8047 7.3477 4.5742v-0.003906c-1.2227-6.3242-2.8398-12.566-4.8359-18.691-0.18359-0.73437-0.41797-1.4531-0.71094-2.1523-0.22266-0.48047-0.22656-1.0352-0.011719-1.5195 0.21484-0.48438 0.62891-0.85156 1.1367-1.0078 1.1484-0.28906 1.7422 0.69141 1.8516 1.9023v0.003906c1.1641 7.0508 2.9609 13.98 5.3672 20.711 0.45703 2.5352 2.0586 4.7227 4.3398 5.918 1.0898 0.40234 2.0938 1 2.9688 1.7617 4.3867 4.2695 10.617 6.0664 16.605 4.7812 7.1719 0.30859 14.242 1.8359 20.898 4.5195 4.9727 1.707 9.6641 4.1328 13.938 7.1914zm-47.891-10.254c-6.8672-4.9688-7.25-4.8711-9.25 1.5625h-0.003906c2.9102-1.2656 6.0859-1.8047 9.25-1.5625z"/>
  <path d="m516.35 78.926c-0.51562 3.8516-3.0117 7.1484-6.5781 8.6875-3.8164-1.082-6.2969-4.7539-5.8789-8.6992-0.31641-1.7383 0.085937-3.5312 1.1133-4.9727 1.0273-1.4375 2.5938-2.3984 4.3438-2.6641 3.6758 0.87891 6.4492 3.9062 7 7.6484z"/>
  <path d="m221.63 277.91c-0.36719 3.6445-2.9883 6.6641-6.5469 7.5391-3.8086-1.1719-6.2148-4.9258-5.6875-8.8789-0.023438-1.6211 0.63672-3.1797 1.8203-4.2891 1.1797-1.1094 2.7773-1.6719 4.3945-1.5469 1.832-0.070313 3.5938 0.71094 4.7695 2.1133 1.1758 1.4023 1.6367 3.2734 1.25 5.0625z"/>
  <path d="m355.51 225.55c-2.6875 0.25391-5.1445-1.5391-5.7227-4.1758-0.41406-4.0742 1.2031-8.0898 4.3242-10.738 0.96094-0.65234 2.1914-0.75781 3.2461-0.27734 2.6562 1.3555 4.3281 4.0859 4.3203 7.0664-0.55078 3.5742-2.8711 6.6289-6.168 8.125z"/>
  <path d="m313.14 157.43c-0.1875 3.4141-2.5547 6.3164-5.8633 7.1875-3.8164-0.23828-7.1016-2.7852-8.2852-6.4258 1.0117-3.3867 3.8008-5.9414 7.2617-6.6562 3.4414-0.015624 6.3711 2.4922 6.8867 5.8945z"/>
  <path d="m188.31 249.7c3.7656 0.83984 6.7617 3.6875 7.7969 7.4062-0.046875 2.7891-2.0703 5.1484-4.8164 5.625-2.0625 0.074219-4.0586-0.71875-5.5117-2.1836-1.4531-1.4688-2.2227-3.4766-2.1289-5.5352-0.015625-4.1953 0.9375-5.2852 4.6602-5.3125z"/>
  <path d="m361.3 432.26c0.12891-3.2344 2.8242-5.7695 6.0625-5.6953 3.3945 0.55859 6 3.3086 6.3828 6.7266-0.30078 3.1211-2.5234 5.7188-5.5586 6.5-3.7578-0.625-6.6016-3.7344-6.8867-7.5312z"/>
  <path d="m347.84 171c-2.2266-0.67578-3.625-2.8711-3.3047-5.1758-0.51562-4.1914 2.3516-8.0508 6.5156-8.7695 1.3555-0.007813 2.6523 0.55859 3.5625 1.5625 0.91406 1 1.3594 2.3438 1.2227 3.6953-0.097656 4.4922-3.5234 8.2148-7.9961 8.6875z"/>
  <path d="m370.09 137.5c1.5781 0.14844 3.0234 0.94141 4 2.1875 0.97266 1.25 1.3945 2.8438 1.1602 4.4102-0.95312 2.9023-3.1641 5.2227-6.0234 6.3086-3.3164-0.12891-6.0312-2.6875-6.3555-5.9922 0.375-3.7656 3.4375-6.6992 7.2188-6.9141z"/>
  <path d="m202.18 190.51c-0.32031-1.4258 0-2.9219 0.87891-4.0898 0.88281-1.168 2.2305-1.8906 3.6914-1.9766 3.9297 0.49609 6.9648 3.6875 7.2656 7.6367 0.078125 2.7852-1.9492 5.1875-4.7109 5.5781-3.8594-0.20312-6.9336-3.293-7.125-7.1484z"/>
  <path d="m260.81 170.81c0.17969 3.6992-2.1016 7.0703-5.6016 8.2773-1.6367-0.21875-3.1211-1.0781-4.1172-2.3906-1-1.3125-1.4375-2.9727-1.2109-4.6055-0.26562-1.5234 0.11719-3.0898 1.0547-4.3203 0.9375-1.2266 2.3438-2.0117 3.8828-2.1602 4.7617 0.96875 6.2578 1.1875 5.9922 5.1992z"/>
  <path d="m298.66 389.15c-3.6484-0.77734-6.0742-4.2422-5.5586-7.9375 0.19531-1.8008-0.10547-4.5742 3.0195-4.582v-0.003906c3.9141 0.19531 7.4023 2.5352 9.0703 6.082-0.41797 3.4023-3.1211 6.0703-6.5312 6.4414z"/>
  <path d="m370.08 71.5c1.5039 1.2969 5.3164 0.11719 5.2305 4.207-0.082031 3.832-4.3984 9.1445-7.3594 8.5039-2.7734-0.5625-4.6602-3.1484-4.3438-5.9648-0.28516-1.8125 0.29297-3.6523 1.5664-4.9766 1.2695-1.3242 3.0859-1.9805 4.9062-1.7695z"/>
  <path d="m245.28 289.97c-1.418 0.20312-2.8594-0.17578-3.9922-1.0508-1.1328-0.875-1.8633-2.1719-2.0312-3.5938-0.28125-3.5977 2.1719-6.8398 5.7109-7.543 3.5391 0.86328 6.1367 3.8828 6.457 7.5156-0.60938 2.8633-3.2227 4.8516-6.1445 4.6719z"/>
  <path d="m418.18 50.875c-0.22656-3.4531 2.2109-6.5078 5.6289-7.0586 2.8828 0.62891 5.043 3.0273 5.3633 5.9609 0.011719 3.0742-1.6875 5.8984-4.4062 7.3281-1.7344 0.18359-3.4609-0.39844-4.7266-1.5977-1.2695-1.1992-1.9492-2.8906-1.8594-4.6328z"/>
  <path d="m461.03 62.352c0.039062 3.1133-1.7461 5.9648-4.5664 7.293-3.0781-1.2227-5.2227-4.0547-5.5586-7.3477 0.21875-3.3086 2.9844-5.8633 6.2969-5.8242 2.7188-0.054687 3.918 1.7852 3.8281 5.8789z"/>
  <path d="m283.63 173.33c2.9609 0.28516 5.207 2.793 5.168 5.7656 0.15625 3.0273-2.1016 5.6445-5.1211 5.9297-2.9102-0.125-5.3164-2.3164-5.7148-5.2031-0.31641-1.6523 0.14453-3.3594 1.2539-4.625 1.1055-1.2695 2.7344-1.957 4.4141-1.8672z"/>
  <path d="m466.68 366.56c-3.043 0.39844-3.8867-1.6406-4.0586-4.2109v0.003906c0.38672-3.168 1.8477-6.1016 4.1445-8.3164 3.1758 1.0977 5.6641 3.6094 6.7266 6.7969-0.64063 3.2734-3.4766 5.6602-6.8125 5.7266z"/>
  <path d="m443.13 81.941c-0.042968-3.5234-0.10938-6.3438 3.2656-6.8906h-0.003906c3.4141 0.26953 6.2227 2.7969 6.8438 6.1641-0.24609 3.168-2.8438 5.6367-6.0195 5.7266-4.2109 0.015625-3.9336-3.1016-4.0859-5z"/>
  <path d="m378.45 287.29c0.29688-3.1172 2.6094-5.6719 5.6836-6.2812 2.4766 0.51563 4.4414 2.4102 5.0391 4.8711-0.44922 3.6133-2.9688 6.6289-6.4453 7.7109-2.4922-1.1328-4.1406-3.5664-4.2773-6.3008z"/>
  <path d="m507 131.88c-0.17188 3.1797-2.6836 5.7305-5.8555 5.957-2.7656-0.90234-4.5312-3.6094-4.2344-6.5039 0.29297-2.8945 2.5664-5.1914 5.457-5.5156 2.8789 0.52344 4.8867 3.1484 4.6328 6.0625z"/>
  <path d="m444.64 158.86c-0.74219-2.957 1.0273-5.9648 3.9766-6.75 3.168-0.12891 5.8828 2.2461 6.1758 5.4023-0.88672 3.207-3.5391 5.6211-6.8164 6.2031-1.1797 0.011718-2.293-0.5625-2.9609-1.5391-0.66797-0.97266-0.8125-2.2148-0.375-3.3164z"/>
  <path d="m497.68 48.18c-0.10547-2.9141 1.707-5.5508 4.4648-6.5 2.9648-0.097657 5.6875 1.6328 6.8555 4.3555-1.0273 3.1875-3.5977 5.6328-6.832 6.5039-2.3867-0.097656-4.3203-1.9766-4.4883-4.3594z"/>
  <path d="m379.21 327.54c0.003906 1.4336-0.63281 2.793-1.7344 3.707-1.1016 0.91797-2.5547 1.293-3.9648 1.0273-2.4062-0.14062-4.2891-2.1289-4.2969-4.543-0.61719-3.1328 1.2578-6.2227 4.3281-7.1172 3.1523 0.89453 5.4141 3.6562 5.668 6.9258z"/>
  <path d="m496.88 213.68c0.011719-2.9258 1.793-5.5547 4.5039-6.6523 1.6406-0.74219 3.5703-0.03125 4.3281 1.5977 1.3477 1.4766 1.5938 3.6562 0.60938 5.3945-0.72266 0.90625-1.6016 1.6914-2.3906 2.5508-0.92188 1.6367-2.8438 2.4336-4.6562 1.9297-1.7891-0.88672-2.7695-2.8594-2.3945-4.8203z"/>
  <path d="m422.87 270.25c0.48828-3.1523 3.1172-5.5312 6.3047-5.707 2.1016 0.23438 3.7969 1.8281 4.1562 3.9102-0.73047 3.2734-3.168 5.8906-6.3789 6.8516-1.2305-0.085938-2.3672-0.67969-3.1445-1.6367-0.77344-0.96094-1.1133-2.1992-0.9375-3.418z"/>
  <path d="m470.35 167.29c-0.17187-1.3398 0.20313-2.6875 1.0352-3.7461 0.83594-1.0586 2.0586-1.7383 3.3984-1.8867 2.7617 0.050781 5.1133 2.0195 5.6484 4.7266-0.28125 2.9453-2.4219 5.375-5.3047 6.0234-2.6289-0.31641-4.6445-2.4766-4.7773-5.1172z"/>
  <path d="m500.89 185.8c-1.0742 0.27734-2.2148-0.027343-3.0117-0.79688-0.79688-0.77344-1.1328-1.9023-0.89062-2.9883-0.31641-2.6289 1.5508-5.0195 4.1797-5.3516 1.3125-0.32031 2.6992-0.10937 3.8555 0.59375 1.1523 0.69922 1.9805 1.832 2.3008 3.1445-0.51953 3.1406-3.25 5.4297-6.4336 5.3984z"/>
  <path d="m450.24 248.97c-1.5742-0.070312-3.5664 0.48828-3.4648-2.1914 0.12891-3.5312 2.3594-6.6445 5.6602-7.9062 2.2617 0.32031 3.918 2.2969 3.8398 4.5781-0.046875 1.543-0.71484 2.9961-1.8516 4.0352s-2.6484 1.5781-4.1836 1.4844z"/>
  <path d="m418.13 404.67c-0.96484 0.10938-1.9297-0.19141-2.6602-0.83203-0.72656-0.64062-1.1523-1.5625-1.1719-2.5312 0.10547-2.7344 1.9531-5.0898 4.582-5.8477 1.2969-0.003907 2.5391 0.53516 3.4219 1.4883 0.88281 0.95312 1.3242 2.2305 1.2188 3.5234-0.10547 1.2969-0.74609 2.4883-1.7734 3.2852-1.0234 0.79688-2.3359 1.1289-3.6172 0.91406z"/>
  <path d="m457.16 314.25c2.5742 0.77344 4.3789 3.0859 4.5078 5.7695 0.13672 1.1758-0.26953 2.3555-1.1094 3.1953-0.83594 0.84375-2.0078 1.2578-3.1914 1.1289-3.2422 0.27344-3.8242-2.6211-4.043-4.9805h0.003906c0.17188-2.3047 1.668-4.3008 3.832-5.1133z"/>
  <path d="m414.71 306.59c0.83594 0.09375 1.5938 0.53125 2.0977 1.207 0.50391 0.67188 0.71094 1.5234 0.56641 2.3555-0.22266 2.9062-2.4141 5.2734-5.293 5.7305-1.0547-0.011719-2.043-0.50781-2.6758-1.3516s-0.83984-1.9336-0.55469-2.9492c0.51953-2.8438 2.9648-4.9297 5.8594-4.9922z"/>
  <path d="m426.89 256.22c-1.1797-6.875-3.4688-13.512-6.7734-19.652-0.55859-0.93359-2.0117-1.8945-0.27734-2.7383 1.1406-0.55469 1.5 0.95312 1.9766 1.7188 3.2461 6.293 5.7812 12.93 7.5625 19.785 0.17578 0.63281 0.066406 1.3086-0.30078 1.8555-0.36719 0.54297-0.95703 0.89844-1.6094 0.97266-2.3242 0.14844-0.078125-1.4766-0.57812-1.9414z"/>
  <path d="m289.38 234c3.9844-5.3477 9.4883-9.3672 15.793-11.539 0.82031-0.33594 1.6719-0.58594 2.543-0.74609 0.30859-0.12109 0.65625-0.082031 0.92578 0.10938s0.42188 0.50781 0.40625 0.83594c0.085937 0.3125 0.019531 0.64844-0.18359 0.90234s-0.51562 0.39844-0.83984 0.38281c-5.9609 1.1016-11.332 4.3008-15.141 9.0156-0.57812 0.51172-1.2109 0.95703-1.8789 1.3398-0.55469-0.015626-1.1016-0.11719-1.625-0.30078z"/>
 </g>
</svg>
