<?xml version="1.0" encoding="UTF-8"?>
<svg 

fill="blue" 
style="filter: drop-shadow(0 0 0 rgba(0, 0, 0, 1));"

width="700pt" height="700pt" version="1.1" viewBox="0 0 700 700" xmlns="http://www.w3.org/2000/svg" xmlns:xlink="http://www.w3.org/1999/xlink">
 
 <g>
  <path d="m266.87 245.43c-4.8633-4.3867-11.078-5.2734-15.367-9.3438h-0.003906c-0.94531-0.85547-2.3789-0.87891-3.3477-0.050781-1.7266 0.875-3.5977 1.4258-5.5195 1.6211-7.4648 1.8438-11.715-1.5195-11.332-9.0586 0.24609-4.8125 0.24609-4.8125-4.4414-4.3438-5.2422 0.52734-7.6641-1.9023-6.1719-6.6484 0.72266-2.2969 2.1484-4.1016 0.054688-6.5547-1.0898-1.2773 0.67187-2.4844 1.6406-3.5469 0.46484-0.41406 0.69141-1.0352 0.60156-1.6484-0.089844-0.61719-0.48047-1.1484-1.0469-1.4102-0.47266-0.39453-1.1172-0.51562-1.7031-0.32031-0.58594 0.19531-1.0273 0.67578-1.1719 1.2734-0.65625 1.6211 0.11328 4.5938-2.7656 4.1797-2.5742-0.375-1.9609-3.0117-1.75-4.8242-0.082031-2.6758-1.0586-5.25-2.7734-7.3047-1.0078-1.3477-1.625-2.9414-1.793-4.6133-0.35156-2.4961 1-4.9258 3.3125-5.9375 2.6992-0.98438 4.582 0.61719 5.832 2.9805 0.22656 0.42969 0.67578 0.85938 0.66406 1.2773-0.23437 6.9961 5.7031 10.59 9.0508 15.398h-0.003906c3.2656 3.7695 6.2461 7.7734 8.918 11.984 0.63672 1.2773 2.0039 1.1445 3.2109 1.1211v-0.003906c4.5938-0.35938 8.707 2.8398 9.4883 7.3789 0.91797 3.5547 3.4492 6.4688 6.8359 7.8828 7.2891 4.3477 15.211 7.543 23.484 9.4609 1.8789 0.41406 3.668 1.1641 5.2773 2.2188 4.0664 2.7148 8.8555 4.1406 13.746 4.0938-4.8398-22.98-6.5156-46.516-4.9883-69.953-0.94922 0.074219-1.8867 0.26172-2.7891 0.5625-3.7266 2.0938-7.7422 4.0625-11.332 0.48047h0.003906c-4.6484-3.3828-6.7188-9.293-5.2031-14.84 0.77734-1.7227 0.82422-3.6914 0.12109-5.4531-1.6094-3.4336-1.4531-7.4336 0.42188-10.734 1.875-3.2969 5.2305-5.4805 9.0039-5.8594 3.5664 0.039063 6.9648-1.5117 9.2773-4.2266 2.3008-3.0547 6.543-1.7812 10.246-1.2695 4.4805 0.61719 6.5234 2.6641 6.3945 7.0703-0.0625 2.1484 1.6914 2.6797 3.0977 3.5859 3.375 1.832 4.7422 5.9727 3.1211 9.457-2.0273 5.4062-4.0742 10.82-6.4648 16.074-1.3008 2.8594-3.3359 6.0352-6.6602 6.1641-4.8984 0.1875-5.2773 3.1836-5.6133 6.6953v-0.003906c-0.27734 0.92578-0.42188 1.8867-0.4375 2.8516 2.2461 10.75 0.78125 21.703 1.8711 32.543 0.77734 7.7422 2.3516 15.297 3.5234 22.941 0.28906 4.9922 3.707 9.2539 8.5195 10.621 1.957 0.57031 3.3125 0.22656 3.9453-1.8477 0.17188-0.45312 0.32031-0.91406 0.44531-1.3828 2.8125-11.586 8.2695-22.367 15.941-31.492 3.1641-4.2617 4.9062-9.4141 4.9805-14.719 1.0078-17.402 2.2305-34.797 3.8438-52.152 0.70312-5.0352 0-10.168-2.0312-14.832-5.3242-11.898-5.2344-25.52 0.24609-37.348 3.7539-11.043 9.5625-21.277 17.117-30.164 0.99219-1.3711 1.8086-2.8633 2.4336-4.4375 0.76953-1.4297 1.8594-2.3242 3.5078-1.5117 0.66797 0.30078 1.1836 0.86328 1.4258 1.5547 0.24609 0.69141 0.19531 1.4531-0.14062 2.1055-1.2617 4.1719-1.9414 8.5-2.0156 12.855-0.12891 6.7852 0.36328 13.566 1.4688 20.262 2.0977 11.59-0.86719 23.523-8.1484 32.781-4.8633 5.1445-8.1875 11.547-9.5938 18.48-1.6445 16.105-2.7383 32.266-3.9766 48.414-0.082031 1.0469-0.52344 2.4297 1.2812 3.5156v-0.003906c3.6289-4.9922 7.6484-9.6875 12.027-14.039 8.5195-8.2695 16.402-17.172 23.582-26.629 2.9922-3.2891 5.4805-7 7.3906-11.02 3.2383-5.4219 7.3398-10.277 12.145-14.379 0.48828-0.55859 1.1602-0.92188 1.8945-1.0195 2.1992 0.25781 4.4102-0.36328 6.1484-1.7344s2.8633-3.375 3.1211-5.5742c0.96875-4.0703 5.6211-3.1133 9.3828-1.3047-2.4453-7.2656-1.6914-9.707 3.0781-10.902 2.0977-0.52734 4.332-0.93359 5.7969 1.5078 1.6211 1.9883 1.4883 4.875-0.30078 6.7109-7.1289 6.418-11.504 15.266-19.031 21.293-0.83594 0.87109-1.8125 1.5938-2.8867 2.1406-3.7031 1.2109-6.0469 2.7734-6.1641 7.4727v0.003906c-0.25781 2.082-1.4727 3.9297-3.2852 4.9922s-4.0195 1.2227-5.9648 0.42969c-3.6992-1.4688-5.2969 0.078125-7.3047 2.3984-8.8555 10.25-17.516 20.691-26.789 30.551v0.003906c-4.5117 5.0352-8.6367 10.398-12.344 16.051-2.1875 2.8906-3.3281 6.4375-3.2383 10.059 0.42969 12.867-1.5742 25.621-1.875 38.465h0.003906c-0.46484 3.375 1.3789 6.6445 4.5078 7.9922 7.3906 4.1484 14.379 8.9844 20.867 14.445 5.4219 4.3984 6.4961 4.1406 11.773-0.56641 4.1562-3.707 8.1797-7.5742 12.426-11.172v-0.003907c1.2617-0.74219 2.1641-1.9766 2.4844-3.4062 0.32422-1.4297 0.042968-2.9297-0.77734-4.1445-4.3125-8.0195-4.8555-17.539-1.4844-25.996 0.94141-2.7539 1.3789-5.6523 1.3008-8.5625-0.10547-1.2852 0.82812-2.4219 2.1094-2.5664 0.61719-0.0625 1.2344 0.125 1.7148 0.52344 0.47656 0.39453 0.77734 0.96875 0.82812 1.5898 0.97266 9.3984 9.1523 15.938 9.2188 26.48l-0.003906-0.003906c3.6836-2.0508 6.8438-4.9297 9.2266-8.4023 7.0859-8.9297 12.258-19.219 15.203-30.227 1.0625-5.9609 1.5078-12.016 1.332-18.066-0.10547-10.027 3.8477-19.672 10.961-26.738 7.75-8.0742 17.461-13.914 24.551-22.629 0.76953-1.3359 2.4414-1.8438 3.8242-1.1641 1.6133 0.94922 0.92578 2.5078 0.46094 3.875-3.7734 11.035-4.9062 22.668-7.6562 33.945h-0.003906c-1.2539 6.2109-4.5625 11.824-9.3945 15.93-3.5391 2.9062-7.2305 5.6328-10.934 8.3281-4.1992 2.5078-7.5195 6.2461-9.5156 10.711-6.1758 15.824-15.625 30.164-27.73 42.078-7.5781 8.0781-17.004 13.828-24.652 21.68-0.50391 0.51562-1.125 0.91797-1.6797 1.3867-4.8477 4.1211-5.0078 4.3398-0.13281 7.8906 7.918 6.1328 13.68 14.629 16.445 24.254 2.5391 7.543 4.2539 15.371 6.25 23.094 1.3906 5.3828 1.7695 5.8672 6.6211 2.7539 4.8047-3.0859 11-4.1094 14.371-9.3867v0.003906c0.31641-0.36328 0.73047-0.62891 1.1953-0.76562 13.262-5.3203 21.57-15.809 28.762-27.488 3.3008-5.3594 6.6758-10.672 10.066-15.973h-0.003906c1.7383-1.8477 1.7188-4.7344-0.042969-6.5586-0.18359-0.16016-0.33203-0.35938-0.42969-0.58203-1.9648-7.8008-2.6719-15.863-2.0938-23.887 0.078124-3.8672 4.1133-5.6992 7.6562-6.8594 2.5547-0.66406 4.9609-1.8203 7.0742-3.4023 2.832-2.3555 6.668-3.0977 10.172-1.9688 3.5039 1.1289 6.1875 3.9727 7.1133 7.5352 1.0938 3.6289 0.74609 7.793 4.6289 10.168 0.48438 0.29688 0.63672 1.2773 0.76953 1.9766v-0.003906c-0.42969 8.6602-4.4922 16.734-11.195 22.238-2.7734 1.6445-6.2617 1.4531-8.8398-0.48438-1.7852-1.3945-4.1133-1.8984-6.3164-1.3633-2.2031 0.53125-4.0391 2.043-4.9883 4.1016-2.9297 5.0078-5.6094 10.164-8.5469 15.168-2.0273 3.5859-4.2578 7.0469-6.6836 10.371-2.4258 3.2148-5.3086 6.0859-8.668 9.8711 11.73-0.23438 19.871 6.1484 28.605 11.09 1.6523 0.93359 3.6836 1.9844 3.1484 4.3633-0.55469 2.4492-2.8789 2.1133-4.7539 2.418-6.9219 1.1289-13.809 2.5-20.762 3.3828-3.8906 0.21094-7.7656-0.60938-11.234-2.3789-15.887-6.6602-10.359-5.7812-24.781 0.52344-3.3203 0.95312-6.1875 3.0781-8.0703 5.9766-1.8828 2.8984-2.6562 6.3828-2.1797 9.8047 0.89062 13.398-2.918 26.41-4.7656 39.57-1.2734 8.8945-3.9922 17.523-8.0547 25.543-1.5977 2.9766-1.8281 6.5-0.63281 9.6602 2.9531 7.7109 4.043 16.008 3.1797 24.219-2.6523 11.164-10.582 20.328-21.246 24.559-4.1641 1.2812-8.4531 2.1055-12.793 2.457-1.457-0.10547-2.9219 0.097656-4.293 0.60156-8.0859 4.6719-14.344 0.37109-21.285-3.332-10.691-4.6367-20.262-11.52-28.062-20.18-8.0977-10.109-12.328-22.777-11.918-35.727 0.59375-4.8477 2.4102-9.4609 5.2852-13.41 2.0625-3.0312 2.2852-6.957 0.58203-10.207-1.9883-4.4453-3.0078-9.2578-2.9961-14.125 0.25781-3.2773-2.1602-6.1562-5.4336-6.4609-8.9727-2.0703-17.609-5.3867-25.66-9.8555-10.059-5.9688-18.305-14.562-23.855-24.855-1.6211-3.7891-5.1172-6.4414-9.2031-6.9766-3.1328-0.42969-6.082-1.7344-8.5117-3.7578-2.4297-2.0273-4.2422-4.6953-5.2305-7.6992-5.2109-11.504-8.0781-23.934-8.4375-36.559 0.03125-4.1328-0.67578-8.2383-2.0859-12.121-0.30078-0.53516-0.36328-1.1719-0.17188-1.7578 0.1875-0.58594 0.61328-1.0625 1.168-1.3242 0.55078-0.28516 1.1914-0.33594 1.7773-0.14062 0.58984 0.19531 1.0742 0.62109 1.3398 1.1797 5.0352 9.4805 14.324 14.996 21.164 22.793 6.8281 7.918 10.473 18.098 10.227 28.555-0.45312 9.2148 2.5508 18.27 8.4258 25.383 10.148 11.512 23.801 19.371 38.855 22.359 4.4531 0.94531 4.8594 0.70313 5.4219-4.0312 1.9883-16.477 9.1992-31.879 20.578-43.957 2.6641-2.1875 3.4531-5.9297 1.8945-9.0039-5.4102-13.051-7.2188-27.316-5.2344-41.305 0.5-3.6172-0.15234-7.3008-1.8594-10.531-1.8359-3.4141-3.2734-7.0312-4.2773-10.777-1.0195-3.8008-3.9609-6.7891-7.7461-7.8633-12.348-4.832-12.441-4.8906-20.828 5.9219h0.003907c-3.0469 3.9609-7.1836 6.9414-11.906 8.5742-4.7188 1.6328-9.8164 1.8438-14.656 0.60938-4.6133-0.77344-5.2578-2.2969-2.5898-6.4219 3.9492-7.5742 10.465-13.496 18.383-16.699 0.79297-0.44531 1.5273-0.99219 2.1797-1.6289zm79.289 129.12c15.762-7.1875 30.727-13.957 45.641-20.844 4.8281-2.2305 5.418-3.2539 4.0664-8.543-1.918-7.5-4.1797-14.914-6.4414-22.32v-0.003906c-2.6719-9.6523-8.3867-18.191-16.297-24.336-4.6641-3.5547-4.6953-3.8008-9.2148-0.375-6.3633 4.8203-12.422 10.098-19.09 14.438h-0.003907c-3.5391 2.1602-5.4414 6.2266-4.8398 10.328 0.3125 15.539 2.9609 30.832 4.5781 46.234h0.003906c0.37891 1.8477 0.91406 3.6602 1.5977 5.4219zm36.113 55.438c1.2734-2.3867 1.7422-3.2227 2.1719-4.082 6.4688-12.996 7.5703-27.352 10.422-41.262l-0.003907-0.003906c1.4883-7.8398 2.1133-15.82 1.8672-23.801-0.070313-4.5-0.64844-4.8359-4.6016-3.125-9.2969 4.0273-18.598 8.0625-27.812 12.273-4.5977 2.1016-9.0508 4.5391-13.496 6.957-2.1406 0.76953-3.418 2.9609-3.0352 5.2031 0.94531 5.2188 1.8008 10.457 2.6758 15.688 0.34375 2.668 1.9336 5.0195 4.2812 6.332 5.9375 3.7422 11.34 8.2773 16.047 13.484 3.6641 3.8047 7.2031 7.7266 11.484 12.332zm-44.199 42.047c2.3594-19.496 3.0156-39.16 1.9609-58.77-0.42188-11.32-0.50781-11.312-11.711-14.582-0.69922-0.19141-1.3828-0.45312-2.0273-0.78516-3.8203-2.0469-8.5742-0.83203-10.941 2.8008-2.8008 3.0156-5.418 6.2188-8.3516 9.0938-2.7305 2.1484-3.4531 5.9805-1.6992 8.9805 6.8516 14.684 14.688 28.891 23.457 42.516 2.2031 4.2695 5.3984 7.9531 9.3125 10.746zm-19.367-136.3c-1.3203 0.85938-2.5547 1.8438-3.6836 2.9414-8.2891 10.09-14.156 21.941-17.148 34.648-0.53906 2.3359-0.83594 4.7227-0.89062 7.1172 0.019531 5.0312 0.65625 5.6641 5.5625 6.7891h0.003906c3.8047 0.63281 7.5664 1.5117 11.254 2.6367 4.1914 2.0977 9.2695 1.0781 12.32-2.4805 3.2617-3.4258 10.02-3.9414 10.926-8.5859 0.86328-4.4258-3.3633-8.7656-5.1953-13.211-4.0273-9.7734-8.4961-19.367-13.148-29.855zm34.039 71.953c-0.41797 1.1328-0.59766 1.3711-0.56641 1.582 0.23047 1.6797 0.46094 3.3594 0.76562 5.0273v0.003906c2.8398 18 0.9375 36.434-5.5156 53.477-1.2383 3.6523-2.5938 7.2734-3.6992 10.965h0.003906c-0.44141 1.1914 0.12109 2.5195 1.2812 3.0352 0.94922 0.38672 2.0352-0.027344 2.4844-0.94531 4.1641-5.3242 8.9531-10.129 14.258-14.312 8.5117-8.2109 11.527-19.492 17.207-29.273 1.5-2.582 0.39062-4.4609-1.0117-6.6016-4.75-6.1289-10.164-11.711-16.148-16.641-2.5898-2.6602-5.6641-4.8047-9.0586-6.3125zm-52.742 11.086 0.003906 0.003906c-6.5 10.309-7.168 23.25-1.7656 34.172 5.8008 13.465 16.793 24.016 30.484 29.254 2.2031 1.0117 4.8242 3.7734 7.0742 0.90625 2.0977-2.6719-0.72656-4.8867-2.1875-6.957-8.4922-12.043-15.594-24.914-22.938-37.656-3.582-6.2227-6.6797-12.719-10.672-19.719zm57.031-337.22 0.003906 0.003907c-1.9141 0.81641-3.4531 2.3242-4.3047 4.2227-4.1172 7.1367-7.6484 14.598-10.551 22.309-2.6328 7.3398-3.3164 15.234-1.9844 22.914 0.089843 4.1328 2.0039 8.0156 5.2305 10.602 2.9883-1.0859 3.375-4.1367 5.1523-6.0234v0.003906c6.7969-7.4453 9.9805-17.492 8.7188-27.492-0.67969-8.5898-2.1523-17.129-2.2617-26.535zm-71.031 97.855c3.5117-0.82812 6.5977-2.4141 7.0391-6.7891 0.17188-1.7031 0.95312-2.7227 2.7031-2.6445h0.003906c1.5156-0.011718 2.8047 1.1016 3.0117 2.6016 0.16406 1.1914 0.40625 2.3711 0.72266 3.5273 0.17969 0.58594 0.58594 1.0742 1.1328 1.3516 0.54687 0.27734 1.1797 0.32031 1.7578 0.12109 2.3945-0.58594 4.3555-2.3008 5.2539-4.5977 0.88672-2.0703-0.86719-2.8203-2.0977-4.0039-2.4727-2.3672-2.1758-3.2617 0.96875-4.1602 0.22266-0.0625 0.49609 0.054688 0.71875-0.003906 3.8594-1.2969 6.3242-5.082 5.9492-9.1367-1.1719-4.6016-4.0352-1.3828-6.3008-1.1172-2.6836 0.31641-3.8164-1.3789-2.8047-4.1016 0.39062-0.87891 0.85547-1.7266 1.3828-2.5352 1.6406-2.8906-0.058593-3.9297-2.5156-4.4766-4.6445-1.0352-6.6406 0.625-7.1562 6.1719-0.15625 1.6797 0.32812 3.5898-1.5703 4.4336-2.0078 0.89453-3.0508-0.60938-3.9922-2.1094v0.003906c-0.39453-0.60547-0.87109-1.1484-1.418-1.6211-1.7852-1.3945-4.2852-1.418-6.0977-0.054687-2.6328 1.4062-4.1797 4.2461-3.9336 7.2227 0.074219 2.3477 2.0664 2.9805 4.2188 2.9297 1.2617-0.03125 2.5664 0.21094 2.7422 1.6875 0.16016 1.3164-0.82031 2.1875-1.9219 2.7969-1.1133 0.44141-2.1719 1.0156-3.1484 1.7148-2.0664 2.1914-2.3594 5.5156-0.70703 8.0352 0.78516 2.7227 3.2266 4.6406 6.0586 4.7539zm147.59 33.156c7.6406-7.8789 17.777-10.652 21.406-20.637 3.457-9.543 5.3477-19.578 5.6055-29.719-5.5938 4.0508-10.844 8.5508-15.703 13.457-10.473 9.5273-13.375 21.289-11.309 36.895zm-99.992 71.293c-0.57812-2.0508-0.61719-4.2109-0.10938-6.2812 0.56641-6.7695 0.57031-6.7656-5.4883-9.5547-0.875-0.40234-1.707-0.89844-2.5977-1.2695-8.0312-3.3477-10.039-2.0664-10.539 6.7266-0.21094 1.9297 0.046875 3.8828 0.75391 5.6914 4.9492 10.969 9.6211 22.055 13.73 33.371 0.60156 1.6523 1.2266 3.3789 3.3516 3.0742 2.3125-0.33203 3.0078-2.0977 2.9258-4.2539h0.003906c0.089844-2.168 0-4.3398-0.27734-6.4922-1.4141-6.9102-2.0039-13.961-1.7539-21.012zm133.32-24.891c-2.8203 0.53125-3.9922 2.5508-5.1211 4.8008-0.90234 1.7969-0.91406 3.8398 0.55859 4.5664 5.0234 2.4766 4.6406 5.1094 1.0703 8.5586v-0.003906c-1.1602 1.3438-1.3047 3.2852-0.35938 4.7891 0.33984 0.62109 0.72656 1.2109 1.1602 1.7734 2.2539-4.9531 5.1406 0.71094 7.1836-0.36328 3.6914-1.9375 4.4336 0.54687 6.0703 2.7578 2.25 3.043 4.9062 2.9961 8.1836 0.53906 3.0156-2.2578 3.2695-4.375 0.23047-6.9961-2.3164-2-2.0742-3.9141 1.3906-4.0703 0.97656 0.035156 1.9297-0.32422 2.6406-1 0.70703-0.67578 1.1133-1.6133 1.125-2.5898 0.28516-2.0156-1.2031-3-2.8438-3.7109-0.44531-0.19141-0.93359-0.28906-1.3633-0.50781-2.2148-1.1289-3.2656-2.1875-1.6094-5.0312 2.4727-4.2383 1.125-6.9453-3.5-8.9023-3.6523-1.5469-6.2383-0.59375-7.6992 3.9688-1.1094 3.457-1.9492 4.918-5.168 2.0703l-0.003906 0.003907c-0.60156-0.33984-1.2617-0.5625-1.9453-0.65234zm-254.75 37.312c-1.043 8.1719-0.12891 16.473 2.668 24.223 1.2305 5.1719 3.2734 10.113 6.0547 14.645 2.6016 4.168 7.1055 6.7734 12.016 6.9492 1.582 0.125 3.1602-0.47266 2.7852-2.3594-1.0898-5.4492 0.058594-11.008-1.3828-16.496-3.1914-12.121-12.734-18.629-22.141-26.961zm170.02 145.27c-4.9492 7.4375-9.5156 15.121-13.68 23.023-5.1836 7.6445-14.184 11.648-18.102 20.332 23.223 5.5547 43.41-18.102 31.781-43.355zm-16.301-149.42c-8.3711-5.9219-15.371-12.133-23.504-16.84-4.3594-2.5195-4.7539-2.2773-5.3047 3v0.003907c-0.34375 9.8789 0.19922 19.77 1.625 29.551 0.17188 2.332 1.6133 2.9844 3.4648 1.6484 7.7812-5.6094 15.488-11.32 23.719-17.363zm-30.715-66.004c-6.0156 6.6992-10.594 14.562-13.449 23.098-3.3516 10.77-2.7617 11.973 7.625 15.508 0.22656 0.078125 0.44922 0.17578 0.67578 0.24609 2.6172 0.78516 4.293 0.18359 4.1836-2.9141-0.19922-5.8047 1.2305-11.52 1.2422-17.242v0.003907c0.72656-6.2188 0.63281-12.504-0.27734-18.699zm2.5547 141.14v0.003907c0.9375-14.32-1.543-28.656-7.2422-41.824-9.082 4.9766-9.8008 6.4648-5.5391 14.57 2.7188 5.168 4.3672 10.746 6.9336 15.953 1.418 4.0195 3.3828 7.8203 5.8477 11.301zm-22.566-77.734-0.003906 0.003906c-1.8984 6.4922-2.2305 13.344-0.97656 19.992 0.94141 4.9961 2.5938 9.8359 4.918 14.359 0.66797 1.4336 1.4414 2.5859 3.2656 1.7773h-0.003906c1.8711-0.73047 3.3555-2.207 4.0938-4.0742s0.66406-3.957-0.19922-5.7695c-1.4648-3.5664-2.7539-7.1836-4.0039-10.832-2.082-5.2773-4.4492-10.438-7.0938-15.453zm114.55 50.25c10.285 8.543 20.828 5.7344 32.047 3.168-9.1484-10.41-20.594-11.352-32.051-3.1641zm-151.89-90.629c-9.5781-0.11719-18.637 4.3477-24.379 12.02-0.78516 1.1172-2.1055 2.2266-1.1289 3.8008 0.92969 1.5078 2.5391 1.082 3.9414 0.99609 10.375-0.62109 16.223-7.2305 21.566-16.816zm37.734 145.21c-5.8047-1.3789-10.848-2.625-15.914-3.7617-1.8594-0.41797-2.6719 0.60156-2.5117 2.4062 0.19531 5.4961 1.6133 10.883 4.1445 15.766 5.2812-4.2617 10.07-9.0938 14.281-14.41zm76.863-152.52c-3.4805 6.5703-3.5977 14.418-0.30859 21.09 0.52344 1.3711 1.0156 3.0586 2.6641 3.0156 2.1133-0.058594 2.4336-2.168 2.7734-3.7227v-0.003906c1.6094-7.2227-0.29297-14.777-5.1289-20.379zm-47.355 216.46c5.3281-11.758 6.7891-35.078 2.4648-41.082-0.57422 14.062-1.3164 27.52-2.4648 41.078zm-18.633-65.234c3.0391 1.7734 6.3555 3.0273 9.8125 3.7031 0.93359 0.35156 1.9883 0.074219 2.6289-0.6875 0.79688-3.2539 0.64062-6.668-0.44531-9.832-0.88672-0.89844-2.3008-1-3.3008-0.23438-3.625 1.2734-6.6992 3.7656-8.6953 7.0508zm-87.957-159c0.36719-0.78516 0.83203-1.7852 1.3047-2.7773 0.78906-1.6562 2.3125-3.25 0.48047-5.1406-0.66016-0.74219-1.7539-0.90234-2.5938-0.38281-1.6211 1.1016-2.3828 3.0938-1.918 4.9961 0.13672 1.3242 0.21875 2.9453 2.7266 3.3047zm72.82 33.375c3.0391-3.4141 2.207-5.3477-2.0195-6.5156l0.003906 0.003906c-0.6875 2.3789 0.10547 4.9375 2.0195 6.5156zm93.473-121.23c0.14844-1.6133-0.87109-2.2227-2.1172-2.2656v-0.003906c-0.47656-0.0625-0.95703 0.070312-1.332 0.375-0.375 0.30469-0.60938 0.74609-0.64453 1.2266-0.070312 1.2305 0.24609 2.457 1.668 2.6797 1.4609 0.23047 1.957-0.99219 2.4258-2.0117zm-68.996 178.81c1.293-0.61328 0.82812-1.8789 0.87109-2.8828 0.039063-0.90234-0.17969-2.0039-1.4883-1.7344-1.5312 0.31641-1.3867 1.625-1.207 2.7422v0.003906c0.085938 0.97656 0.84766 1.7578 1.8242 1.8711zm59-165.84c-0.1875-0.85938-0.59766-1.3555-1.4492-1.043-1.3203 0.48828-2.9766 0.73047-2.9766 2.6133 0 0.76562 0.85547 1.1797 1.5469 1.0703 1.4844-0.042968 2.7109-1.168 2.8789-2.6406zm-178.5 34.137c-0.19922-0.43359-0.41797-1.5312-0.77734-1.5781-0.97656-0.125-1.875 0.54297-2.043 1.5117-0.125 0.32422-0.10547 0.6875 0.054688 0.99609s0.44922 0.53516 0.78906 0.61328c0.97656 0.19531 1.8516-0.058594 1.9766-1.543z"/>
  <path d="m291.86 162.61c0.29297-2.2383 2.3398-3.8125 4.5781-3.5273 1.9102 0.09375 2.8086 1.7148 2.6406 3.6211l-0.003906 0.003906c-0.042969 2.0391-1.6445 3.7031-3.6836 3.8203-2.1133 0.082031-3.375-1.5664-3.5312-3.918z"/>
  <path d="m472.43 272.96c-0.074219-0.63281 0.13281-1.2656 0.57031-1.7305s1.0586-0.71094 1.6953-0.67578c0.97656-0.17188 1.9766 0.14062 2.6797 0.83594 0.70312 0.69922 1.0234 1.6953 0.85547 2.6719-0.058594 1.293-0.77344 2.4609-2.1445 2.4453-2.293-0.03125-3.3008-1.6328-3.6562-3.5469z"/>

 </g>
</svg>
