<?xml version="1.0" encoding="UTF-8"?>
<svg

fill="blue" 
style="filter: drop-shadow(0 0 0 rgba(0, 0, 0, 1));"

width="700pt" height="700pt" version="1.1" viewBox="0 0 700 700" xmlns="http://www.w3.org/2000/svg" xmlns:xlink="http://www.w3.org/1999/xlink">
 
 <g>
  <path d="m492.39 208.64-1.793 6.3984 6.4102-0.92578-3.2773 6.4258c3.0312 0.074219 5.7891 0.14453 9.7969 0.24219-3.6211 4.125-2.8164 9.3555-7.5625 11.527l0.003906-0.003906c-0.75391 0.81641-1.2734 1.8242-1.5078 2.9102-4.418 9.5-9.7734 12.16-19.926 9.8867-0.63672-0.14453-1.2891-0.23047-2.2109-0.39453-7.1797 7.0977-12.777 15.633-16.426 25.047-0.82813 3.4023-1.3242 6.8789-1.4805 10.379-0.13672 1.2969-0.40234 2.5742-0.78516 3.8203-2.9258 9.9844-7.2227 19.516-12.758 28.324 8.5898-3.0312 17.355-5.6562 25.723-9.2148l-0.003906 0.003906c6.8281-3.4844 12.719-8.5508 17.191-14.773 2.2812-3.4258 5.9062-5.7305 9.9766-6.3398-0.54297 2.4961-0.96484 4.3125-1.332 6.1406-1.4062 5.1719-2.418 10.441-3.0273 15.766-0.30469 7.5859-2.6875 14.941-6.8867 21.27-4.1953 6.3242-10.047 11.379-16.918 14.609-12.035 5.7812-25.672 7.3359-38.703 4.4141-3.5117-1.5-6.707-3.6406-9.4297-6.3203l-19.711 20.203c2.9727 5.3398 8.7383 5.9414 12.586 9.1953-3.875 1.2539-3.875 1.2539-15.609-5.7188-13.328 12.973-23.273 29.023-28.961 46.734 7.2148-5.4336 13.148-10.586 19.738-14.676 6.8125-4.2266 14.262-7.4258 21.582-11.148 0.47266-1.5586 1.082-3.2422 1.4883-4.9727v-0.003907c0.53125-3.4688 3.3438-6.1445 6.8359-6.5 3.0859-0.51172 5.8398-2.2266 7.6641-4.7656 2.6445-2.9102 5.7578-5.3945 9.4961-8.8242 1.1836 6.75-4.4453 8.4766-5.8516 12.707 4.4297 2.1484 8.2695-2.7812 12.492-1.4297 1.2656 3.5742-2.5625 3.9648-3.2656 6.3984 3.9453 1.543 1.543 4.5859 1.457 7.6445h0.003906c-4.5977 0.10547-9.043 1.6641-12.699 4.457-4.2031 2.4492-9.2734 4.8125-14.18 0.14063v-0.003907c-1.5625-0.76562-3.3828-0.81641-4.9883-0.14062-8.9219 3.0977-17.262 7.6602-24.68 13.504-5.5586 4.5195-10.84 9.4062-15.996 14.387-1.7383 1.7344-3.0469 3.8555-3.8125 6.1914-4.918 16.648-5.2266 34.32-0.89844 51.133 1.1836-3.6328 1.9531-5.8711 2.6445-8.1367h-0.003906c5.4297-16.059 15.496-30.148 28.934-40.488 4.9805-4.1875 10.008-8.332 15.207-12.242v0.003907c3.4648-2.5117 6.0391-6.0586 7.3516-10.129 0.23828-3.2383 2.4922-5.9727 5.6211-6.8281 0.90625 1.0469 1.3594 2.4102 1.25 3.7891-0.10547 1.3789-0.76172 2.6602-1.8164 3.5508-6.8867 9.3945-8.5547 20.438-11.203 31.363-2.2148 12.648-6.9258 24.727-13.855 35.535-2.8633 3.7031-6.2227 6.9922-9.9805 9.7852-6.4922 5.0703-13.332 9.6953-20.031 14.512v0.003906c3.0664 13.094 8.7695 25.43 16.754 36.254-2.832-0.36719-5.2734-2.1641-6.4688-4.7539-5.9336-8.4922-10.266-17.992-12.781-28.039-2.5273-9.7852-4.5039-19.699-5.9297-29.703-0.98828-9.3516-1.4531-18.758-1.3984-28.164 0.57031-3.3164-1.1172-6.6133-4.1406-8.0977-16.277-8.6211-28.008-33.809-22.562-52.672 2.3438-8.125 3.1289-16.699 4.6758-25.059 0.39844-0.86328 0.91016-1.6758 1.5234-2.4062 1.1484 1.8047 2.043 3.1641 2.8945 4.5508 3.0391 4.9336 6.0977 9.8555 9.0898 14.816 3.457 5.7305 7.2266 11.312 10.18 17.293h0.003906c3.4297 6.9766 3.4375 15.148 0.023438 22.137-2.4375 5.5156-2.2773 5.8242 1.043 12.898 7.8672-23.438 16.902-45.496 35.168-62.52-3.793-4.1367-6.957-7.8672-10.461-11.25l-0.003907 0.003906c-1.3281-1.0312-2.9648-1.582-4.6445-1.5625-8.0586-0.21094-16.125-0.14453-24.188-0.26562-13.281-0.52734-25.465-7.5117-32.625-18.707-4.4805-5.0703-7.5469-11.23-8.8945-17.859 1.4648 0.33984 2.8633 0.91406 4.1445 1.707 5.1055 4.5977 12.016 6.6523 18.805 5.5898 9.6758-1.2969 19.473 1.2266 27.316 7.0312 0.40234 0.17188 0.83594 0.25781 1.2734 0.25781-3.3672-7.6289-6.5859-15.328-10.203-22.836-1.0742-1.9688-2.7344-3.5508-4.75-4.5312-6.7773-3.4453-13.723-6.5508-20.816-9.2969-5.2695-1.6523-10.637-2.9961-16.066-4.0234-8.6914 7.957-13.551 9.4844-21.812 1.9102-4.5898 0.39844-8.9727 0.77734-13.355 1.1562 2.9922-2.9805-2.9609-7.2266 1.875-9.4062l-4.9336-5.4023 6.0547-6.5391c1.4102 0.83984 2.8633 1.6094 4.3555 2.3008 1.1016 0.60156 2.3594 0.85938 3.6094 0.74609 9.8086-2.6367 16.105 3.2852 22.535 8.9805 1.2031 1.5117 2.7148 2.7461 4.4375 3.6211 12.375 2.2148 24.219 6.7656 34.887 13.418l1.0469-0.92188c-1.4648-6.1211-2.9297-12.242-4.3438-18.145h0.003906c-0.46094-0.32422-0.98438-0.53906-1.5391-0.63281-6.3281 2.4766-13.395 2.2773-19.578-0.55469-2.7617-0.92969-5.4492-2.082-8.1719-3.1289v0.003907c-7.7656-2.7422-13.82-8.9375-16.375-16.766-1.5156-4.4453-2.7383-9-3.8711-13.559-0.015625-2.9414-1.3047-5.7266-3.5312-7.6406-0.5625-0.82031-0.73047-1.8477-0.45312-2.8047 0.99219-0.67578 2.2188-0.92188 3.3984-0.67578 3.0352 2.3164 6.6445 3.7656 10.441 4.1836 3.6055 1.2383 7.2148 2.4688 10.789 3.7969 12.48 4.5078 22.055 14.707 25.762 27.449 0.53125 1.0117 1.1406 1.9805 1.8242 2.8984-0.41016-16.164-0.78516-30.938-1.1758-46.16-17.508 0.875-34.34-6.8789-45.051-20.754-4.3359-4.1445-6.3984-10.133-5.5312-16.066 14.277 1.793 27.59 4.8164 37.98 15.34v0.003906c4.2305 3.7305 7.2578 8.6328 8.6992 14.086 0.15625 0.63672 0.46875 1.2266 0.90234 1.7188 0.60547 0.3125 1.2617 0.51172 1.9375 0.59375 0.15625-1.6914 0.21875-3.3945 0.18359-5.0977-1.418-20.18-10.734-38.984-25.93-52.336-6.2031-6.5078-13.438-11.949-21.41-16.109-1.5625-0.69531-3.4648-2.9805-4.9531 0.32812h0.003906c-1.1836-0.13281-2.3086-0.57422-3.2617-1.2852-3.4805-4.0508-9.1641-5.418-14.105-3.3945-4.9883 0.26953-9.5586 2.8789-12.328 7.0352-0.42578 0.76562-1.0352 1.4141-1.7656 1.8945-3.7852 2.2344-6.6875 5.6953-8.2266 9.8086-1.5391 4.1172-1.6211 8.6328-0.23437 12.805 0.50781 0.33594 1.0781 0.56641 1.6797 0.67578 10.637-0.41016 14.336 4.5859 16.367 13.277 1.0195 4.3672 2.0625 8.7539 3.4727 13.004 1.3203 5.7656 4.8633 10.777 9.8594 13.945 0.98828 0.83203 1.8555 1.7969 2.5781 2.8633-0.96094 0.375-1.9727 0.58203-3.0039 0.61719-4.2031-1.4219-8.4922-2.582-12.844-3.4727-13.863-1.7695-19.961-11.578-24.691-22.961-1.0938-2.6289-1.8828-5.3867-2.875-8.2656 0.29688-0.48438 5.582-16.816 5.7461-17.793 0.22266-1.3242 0.53125-2.6367 0.76562-3.9609 0.22266-1.2617 0.39453-2.5312 0.69922-4.5v0.003906c-2.8203 0.21094-5.6211 0.63672-8.375 1.2812-7.7891 2.7227-16.422 1.4375-23.082-3.4336-6.9102-4.8945-13.098-10.812-19.566-16.324l-0.003906 0.003906c-0.21484-0.5625-0.30859-1.1641-0.28125-1.7656 0.92188-0.36328 1.9219-0.48438 2.9023-0.34766 4.0508 1.9805 8.625 2.6328 13.066 1.8594 9.3984-0.39844 18.812-0.57422 28.223-0.66016 6.707-0.011718 13.246 2.0781 18.707 5.9766 6.0742-2.0859 11.977-4.1133 17.703-6.082-4.2734-7.1133-8.8984-14.438-13.121-21.992-1.8594-3.8984-5.4375-6.6992-9.668-7.5703-5.0508-0.86328-9.0117-4.8086-9.8945-9.8516-1.2266-4.9844-3.3164-9.7148-6.1719-13.98-0.33594-1.0508-0.50781-2.1445-0.51172-3.25l4.6602 2.1758 0.64062-7.0859 6.1875 6.5156 2.4609-6.3828c3.707 0.23047 6.8359 2.8398 7.7266 6.4492 0.72266 1.3555 1.7031 2.5586 2.8867 3.5469 1.8438 2.2383 3.5 4.625 4.9531 7.1367 3.1758 5.7383 2.0078 12.902-2.8242 17.336 4.4609 6.9922 8.6094 14.16 13.438 20.84v-0.003906c3.2578 4.582 7.8164 8.0742 13.086 10.031 6.0898 2.8281 11.949 6.1289 17.52 9.8789 0.70312 0.40625 1.4336 0.76172 3.3047 1.75-3.4883-14.922 0.64453-29.348-3.2969-43.863 1.1562 1.0586 2.4062 2.0312 3.4492 3.1875 4.0469 4.4844 7.8516 9.2031 12.078 13.512l-0.003906-0.003906c9.4961 9.3008 13.676 22.75 11.121 35.793-0.70312 4.3945-1.7578 8.7383-2.3164 13.148-0.03125 1.5078 0.40625 2.9883 1.25 4.2383 7.7773 13.488 11.898 28.77 11.957 44.34 0.51172 14.797 0.76172 29.602 1.5547 44.383v-0.003907c0.52734 6.543 1.625 13.031 3.2891 19.379 2.3008-16.438 8.0234-32.215 16.801-46.305 0.33594 1.0898 0.48047 2.2305 0.42969 3.3711-0.85938 4.4062-0.55469 8.9609 0.88672 13.211 3.1094 11.223 8.6289 21.758 9.6211 33.578 0.1875 2.2344 0.64062 4.4531 0.73828 6.6914 0.65625 6.8594-2.2891 13.562-7.7773 17.727-1.6367 1.1719-3.168 2.4922-4.5703 3.9375-1.7031 1.5977-1.9492 4.2148-0.57422 6.1055 7.7539 12.727 17.281 24.285 28.289 34.324 6.457-6.875 13.293-12.875 19.066-19.969 1.3906-1.707 2.8477-3.3594 4.3047-5.0078l0.003907-0.003906c0.90625-0.625 1.6602-1.4492 2.207-2.4102 0.77344-5.7266 5.7109-7.5234 9.3281-10.77h-0.003906c9.7422-8.4414 16.586-19.73 19.566-32.27 0.13672-2.3906-0.16406-4.7891-0.89453-7.0703-12.891-5.2344-25.164-11.871-36.602-19.793-5.3047-3.7695-10.602-7.543-15.898-11.324h0.003906c-3.6641-2.4727-6.5781-5.9023-8.4336-9.9102-1.8555-4.0117-2.582-8.457-2.0938-12.848 0.83984-6.4297 2.1094-12.797 3.7891-19.062 0.50391-0.93359 1.1602-1.7773 1.9453-2.4922 0.86328 2.0078 1.4453 3.3516 2.0156 4.6992v-0.003906c1.6875 4.2031 4.625 7.7812 8.4102 10.258 5.4492 3.9609 11.207 7.4688 17.227 10.492 5.9375 2.5 11.094 6.5508 14.938 11.723s6.2305 11.277 6.9102 17.688c1.3516 6.1367 4.5977 11.691 9.2852 15.883 0.42187-1.3906 0.67578-2.8242 0.74609-4.2734-1.2578-11.852-4.7734-23.355-10.359-33.887-4.3867-8.0742-8.6094-16.242-12.914-24.359-0.33594-0.83594-0.79688-1.6133-1.3711-2.3086-6.5156-6.8047-12.152-14.398-16.785-22.602-1.6406-2.0156-3.4922-3.8477-5.5234-5.4648-0.48438 2.1875-1.082 4.3477-1.7891 6.4727-0.67969 2.4336-2.5273 4.3672-4.9258 5.1562-2.3984 0.78906-5.0312 0.33203-7.0234-1.2188-3.0312-1.8789-5.8008-4.1836-8.8281-6.0742v-0.003906c-1.9219-1.0859-3.9258-2.0312-5.9922-2.8203-2.6133-1.1289-5.2578-2.1797-8.2227-3.4062 0.16797-1.4688 0.67969-2.875 1.5039-4.1055 3.9844-1.7461 0.60156-7.2539 4.6953-8.9727v0.003906c-0.34375-1.8281-0.82031-3.625-1.4297-5.3828 4.1445 0.60547 4.1445 0.60547 8.4766 5.3945 7.5547-2.7188 13.051 1.0117 17.871 6.6484 1.082 1.4297 2.4375 2.6289 3.9883 3.5312 6.3516 3.4766 11.406 8.9141 14.414 15.5 0.93359 1.8281 2.3555 3.3633 4.1055 4.4336-0.066406-0.98828-0.21484-1.9727-0.44531-2.9375-2.5117-8.6562-3.125-17.754-1.793-26.668 0.48828-3.082-0.66406-6.1992-3.0391-8.2227-8.6758-8.8789-14.957-19.816-18.258-31.781-1.9492-7.7109-1.0391-15.871 2.5664-22.961 1.8008-4.1055 3.832-8.1211 5.9961-12.051v0.003907c3.0586-3.9414 4.0898-9.0898 2.7852-13.902 3.5625 1.5195 6 4.8789 6.332 8.7422 2.5234 9.3125 4.8047 18.691 7.1914 28.043 0.4375 1.7109 0.93359 3.4102 1.7344 6.3281 0.95703-2.1211 1.5352-3.1289 1.8789-4.2148 2.2539-9.1719 6.1602-17.855 11.523-25.633 1.5-1.707 1.8906-4.1211 1.0117-6.2188-0.55859-1.9414-1.0078-3.9102-1.332-5.9062-1.4375-5.5117-0.98047-11.352 1.2891-16.574 2.2734-5.2266 6.2305-9.543 11.242-12.254 8.9922-4.9922 18.273-9.4492 27.789-13.344 4.4258-2.0664 8.8711-4.0977 13.379-5.9766 1.3438-0.38281 2.7305-0.60156 4.125-0.64844 0.21094 0.63281 0.29688 1.2969 0.25781 1.9648-4.4609 5.3203-7.4219 11.742-8.5664 18.59-1.9297 6.4375-3.8711 12.883-6.1094 19.219h-0.003906c-2.5195 7.3711-8.3203 13.152-15.695 15.648-7.7188 2.8086-15.668 4.9883-25.52 8.0703-10.191 14.793-13.73 33.699-14.695 53.539 3.7461-5.4766 7.6172-10.871 11.152-16.48h0.003907c0.66016-1.6523 0.97266-3.4219 0.91797-5.2031 0.27344-4.5234 2.0586-8.8203 5.0664-12.211 0.89453-1.2891 2.125-2.3086 3.5586-2.9531 5.2383-0.85547 9.832-3.9766 12.555-8.5312 3.6367 2.8359 6.7578 5.2656 10.211 7.957-0.61328 6.9609-6.3516 11.895-10.285 17.621-3.7656 5.9727-11.422 8.1523-17.766 5.0547-21.941 21.012-24.719 55.336-8.1094 77.297v0.003906c-0.015625-1.2383-0.125-2.4727-0.33203-3.6953-4.1523-13.785-1.7461-28.715 6.5312-40.496 2.8516-4.2969 5.9258-8.4492 8.9727-12.609v-0.003906c2.0508-2.375 3.9492-4.875 5.6836-7.4844 1.4023-3.1289 2.5625-6.3633 3.4688-9.668 0.97656 1.2812 1.7383 2.7148 2.2617 4.2422 0.47656 12.512 1.2188 25.035 1.0469 37.543l-0.003907-0.003906c-0.27734 9.1719-1.082 18.316-2.3984 27.395-1.0156 6.7891-5.0508 12.754-10.98 16.219-1.1797 0.64453-2.3125 1.3789-3.3828 2.1914-2.4727 1.7383-3.1133 5.1289-1.4453 7.6523 3.1914 6.168 6.043 12.508 8.5391 18.992 1.5352 4.6836 2.8164 9.4453 3.8398 14.266 5.3828-7.4336 10.656-14.582 15.734-21.871v-0.003906c0.68359-1.3594 1.0156-2.8672 0.95703-4.3867 0.55078-8.5781 3.1797-15.613 12.109-19.035v-0.003907c1.9688-1.3477 3.5664-3.168 4.6523-5.293 0.80859-2.7578 3.0195-4.8789 5.8086-5.5742zm-123.77 127.36 0.082031 0.082032c-5.7344-9.5938-15.945-15.621-27.117-16.016-7.9531 0.70313-15.965 0.11328-23.727-1.75 6.6953 10.516 13.227 19.051 23.836 22.738 10.207 3.0156 20.961 3.6914 31.465 1.9688zm54.34-3.0977c4 0.23828 6.875 0.51172 9.7539 0.5625v0.003906c10.125-0.38672 19.941-3.6016 28.328-9.2891 3.125-1.8203 6.2852-3.5859 9.4336-5.375l0.67188 1.2188h-0.003906c-6.8164 5.3242-14.262 9.793-22.172 13.305-8.0898 4.2422-17.074 2.9609-25.871 4.4414h0.003906c1.4297 1.6836 3.3281 2.9023 5.4531 3.5 11.969 2.2656 24.344 0.75391 35.414-4.332 5.9961-2.6445 11.188-6.8359 15.039-12.137 3.8555-5.3047 6.2344-11.535 6.8984-18.059 0.42578-5.4414 1.1289-10.863 1.7148-16.402-0.35547 0.023438-0.71094 0.097656-1.043 0.22656-0.70703 0.54688-1.3672 1.1445-1.9844 1.793-9.418 10.293-21.793 17.418-35.426 20.398-11.16 2.7773-20.656 10.078-26.211 20.148zm-14.75 82.25c-26.57 15.211-49.18 50.207-44.402 68.277 2.6914-4.3867 5.2461-8.5508 7.8008-12.715 2.5781-4.2031 5.0586-8.4727 7.7617-12.594v0.003906c2.0938-4.2383 5.1172-7.9492 8.8477-10.855-1.9766 4.4492-4.2891 8.7383-6.918 12.836-2.4258 4.0352-4.8633 8.0664-7.1758 12.168h-0.003906c-3.1836 4.043-5.3555 8.7852-6.3438 13.836 5.2422-3.5273 9.3594-6.6211 13.781-9.1836 5.2539-3.082 9.5195-7.6016 12.301-13.023 7.7656-15.219 12.633-31.75 14.352-48.75zm77.73-376.82c-3.707 1.0078-7.3633 2.207-10.949 3.5859-8.4648 3.457-16.707 7.4414-24.672 11.926-5.1094 2.9609-8.8438 7.8125-10.398 13.508-1.5547 5.6953-0.80078 11.773 2.0938 16.918 3.6328-3.3281 7.1602-6.7031 10.84-9.9023 8.3789-7.293 8.4102-7.2578 12.719-6.9727-7.3789 6.957-15.961 12.273-21.156 21.219h-0.003906c7.5508-1.8047 14.93-4.2578 22.055-7.3438 3.3945-1.7188 6.2305-4.3711 8.168-7.6484 6.1797-10.305 7.8477-22.145 11.305-35.289zm-86.207 198.56 1.1719-1.8281h-0.003906c13.438 7.0078 25.867 15.801 36.953 26.137-2.6406-13.023-6.9883-22.676-18.305-28.293-10.684-5.3008-21.645-10.504-29.363-21.625-0.66797 4.0938-1.1133 7.1562-1.6797 10.191l0.003906 0.003906c-1.1914 4.9492-0.75391 10.148 1.2461 14.828 2.0039 4.6797 5.457 8.5898 9.8594 11.148 7.2695 4.8438 14.293 10.062 21.578 14.879h-0.003906c5.3008 3.6406 11.098 6.5039 17.211 8.5039 0.96875-2.6055-0.027344-5.5312-2.3867-7-8.4648-6.5742-16.852-13.25-25.391-19.723-3.4648-2.6289-7.2539-4.8281-10.891-7.2227zm38.012-16.5c1.9492-0.19141 3.8633-0.63281 5.6992-1.3047 5.0938-2.6094 8.7227-7.3945 9.8633-13 1.4766-7.9141 2.4336-15.918 2.8711-23.961-0.12109-6.9375-0.59766-13.867-1.4297-20.762-0.26172-3.832-0.33203-7.6758-0.48438-11.516h-0.003907c-8.2461 8.4844-14.977 18.32-19.898 29.078-3.8906 10.559-3.0977 22.277 2.1797 32.215 3.2773-13.965 8.4609-27.125 9.6719-41.992h0.003906c2.4727 1.9688 3.2773 5.375 1.9492 8.2422-2.1953 8.9219-4.5586 17.801-6.7617 26.723-1.2227 4.9453-2.2461 9.9453-3.6602 16.277zm-82.477 208.8c-2.1562-4.6133-0.74609-9.5977-6.0195-11.434l0.003906-0.003906c-0.4375-0.66016-0.55078-1.4805-0.30859-2.2344 0.82812-2.8242 0.30859-5.875-1.4062-8.2695-2.8438-6.3203-5.6719-12.648-8.3438-19.043-0.29297-1.2891-0.375-2.6211-0.23828-3.9375l1.5117-0.39844c3.6094 8.1797 7.2188 16.359 11.098 25.152 3.2617-3.3125 4.707-8.0078 3.8672-12.578-1.5156-14.457-11.262-24-20.715-35.535-1.6562 7.6055-2.9102 13.719-4.3242 19.793l-0.003906-0.003906c-1.5508 9.6797 0.023437 19.598 4.5 28.32 4.4727 8.7188 11.613 15.785 20.379 20.172zm5.332-146.57 1.5195 0.76172c-0.59766 4.5703-1.1797 9.1406-1.8008 13.703-0.61719 4.5742 2.5898 8.9414 0.59375 13.695v0.003906c0.09375 1.6094 0.57812 3.1719 1.4141 4.5547 2.7188-2.1055 4.9766-3.8867 7.2656-5.6289v-0.003906c2.3633-1.7344 4.2266-4.0625 5.4023-6.7461 1.1758-2.6836 1.625-5.6328 1.3008-8.5469-0.90625-15.148-7.0078-28.707-12.391-43.09-8.0352 15.676-11.594 38.676-7.2305 47.254 0.46875-3.0117 0.69141-5.6406 1.3242-8.1641 0.66016-2.6523 1.7188-5.1992 2.6016-7.793zm58.133-133.78c0.19922-3.6523 0.27344-6.5508 0.54688-9.4297 0.19141-2 0.80859-3.957 0.98828-5.957 1.375-15.434-5.3125-29.234-8.8789-43.91-2.0234 2.4141-3.7227 5.0859-5.0508 7.9453-2.1523 4.6719-4.1523 9.418-6.0742 14.188-2.082 5.5312-1.9727 11.652 0.30469 17.109 2.0391 5.457 4.4922 10.746 7.3438 15.824 2.8008 5.1055 6.5742 9.6094 11.113 13.262 0.38281-5.6289-4.1016-7.8789-5.3828-11.648-1.3633-4.0195-3.3789-7.8242-4.6562-11.863h-0.003906c-1.3125-4.2891-2.3672-8.6523-3.1602-13.066-1.2539-4.0156-1.1719-8.3281 0.23047-12.297 1.9258 6.7227 3.1641 13.57 4.8125 20.316h-0.003906c1.4492 6.9219 4.1133 13.535 7.8711 19.527zm-79.617 119.41c-2.1016-17.469-20.051-30.227-40.215-31.371 1.2227 10.742 3.2461 21.242 12.504 27.879h-0.003906c8.168 6.0234 18.168 9.0352 28.301 8.5234-11.598-7.5078-22.082-14.301-32.77-21.223 1.5-1.625 4.0352-1.7344 5.668-0.24219 3.6953 2.0664 7.2812 4.3281 10.738 6.7734 4.5977 4.1953 9.9531 7.4727 15.777 9.6602zm-82.23-123.96c-7.1445-7.4453-31.863-9.3867-49.504-4.5703 13.793 16.141 26.258 16.176 42.496 8.3867-3.8242-0.61719-7.6953-0.75781-11.555-1.0781-3.9414-0.32812-8.3789 0.80078-12.316-4.3359 6.0156 0.55078 10.789 1.2969 15.566 1.3438v-0.003906c5.0469 1.0273 10.238 1.1133 15.312 0.25781zm72.836 18.473c7.6836-14.457-0.41016-35.938-16.57-43.473 0.125 6.043 0.46094 11.836 0.30859 17.613-0.39453 9.0039 4.0039 17.551 11.562 22.461-1.8633-9.0859-5.8477-17.215-7.2617-26.562v0.003906c0.88672 0.11719 1.7344 0.41406 2.5039 0.875 3.1602 9.5273 6.2305 19.086 9.457 29.082zm3.3828 46.152c-6.3359-10.785-23.945-20.707-36.957-18.254h0.003907c1.8633 6.0117 5.4844 11.328 10.398 15.266 0.78516 0.76953 1.8438 1.1992 2.9453 1.1992 7.9102-0.97656 15.938-0.36719 23.613 1.7891zm-61.469-1.0625h0.003907c-0.14453-0.77734-0.41797-1.5273-0.80859-2.2148-8.0781-6.8086-14.852-15.027-19.996-24.258-0.066406-0.21484-0.19531-0.40625-0.375-0.54687-0.63281-0.52734-1.4102-0.85547-2.2266-0.94531-0.98828 0.38281-1.7578 1.1836-2.1016 2.1836-0.28125 1.9961-0.035156 4.0312 0.71875 5.8984 2.6094 5.1797 5.7656 10.059 9.4219 14.559 3.918 4.2188 9.6758 6.2148 15.367 5.3242zm-3.5781-10.574c-1.7344-5.832-3.1289-11.797-5.3086-17.457-1.6133-4.1836-4.8906-5.1016-11.02-3.9922 3.0117 8.7109 8.7383 16.227 16.332 21.449zm67.883 20.566c-1.8594-7.4297-7.6172-9.1445-22.531-7.1914 7.2383 3.8984 13.578 8.3516 22.535 7.1914z"/>
  <path d="m368.62 336c-1.3203 1.0469-2.8672 1.7695-4.5195 2.1055-10.105-1.2227-20.168-2.7852-31.898-4.4805 1.2305-1.0117 2.6406-1.7812 4.1562-2.2695 7.2734 0.96094 14.516 2.1523 21.77 3.2422 3.5195 0.52734 7.0469 0.99219 10.574 1.4844z"/>
  
 </g>
</svg>
